<svg width="280" height="359" viewBox="0 0 280 359" fill="none" xmlns="http://www.w3.org/2000/svg">
<rect opacity="0.15" width="280" height="359" rx="12" fill="#D44747"/>
<path d="M24.3594 41H25.4297V30.9297H29.2812V29.9609H20.5078V30.9297H24.3594V41ZM31.0156 44.3438H32.1406L36.4219 33.1953H35.2969L32.8906 39.6953L30.1562 33.1953H29.0234L32.3438 40.9062L31.0156 44.3438ZM38.1328 44.2344H39.1953V39.2812C39.6875 40.4219 40.7422 41.1172 41.9844 41.1172C44.0938 41.1172 45.3047 39.3203 45.3047 37.1016C45.3047 34.8906 44.0938 33.0703 42 33.0703C40.7656 33.0703 39.6875 33.7656 39.1953 34.9219V33.1953H38.1328V44.2344ZM41.7578 40.1797C40.1328 40.1797 39.1094 38.8516 39.1094 37.1016C39.1094 35.3516 40.1328 34.0312 41.7578 34.0312C43.3906 34.0312 44.2656 35.3672 44.2656 37.1016C44.2656 38.8281 43.3906 40.1797 41.7578 40.1797ZM47.4688 31.5625H48.5469V29.9609H47.4688V31.5625ZM47.4922 41H48.5156V33.1953H47.4922V41ZM54.1953 41.1172C55.6328 41.1172 56.7656 40.3281 57.2422 38.9688L56.2969 38.6094C55.9844 39.5781 55.2031 40.1797 54.1875 40.1797C52.5 40.1797 51.7266 38.7188 51.7266 37.1094C51.7266 35.5234 52.5 34.0156 54.1797 34.0156C55.1797 34.0156 55.9688 34.625 56.3359 35.6016L57.3203 35.2188C56.7422 33.8125 55.6016 33.0703 54.1797 33.0703C51.8359 33.0703 50.6797 35.0625 50.6797 37.1094C50.6797 39.3203 51.9531 41.1172 54.1953 41.1172ZM61.8281 33.0703C60.4453 33.0703 59.5391 33.6328 58.7812 34.6797L59.5703 35.2578C60.1094 34.4531 60.7969 33.9844 61.8359 33.9844C63.3984 33.9844 64 34.7656 64 36.4141V36.5078H61.75C59.7344 36.5078 58.4766 37.1484 58.4766 38.7344C58.4766 40.2344 59.5859 41.1172 61.1719 41.1172C62.3359 41.1172 63.4219 40.5469 64.0078 39.4141L64.0781 41H64.9375V36.2344C64.9375 34.2734 63.8281 33.0703 61.8281 33.0703ZM61.3672 40.2344C60.1953 40.2344 59.5312 39.6562 59.5312 38.7656C59.5312 37.8281 60.2656 37.2734 61.8047 37.2734H64V38.0703C63.6406 39.3516 62.7266 40.2344 61.3672 40.2344ZM68.9219 41.1172C69.2578 41.1172 69.6797 41.0625 70.0234 40.9922L70.0078 40.1094C69.7734 40.1562 69.5391 40.1875 69.375 40.1875C68.5938 40.1875 68.5156 39.6875 68.5156 39.0859V29.9609H67.4844V39.3516C67.4844 40.4531 67.8125 41.1172 68.9219 41.1172ZM75.9219 41H76.9531V36.375C76.9531 35.0156 77.7734 34.0391 79.0781 34.0391C80.3594 34.0391 80.9141 34.8984 80.9141 36.2812V41H81.9453V36.375C81.9453 35.0156 82.7656 34.0391 84.0625 34.0391C85.3906 34.0391 85.9062 34.9453 85.9062 36.5625V41H86.9375V36.4375C86.9375 34.4375 86.125 33.0703 84.25 33.0703C83.0938 33.0703 82.1328 33.6562 81.6719 34.7969C81.3203 33.6016 80.4141 33.0703 79.2656 33.0703C78.2188 33.0703 77.3438 33.5547 76.9141 34.5547V33.1953H75.9141L75.9219 41ZM92.6172 41.1172C94.8438 41.1172 96.4141 39.3203 96.4141 37.0781C96.4141 34.8516 94.8438 33.0703 92.6172 33.0703C90.3984 33.0703 88.8516 34.8516 88.8516 37.0781C88.8516 39.3281 90.3984 41.1172 92.6172 41.1172ZM92.6172 40.2188C90.9297 40.2188 89.9219 38.8125 89.9219 37.0781C89.9219 35.3516 90.9297 33.9766 92.6172 33.9766C94.3203 33.9766 95.3438 35.3594 95.3438 37.0781C95.3438 38.8047 94.3203 40.2188 92.6172 40.2188ZM101.383 41.1172C102.633 41.1172 103.719 40.4062 104.203 39.2266L104.242 41H105.211V29.9609H104.164V34.9141C103.68 33.7656 102.594 33.0703 101.367 33.0703C99.2656 33.0703 97.8984 34.8828 97.8984 37.0859C97.8984 39.3125 99.2656 41.1172 101.383 41.1172ZM101.609 40.1797C99.9844 40.1797 98.9453 38.8281 98.9453 37.0859C98.9453 35.3594 99.9844 34.0156 101.609 34.0156C103.234 34.0156 104.242 35.3438 104.242 37.0859C104.242 38.8516 103.234 40.1797 101.609 40.1797ZM111.031 41.1172C112.289 41.1172 113.172 40.7344 114.047 39.8203L113.328 39.1875C112.625 39.9219 111.977 40.1797 111.039 40.1797C109.469 40.1797 108.562 39.1172 108.484 37.375H114.234C114.266 37.2578 114.289 36.9453 114.289 36.6797C114.289 35.1328 113.453 33.0703 110.906 33.0703C108.633 33.0703 107.391 34.9297 107.391 37.1328C107.391 39.375 108.68 41.1172 111.031 41.1172ZM108.484 36.6094C108.617 35.0469 109.477 33.9531 110.898 33.9531C112.445 33.9531 113.148 35.0625 113.242 36.1172C113.266 36.2734 113.266 36.4453 113.258 36.6094H108.484ZM123.586 41.1172C125.812 41.1172 127.383 39.3203 127.383 37.0781C127.383 34.8516 125.812 33.0703 123.586 33.0703C121.367 33.0703 119.82 34.8516 119.82 37.0781C119.82 39.3281 121.367 41.1172 123.586 41.1172ZM123.586 40.2188C121.898 40.2188 120.891 38.8125 120.891 37.0781C120.891 35.3516 121.898 33.9766 123.586 33.9766C125.289 33.9766 126.312 35.3594 126.312 37.0781C126.312 38.8047 125.289 40.2188 123.586 40.2188ZM130.047 41H131.109V34.0703H133.398V33.1953H131.109V32.0781C131.109 31.1797 131.562 30.7656 132.359 30.7656C132.594 30.7656 132.836 30.8516 133.086 30.9844L133.43 30.1328C133.07 29.9531 132.68 29.8438 132.266 29.8438C130.969 29.8438 130.055 30.5781 130.055 31.9844V33.1953H128.422V34.0703H130.047V41ZM141.508 41.1172C141.945 41.1172 142.367 41.0391 142.609 40.9609L142.594 40.0156C142.375 40.1016 142.023 40.2031 141.68 40.2031C140.852 40.2031 140.414 39.75 140.414 38.6484V34.0703H142.602V33.1953H140.414V30.1797L139.398 30.9375V33.1953H138.086V34.0703H139.383V38.8125C139.383 40.3047 140.125 41.1172 141.508 41.1172ZM144.508 41H145.508V37.0156C145.508 34.8984 146.742 34.0781 147.781 34.0781C148.094 34.0781 148.398 34.1562 148.672 34.3047L149.141 33.4453C148.805 33.1953 148.359 33.0703 147.922 33.0703C146.992 33.0703 145.906 33.625 145.516 34.8281V33.1953H144.508V41ZM153.391 33.0703C152.008 33.0703 151.102 33.6328 150.344 34.6797L151.133 35.2578C151.672 34.4531 152.359 33.9844 153.398 33.9844C154.961 33.9844 155.562 34.7656 155.562 36.4141V36.5078H153.312C151.297 36.5078 150.039 37.1484 150.039 38.7344C150.039 40.2344 151.148 41.1172 152.734 41.1172C153.898 41.1172 154.984 40.5469 155.57 39.4141L155.641 41H156.5V36.2344C156.5 34.2734 155.391 33.0703 153.391 33.0703ZM152.93 40.2344C151.758 40.2344 151.094 39.6562 151.094 38.7656C151.094 37.8281 151.828 37.2734 153.367 37.2734H155.562V38.0703C155.203 39.3516 154.289 40.2344 152.93 40.2344ZM159.086 41H160.117V36.3828C160.117 34.8672 160.969 34.0312 162.289 34.0312C163.57 34.0312 164.242 34.875 164.242 36.2969V41H165.273V36.0547C165.242 34.3672 164.383 33.0703 162.562 33.0703C161.531 33.0703 160.609 33.5703 160.117 34.5234V33.1953H159.086V41ZM170.188 41.1172C171.711 41.1172 172.961 40.3281 172.961 38.7656C172.961 35.7734 168.406 37.0234 168.406 35.0859C168.406 34.3906 169.047 33.9062 170.055 33.9062C171.008 33.9062 171.656 34.4297 172.031 35.1328L172.828 34.7031C172.281 33.6719 171.32 33.0703 170.086 33.0703C168.594 33.0703 167.414 33.8281 167.414 35.2188C167.414 38.0391 171.945 36.6953 171.945 38.8125C171.945 39.6328 171.32 40.25 170.141 40.25C168.93 40.25 168.156 39.5312 167.859 38.6953L167.023 39.0625C167.422 40.25 168.648 41.1172 170.188 41.1172ZM175.133 44.2344H176.195V39.2812C176.688 40.4219 177.742 41.1172 178.984 41.1172C181.094 41.1172 182.305 39.3203 182.305 37.1016C182.305 34.8906 181.094 33.0703 179 33.0703C177.766 33.0703 176.688 33.7656 176.195 34.9219V33.1953H175.133V44.2344ZM178.758 40.1797C177.133 40.1797 176.109 38.8516 176.109 37.1016C176.109 35.3516 177.133 34.0312 178.758 34.0312C180.391 34.0312 181.266 35.3672 181.266 37.1016C181.266 38.8281 180.391 40.1797 178.758 40.1797ZM187.57 41.1172C189.797 41.1172 191.367 39.3203 191.367 37.0781C191.367 34.8516 189.797 33.0703 187.57 33.0703C185.352 33.0703 183.805 34.8516 183.805 37.0781C183.805 39.3281 185.352 41.1172 187.57 41.1172ZM187.57 40.2188C185.883 40.2188 184.875 38.8125 184.875 37.0781C184.875 35.3516 185.883 33.9766 187.57 33.9766C189.273 33.9766 190.297 35.3594 190.297 37.0781C190.297 38.8047 189.273 40.2188 187.57 40.2188ZM193.492 41H194.492V37.0156C194.492 34.8984 195.727 34.0781 196.766 34.0781C197.078 34.0781 197.383 34.1562 197.656 34.3047L198.125 33.4453C197.789 33.1953 197.344 33.0703 196.906 33.0703C195.977 33.0703 194.891 33.625 194.5 34.8281V33.1953H193.492V41ZM202.461 41.1172C202.898 41.1172 203.32 41.0391 203.562 40.9609L203.547 40.0156C203.328 40.1016 202.977 40.2031 202.633 40.2031C201.805 40.2031 201.367 39.75 201.367 38.6484V34.0703H203.555V33.1953H201.367V30.1797L200.352 30.9375V33.1953H199.039V34.0703H200.336V38.8125C200.336 40.3047 201.078 41.1172 202.461 41.1172ZM208.25 33.0703C206.867 33.0703 205.961 33.6328 205.203 34.6797L205.992 35.2578C206.531 34.4531 207.219 33.9844 208.258 33.9844C209.82 33.9844 210.422 34.7656 210.422 36.4141V36.5078H208.172C206.156 36.5078 204.898 37.1484 204.898 38.7344C204.898 40.2344 206.008 41.1172 207.594 41.1172C208.758 41.1172 209.844 40.5469 210.43 39.4141L210.5 41H211.359V36.2344C211.359 34.2734 210.25 33.0703 208.25 33.0703ZM207.789 40.2344C206.617 40.2344 205.953 39.6562 205.953 38.7656C205.953 37.8281 206.688 37.2734 208.227 37.2734H210.422V38.0703C210.062 39.3516 209.148 40.2344 207.789 40.2344ZM216.289 41.1172C216.727 41.1172 217.148 41.0391 217.391 40.9609L217.375 40.0156C217.156 40.1016 216.805 40.2031 216.461 40.2031C215.633 40.2031 215.195 39.75 215.195 38.6484V34.0703H217.383V33.1953H215.195V30.1797L214.18 30.9375V33.1953H212.867V34.0703H214.164V38.8125C214.164 40.3047 214.906 41.1172 216.289 41.1172ZM219.406 31.5625H220.484V29.9609H219.406V31.5625ZM219.43 41H220.453V33.1953H219.43V41ZM226.336 41.1172C228.562 41.1172 230.133 39.3203 230.133 37.0781C230.133 34.8516 228.562 33.0703 226.336 33.0703C224.117 33.0703 222.57 34.8516 222.57 37.0781C222.57 39.3281 224.117 41.1172 226.336 41.1172ZM226.336 40.2188C224.648 40.2188 223.641 38.8125 223.641 37.0781C223.641 35.3516 224.648 33.9766 226.336 33.9766C228.039 33.9766 229.062 35.3594 229.062 37.0781C229.062 38.8047 228.039 40.2188 226.336 40.2188ZM232.258 41H233.289V36.3828C233.289 34.8672 234.141 34.0312 235.461 34.0312C236.742 34.0312 237.414 34.875 237.414 36.2969V41H238.445V36.0547C238.414 34.3672 237.555 33.0703 235.734 33.0703C234.703 33.0703 233.781 33.5703 233.289 34.5234V33.1953H232.258V41ZM247.508 41.1172C247.945 41.1172 248.367 41.0391 248.609 40.9609L248.594 40.0156C248.375 40.1016 248.023 40.2031 247.68 40.2031C246.852 40.2031 246.414 39.75 246.414 38.6484V34.0703H248.602V33.1953H246.414V30.1797L245.398 30.9375V33.1953H244.086V34.0703H245.383V38.8125C245.383 40.3047 246.125 41.1172 247.508 41.1172ZM253.633 41.1172C255.859 41.1172 257.43 39.3203 257.43 37.0781C257.43 34.8516 255.859 33.0703 253.633 33.0703C251.414 33.0703 249.867 34.8516 249.867 37.0781C249.867 39.3281 251.414 41.1172 253.633 41.1172ZM253.633 40.2188C251.945 40.2188 250.938 38.8125 250.938 37.0781C250.938 35.3516 251.945 33.9766 253.633 33.9766C255.336 33.9766 256.359 35.3594 256.359 37.0781C256.359 38.8047 255.336 40.2188 253.633 40.2188ZM24.0312 58.0703C22.6484 58.0703 21.7422 58.6328 20.9844 59.6797L21.7734 60.2578C22.3125 59.4531 23 58.9844 24.0391 58.9844C25.6016 58.9844 26.2031 59.7656 26.2031 61.4141V61.5078H23.9531C21.9375 61.5078 20.6797 62.1484 20.6797 63.7344C20.6797 65.2344 21.7891 66.1172 23.375 66.1172C24.5391 66.1172 25.625 65.5469 26.2109 64.4141L26.2812 66H27.1406V61.2344C27.1406 59.2734 26.0312 58.0703 24.0312 58.0703ZM23.5703 65.2344C22.3984 65.2344 21.7344 64.6562 21.7344 63.7656C21.7344 62.8281 22.4688 62.2734 24.0078 62.2734H26.2031V63.0703C25.8438 64.3516 24.9297 65.2344 23.5703 65.2344ZM29.7266 66H30.7578V61.3828C30.7578 59.8672 31.6094 59.0312 32.9297 59.0312C34.2109 59.0312 34.8828 59.875 34.8828 61.2969V66H35.9141V61.0547C35.8828 59.3672 35.0234 58.0703 33.2031 58.0703C32.1719 58.0703 31.25 58.5703 30.7578 59.5234V58.1953H29.7266V66ZM41.3516 66.1172C42.6016 66.1172 43.6875 65.4062 44.1719 64.2266L44.2109 66H45.1797V54.9609H44.1328V59.9141C43.6484 58.7656 42.5625 58.0703 41.3359 58.0703C39.2344 58.0703 37.8672 59.8828 37.8672 62.0859C37.8672 64.3125 39.2344 66.1172 41.3516 66.1172ZM41.5781 65.1797C39.9531 65.1797 38.9141 63.8281 38.9141 62.0859C38.9141 60.3594 39.9531 59.0156 41.5781 59.0156C43.2031 59.0156 44.2109 60.3438 44.2109 62.0859C44.2109 63.8516 43.2031 65.1797 41.5781 65.1797ZM52.625 66H53.6875V59.0703H55.9766V58.1953H53.6875V57.0781C53.6875 56.1797 54.1406 55.7656 54.9375 55.7656C55.1719 55.7656 55.4141 55.8516 55.6641 55.9844L56.0078 55.1328C55.6484 54.9531 55.2578 54.8438 54.8438 54.8438C53.5469 54.8438 52.6328 55.5781 52.6328 56.9844V58.1953H51V59.0703H52.625V66ZM57.6172 66H58.6172V62.0156C58.6172 59.8984 59.8516 59.0781 60.8906 59.0781C61.2031 59.0781 61.5078 59.1562 61.7812 59.3047L62.25 58.4453C61.9141 58.1953 61.4688 58.0703 61.0312 58.0703C60.1016 58.0703 59.0156 58.625 58.625 59.8281V58.1953H57.6172V66ZM66.3516 66.1172C68.5781 66.1172 70.1484 64.3203 70.1484 62.0781C70.1484 59.8516 68.5781 58.0703 66.3516 58.0703C64.1328 58.0703 62.5859 59.8516 62.5859 62.0781C62.5859 64.3281 64.1328 66.1172 66.3516 66.1172ZM66.3516 65.2188C64.6641 65.2188 63.6562 63.8125 63.6562 62.0781C63.6562 60.3516 64.6641 58.9766 66.3516 58.9766C68.0547 58.9766 69.0781 60.3594 69.0781 62.0781C69.0781 63.8047 68.0547 65.2188 66.3516 65.2188ZM72.2812 66H73.3125V61.375C73.3125 60.0156 74.1328 59.0391 75.4375 59.0391C76.7188 59.0391 77.2734 59.8984 77.2734 61.2812V66H78.3047V61.375C78.3047 60.0156 79.125 59.0391 80.4219 59.0391C81.75 59.0391 82.2656 59.9453 82.2656 61.5625V66H83.2969V61.4375C83.2969 59.4375 82.4844 58.0703 80.6094 58.0703C79.4531 58.0703 78.4922 58.6562 78.0312 59.7969C77.6797 58.6016 76.7734 58.0703 75.625 58.0703C74.5781 58.0703 73.7031 58.5547 73.2734 59.5547V58.1953H72.2734L72.2812 66ZM92.8672 66.1172C94.3047 66.1172 95.4375 65.3281 95.9141 63.9688L94.9688 63.6094C94.6562 64.5781 93.875 65.1797 92.8594 65.1797C91.1719 65.1797 90.3984 63.7188 90.3984 62.1094C90.3984 60.5234 91.1719 59.0156 92.8516 59.0156C93.8516 59.0156 94.6406 59.625 95.0078 60.6016L95.9922 60.2188C95.4141 58.8125 94.2734 58.0703 92.8516 58.0703C90.5078 58.0703 89.3516 60.0625 89.3516 62.1094C89.3516 64.3203 90.625 66.1172 92.8672 66.1172ZM100.5 58.0703C99.1172 58.0703 98.2109 58.6328 97.4531 59.6797L98.2422 60.2578C98.7812 59.4531 99.4688 58.9844 100.508 58.9844C102.07 58.9844 102.672 59.7656 102.672 61.4141V61.5078H100.422C98.4062 61.5078 97.1484 62.1484 97.1484 63.7344C97.1484 65.2344 98.2578 66.1172 99.8438 66.1172C101.008 66.1172 102.094 65.5469 102.68 64.4141L102.75 66H103.609V61.2344C103.609 59.2734 102.5 58.0703 100.5 58.0703ZM100.039 65.2344C98.8672 65.2344 98.2031 64.6562 98.2031 63.7656C98.2031 62.8281 98.9375 62.2734 100.477 62.2734H102.672V63.0703C102.312 64.3516 101.398 65.2344 100.039 65.2344ZM106.203 66H107.234V61.375C107.234 60.0156 108.055 59.0391 109.359 59.0391C110.641 59.0391 111.195 59.8984 111.195 61.2812V66H112.227V61.375C112.227 60.0156 113.047 59.0391 114.344 59.0391C115.672 59.0391 116.188 59.9453 116.188 61.5625V66H117.219V61.4375C117.219 59.4375 116.406 58.0703 114.531 58.0703C113.375 58.0703 112.414 58.6562 111.953 59.7969C111.602 58.6016 110.695 58.0703 109.547 58.0703C108.5 58.0703 107.625 58.5547 107.195 59.5547V58.1953H106.195L106.203 66ZM119.836 69.2344H120.898V64.2812C121.391 65.4219 122.445 66.1172 123.688 66.1172C125.797 66.1172 127.008 64.3203 127.008 62.1016C127.008 59.8906 125.797 58.0703 123.703 58.0703C122.469 58.0703 121.391 58.7656 120.898 59.9219V58.1953H119.836V69.2344ZM123.461 65.1797C121.836 65.1797 120.812 63.8516 120.812 62.1016C120.812 60.3516 121.836 59.0312 123.461 59.0312C125.094 59.0312 125.969 60.3672 125.969 62.1016C125.969 63.8281 125.094 65.1797 123.461 65.1797ZM131.641 66.1172C132.672 66.1172 133.602 65.625 134.086 64.6719V66H135.109V58.1953H134.086V62.8047C134.086 64.3281 133.227 65.1562 131.914 65.1562C130.633 65.1562 129.961 64.3203 129.961 62.8984V58.1953H128.938V63.1328C128.969 64.8203 129.812 66.1172 131.641 66.1172ZM140.234 66.1172C141.758 66.1172 143.008 65.3281 143.008 63.7656C143.008 60.7734 138.453 62.0234 138.453 60.0859C138.453 59.3906 139.094 58.9062 140.102 58.9062C141.055 58.9062 141.703 59.4297 142.078 60.1328L142.875 59.7031C142.328 58.6719 141.367 58.0703 140.133 58.0703C138.641 58.0703 137.461 58.8281 137.461 60.2188C137.461 63.0391 141.992 61.6953 141.992 63.8125C141.992 64.6328 141.367 65.25 140.188 65.25C138.977 65.25 138.203 64.5312 137.906 63.6953L137.07 64.0625C137.469 65.25 138.695 66.1172 140.234 66.1172ZM145.695 66H146.734V64.2812H145.695V66Z" fill="#1A1F23"/>
<path d="M195.677 125.303C189.32 115.817 180.284 108.122 169.545 103.048C158.806 97.9747 146.774 95.717 134.75 96.5191C122.725 97.3211 111.167 101.153 101.324 107.599C91.4815 114.045 83.7295 122.861 78.9066 133.093C74.0837 143.324 72.3735 154.582 73.961 165.649C75.5485 176.716 80.3733 187.17 87.9135 195.881C95.4537 204.592 105.422 211.227 116.741 215.07C128.06 218.913 140.297 219.817 152.131 217.685L139.5 157.587L195.677 125.303Z" fill="#B2E7B2"/>
<path d="M205.615 157.599C205.617 146.009 202.068 134.657 195.379 124.862L139.5 157.586L205.615 157.599Z" fill="#D293CE"/>
<path d="M173.284 210.215C184.445 204.071 193.405 195.019 199.047 184.19C204.689 173.36 206.762 161.231 205.009 149.317L139.5 157.586L173.284 210.215Z" fill="#95A9E8"/>
<path d="M150.335 217.984C158.452 216.735 166.246 214.095 173.316 210.197L139.5 157.586L150.335 217.984Z" fill="#EDB0A9"/>
<path d="M94.5469 152.341V153.681H99.7217L95.4355 162H97.0625L101.492 153.12V152.341H94.5469ZM105.956 162.13C107.843 162.13 109.47 161.098 109.47 159.19C109.47 158.015 108.779 157.153 107.474 156.839C108.465 156.449 108.95 155.711 108.95 154.802C108.95 153.188 107.528 152.211 105.929 152.211C104.274 152.211 102.9 153.25 102.9 155.014L104.288 155.103C104.302 154.159 104.965 153.578 105.949 153.578C106.852 153.578 107.542 154.07 107.542 154.979C107.542 155.902 107.063 156.367 105.512 156.367V157.502C106.667 157.502 108.068 157.604 108.068 159.074C108.068 160.195 107.111 160.776 105.983 160.776C104.739 160.776 103.844 160.093 103.844 158.924L102.442 159.006C102.442 161.07 104.035 162.13 105.956 162.13ZM111.5 162H112.922V160.291H111.5V162ZM118.432 152.211C116.538 152.211 115 153.701 115 155.526C115 157.017 116.032 158.254 117.379 158.65C117.837 158.794 118.322 158.828 118.801 158.76L116.784 162H118.459L121.351 157.283C121.665 156.771 121.877 156.176 121.877 155.513C121.877 153.701 120.332 152.211 118.432 152.211ZM118.432 157.481C117.324 157.481 116.436 156.6 116.436 155.533C116.436 154.46 117.324 153.578 118.432 153.578C119.546 153.578 120.441 154.46 120.441 155.526C120.441 156.6 119.546 157.481 118.432 157.481Z" fill="#1E1D2D"/>
<path d="M166.992 165.341V166.011C166.992 166.612 166.65 166.865 166.028 166.865H164.627V167.986H166.938V175H168.38V165.341H166.992ZM171.572 165.341V166.681H176.747L172.461 175H174.088L178.518 166.12V165.341H171.572ZM180.268 175H181.689V173.291H180.268V175ZM189.284 171.377V165.341H188.033L183.248 171.849V172.724H187.842V175H189.284V172.724H190.836V171.377H189.284ZM185.128 171.377L187.842 167.562V171.377H185.128Z" fill="#1E1D2D"/>
<path d="M58.75 271H62.4141C64.4766 271 65.9375 269.93 65.9375 267.945C65.9375 266.57 65.125 265.453 63.9062 265.156C64.7344 264.82 65.3984 263.922 65.3984 262.797C65.3984 260.805 63.9453 259.961 62.0938 259.961H58.75V271ZM59.8203 264.797V260.938H62.1094C63.5625 260.938 64.4062 261.586 64.4062 262.859C64.4062 264.125 63.5156 264.797 62.4297 264.797H59.8203ZM59.8203 269.977V265.734H62.7109C64.0703 265.734 64.8828 266.578 64.8828 267.828C64.8828 269.258 64.0312 269.977 62.4297 269.977H59.8203ZM70.6094 271.117C71.6406 271.117 72.5703 270.625 73.0547 269.672V271H74.0781V263.195H73.0547V267.805C73.0547 269.328 72.1953 270.156 70.8828 270.156C69.6016 270.156 68.9297 269.32 68.9297 267.898V263.195H67.9062V268.133C67.9375 269.82 68.7812 271.117 70.6094 271.117ZM79.2031 271.117C80.7266 271.117 81.9766 270.328 81.9766 268.766C81.9766 265.773 77.4219 267.023 77.4219 265.086C77.4219 264.391 78.0625 263.906 79.0703 263.906C80.0234 263.906 80.6719 264.43 81.0469 265.133L81.8438 264.703C81.2969 263.672 80.3359 263.07 79.1016 263.07C77.6094 263.07 76.4297 263.828 76.4297 265.219C76.4297 268.039 80.9609 266.695 80.9609 268.812C80.9609 269.633 80.3359 270.25 79.1562 270.25C77.9453 270.25 77.1719 269.531 76.875 268.695L76.0391 269.062C76.4375 270.25 77.6641 271.117 79.2031 271.117Z" fill="#1A1F23"/>
<path d="M63.0391 303.117C65.1953 303.117 66.75 302.078 67.6172 300.109L66.6172 299.703C65.9219 301.352 64.7734 302.094 63.0391 302.094C60.2734 302.094 59.1016 300.055 59.1016 297.422C59.1016 294.672 60.4297 292.859 63.0938 292.859C64.8672 292.859 66.0391 293.57 66.5938 295.219L67.6016 294.812C66.7891 292.844 65.2891 291.828 63.1016 291.828C59.7422 291.828 58.0391 294.188 58.0391 297.461C58.0391 300.734 59.7422 303.117 63.0391 303.117ZM72.125 295.07C70.7422 295.07 69.8359 295.633 69.0781 296.68L69.8672 297.258C70.4062 296.453 71.0938 295.984 72.1328 295.984C73.6953 295.984 74.2969 296.766 74.2969 298.414V298.508H72.0469C70.0312 298.508 68.7734 299.148 68.7734 300.734C68.7734 302.234 69.8828 303.117 71.4688 303.117C72.6328 303.117 73.7188 302.547 74.3047 301.414L74.375 303H75.2344V298.234C75.2344 296.273 74.125 295.07 72.125 295.07ZM71.6641 302.234C70.4922 302.234 69.8281 301.656 69.8281 300.766C69.8281 299.828 70.5625 299.273 72.1016 299.273H74.2969V300.07C73.9375 301.352 73.0234 302.234 71.6641 302.234ZM77.8203 303H78.8203V299.016C78.8203 296.898 80.0547 296.078 81.0938 296.078C81.4062 296.078 81.7109 296.156 81.9844 296.305L82.4531 295.445C82.1172 295.195 81.6719 295.07 81.2344 295.07C80.3047 295.07 79.2188 295.625 78.8281 296.828V295.195H77.8203V303Z" fill="#1A1F23"/>
<path d="M181.75 254H182.82V249.016H184.391C184.648 249.016 184.906 249.008 185.133 248.992L188.016 254H189.234L186.18 248.883C187.609 248.539 188.516 247.531 188.516 246.039C188.516 244.07 186.969 242.961 184.844 242.961H181.75V254ZM182.828 248.125V243.93H184.852C186.469 243.93 187.445 244.711 187.445 246.055C187.445 247.367 186.539 248.102 184.93 248.125H182.828ZM191.25 244.562H192.328V242.961H191.25V244.562ZM191.273 254H192.297V246.195H191.273V254ZM197.945 254.117C199.195 254.117 200.281 253.406 200.766 252.227L200.805 254H201.773V242.961H200.727V247.914C200.242 246.766 199.156 246.07 197.93 246.07C195.828 246.07 194.461 247.883 194.461 250.086C194.461 252.312 195.828 254.117 197.945 254.117ZM198.172 253.18C196.547 253.18 195.508 251.828 195.508 250.086C195.508 248.359 196.547 247.016 198.172 247.016C199.797 247.016 200.805 248.344 200.805 250.086C200.805 251.852 199.797 253.18 198.172 253.18ZM207.594 254.117C208.852 254.117 209.734 253.734 210.609 252.82L209.891 252.188C209.188 252.922 208.539 253.18 207.602 253.18C206.031 253.18 205.125 252.117 205.047 250.375H210.797C210.828 250.258 210.852 249.945 210.852 249.68C210.852 248.133 210.016 246.07 207.469 246.07C205.195 246.07 203.953 247.93 203.953 250.133C203.953 252.375 205.242 254.117 207.594 254.117ZM205.047 249.609C205.18 248.047 206.039 246.953 207.461 246.953C209.008 246.953 209.711 248.062 209.805 249.117C209.828 249.273 209.828 249.445 209.82 249.609H205.047ZM215.297 254.117C216.82 254.117 218.07 253.328 218.07 251.766C218.07 248.773 213.516 250.023 213.516 248.086C213.516 247.391 214.156 246.906 215.164 246.906C216.117 246.906 216.766 247.43 217.141 248.133L217.938 247.703C217.391 246.672 216.43 246.07 215.195 246.07C213.703 246.07 212.523 246.828 212.523 248.219C212.523 251.039 217.055 249.695 217.055 251.812C217.055 252.633 216.43 253.25 215.25 253.25C214.039 253.25 213.266 252.531 212.969 251.695L212.133 252.062C212.531 253.25 213.758 254.117 215.297 254.117ZM220.242 254H221.289V249.547C221.289 248.055 222.094 247.016 223.484 247.016C224.852 247.016 225.398 247.906 225.398 249.297V254H226.445V249.055C226.414 247.367 225.539 246.07 223.719 246.07C222.688 246.07 221.781 246.57 221.289 247.523V242.961H220.242V254ZM231.672 246.07C230.289 246.07 229.383 246.633 228.625 247.68L229.414 248.258C229.953 247.453 230.641 246.984 231.68 246.984C233.242 246.984 233.844 247.766 233.844 249.414V249.508H231.594C229.578 249.508 228.32 250.148 228.32 251.734C228.32 253.234 229.43 254.117 231.016 254.117C232.18 254.117 233.266 253.547 233.852 252.414L233.922 254H234.781V249.234C234.781 247.273 233.672 246.07 231.672 246.07ZM231.211 253.234C230.039 253.234 229.375 252.656 229.375 251.766C229.375 250.828 230.109 250.273 231.648 250.273H233.844V251.07C233.484 252.352 232.57 253.234 231.211 253.234ZM237.367 254H238.367V250.016C238.367 247.898 239.602 247.078 240.641 247.078C240.953 247.078 241.258 247.156 241.531 247.305L242 246.445C241.664 246.195 241.219 246.07 240.781 246.07C239.852 246.07 238.766 246.625 238.375 247.828V246.195H237.367V254ZM246.031 254.117C247.289 254.117 248.172 253.734 249.047 252.82L248.328 252.188C247.625 252.922 246.977 253.18 246.039 253.18C244.469 253.18 243.562 252.117 243.484 250.375H249.234C249.266 250.258 249.289 249.945 249.289 249.68C249.289 248.133 248.453 246.07 245.906 246.07C243.633 246.07 242.391 247.93 242.391 250.133C242.391 252.375 243.68 254.117 246.031 254.117ZM243.484 249.609C243.617 248.047 244.477 246.953 245.898 246.953C247.445 246.953 248.148 248.062 248.242 249.117C248.266 249.273 248.266 249.445 248.258 249.609H243.484Z" fill="#1A1F23"/>
<path d="M183.797 285H184.891L187.734 276.242L190.578 285H191.664L194.852 273.961H193.727L191.047 283.469L188.172 274.555H187.297L184.414 283.469L181.734 273.961H180.617L183.797 285ZM199.016 277.07C197.633 277.07 196.727 277.633 195.969 278.68L196.758 279.258C197.297 278.453 197.984 277.984 199.023 277.984C200.586 277.984 201.188 278.766 201.188 280.414V280.508H198.938C196.922 280.508 195.664 281.148 195.664 282.734C195.664 284.234 196.773 285.117 198.359 285.117C199.523 285.117 200.609 284.547 201.195 283.414L201.266 285H202.125V280.234C202.125 278.273 201.016 277.07 199.016 277.07ZM198.555 284.234C197.383 284.234 196.719 283.656 196.719 282.766C196.719 281.828 197.453 281.273 198.992 281.273H201.188V282.07C200.828 283.352 199.914 284.234 198.555 284.234ZM206.109 285.117C206.445 285.117 206.867 285.062 207.211 284.992L207.195 284.109C206.961 284.156 206.727 284.188 206.562 284.188C205.781 284.188 205.703 283.688 205.703 283.086V273.961H204.672V283.352C204.672 284.453 205 285.117 206.109 285.117ZM209.023 285H210.055V282.688L211.891 280.758L214.656 285H215.883L212.594 280.109L215.422 277.195H214.07L210.055 281.438V273.961H209.023V285ZM217.516 275.562H218.594V273.961H217.516V275.562ZM217.539 285H218.562V277.195H217.539V285ZM221.367 285H222.398V280.383C222.398 278.867 223.25 278.031 224.57 278.031C225.852 278.031 226.523 278.875 226.523 280.297V285H227.555V280.055C227.523 278.367 226.664 277.07 224.844 277.07C223.812 277.07 222.891 277.57 222.398 278.523V277.195H221.367V285ZM233.047 284.062C231.656 283.859 230.578 283.734 230.578 282.875C230.578 282.508 230.773 282.242 231.195 282.055C231.656 282.312 232.219 282.461 232.836 282.461C234.484 282.461 235.766 281.414 235.766 279.812C235.766 279.25 235.609 278.75 235.344 278.336L236.391 277.453L235.844 276.781L234.781 277.719C234.266 277.305 233.578 277.07 232.812 277.07C231.148 277.07 229.852 278.18 229.852 279.758C229.852 280.461 230.102 281.07 230.531 281.531C229.977 281.914 229.688 282.383 229.688 283.039C229.688 283.828 230.117 284.266 230.711 284.531L229.531 285.609C229.516 285.711 229.508 285.812 229.508 285.953C229.508 287.492 230.805 288.586 233.023 288.586C234.922 288.586 236.281 287.742 236.281 286.219C236.281 284.547 234.625 284.305 233.047 284.062ZM232.844 277.891C234.008 277.891 234.742 278.664 234.742 279.773C234.742 280.859 234.016 281.609 232.836 281.609C231.656 281.609 230.922 280.852 230.922 279.766C230.922 278.672 231.688 277.891 232.844 277.891ZM233.016 287.766C231.602 287.766 230.57 287.172 230.461 286.078C230.453 286 230.445 285.922 230.445 285.828L231.352 284.742C231.789 284.844 232.258 284.906 232.695 284.969C234.18 285.18 235.297 285.328 235.297 286.32C235.297 287.234 234.398 287.766 233.016 287.766Z" fill="#1A1F23"/>
<path d="M184.594 316.102C186.594 316.102 188.141 314.859 188.141 312.969C188.141 309.328 182.469 310.234 182.469 307.609C182.469 306.562 183.336 305.797 184.484 305.797C185.508 305.797 186.25 306.25 186.758 307.172L187.648 306.617C186.945 305.383 185.875 304.844 184.523 304.844C182.789 304.844 181.398 305.938 181.398 307.656C181.398 311.102 187.07 310.156 187.07 313.055C187.07 314.25 186.102 315.141 184.609 315.141C183.133 315.141 182.023 314.336 181.805 312.805L180.742 313.07C181.07 315.031 182.688 316.102 184.594 316.102ZM190.32 316H191.367V311.547C191.367 310.055 192.172 309.016 193.562 309.016C194.93 309.016 195.477 309.906 195.477 311.297V316H196.523V311.055C196.492 309.367 195.617 308.07 193.797 308.07C192.766 308.07 191.859 308.57 191.367 309.523V304.961H190.32V316ZM201.516 316.117C202.547 316.117 203.477 315.625 203.961 314.672V316H204.984V308.195H203.961V312.805C203.961 314.328 203.102 315.156 201.789 315.156C200.508 315.156 199.836 314.32 199.836 312.898V308.195H198.812V313.133C198.844 314.82 199.688 316.117 201.516 316.117ZM210.164 316.117C210.602 316.117 211.023 316.039 211.266 315.961L211.25 315.016C211.031 315.102 210.68 315.203 210.336 315.203C209.508 315.203 209.07 314.75 209.07 313.648V309.07H211.258V308.195H209.07V305.18L208.055 305.938V308.195H206.742V309.07H208.039V313.812C208.039 315.305 208.781 316.117 210.164 316.117ZM215.648 316.117C216.086 316.117 216.508 316.039 216.75 315.961L216.734 315.016C216.516 315.102 216.164 315.203 215.82 315.203C214.992 315.203 214.555 314.75 214.555 313.648V309.07H216.742V308.195H214.555V305.18L213.539 305.938V308.195H212.227V309.07H213.523V313.812C213.523 315.305 214.266 316.117 215.648 316.117ZM219.969 316.117C220.305 316.117 220.727 316.062 221.07 315.992L221.055 315.109C220.82 315.156 220.586 315.188 220.422 315.188C219.641 315.188 219.562 314.688 219.562 314.086V304.961H218.531V314.352C218.531 315.453 218.859 316.117 219.969 316.117ZM225.875 316.117C227.133 316.117 228.016 315.734 228.891 314.82L228.172 314.188C227.469 314.922 226.82 315.18 225.883 315.18C224.312 315.18 223.406 314.117 223.328 312.375H229.078C229.109 312.258 229.133 311.945 229.133 311.68C229.133 310.133 228.297 308.07 225.75 308.07C223.477 308.07 222.234 309.93 222.234 312.133C222.234 314.375 223.523 316.117 225.875 316.117ZM223.328 311.609C223.461 310.047 224.32 308.953 225.742 308.953C227.289 308.953 227.992 310.062 228.086 311.117C228.109 311.273 228.109 311.445 228.102 311.609H223.328Z" fill="#1A1F23"/>
<circle cx="39" cy="267" r="10" fill="#95A9E8"/>
<circle cx="39" cy="299" r="10" fill="#EDB0A9"/>
<circle cx="162" cy="250" r="10" fill="#FFDCA9"/>
<circle cx="162" cy="280" r="10" fill="#B2E7B2"/>
<circle cx="162" cy="311" r="10" fill="#D293CE"/>
</svg>
