<svg width="279" height="359" viewBox="0 0 279 359" fill="none" xmlns="http://www.w3.org/2000/svg">
<rect opacity="0.15" width="279" height="359" rx="12" fill="#D44747"/>
<path d="M23.7969 41H24.8906L27.7344 32.2422L30.5781 41H31.6641L34.8516 29.9609H33.7266L31.0469 39.4688L28.1719 30.5547H27.2969L24.4141 39.4688L21.7344 29.9609H20.6172L23.7969 41ZM39.0156 33.0703C37.6328 33.0703 36.7266 33.6328 35.9688 34.6797L36.7578 35.2578C37.2969 34.4531 37.9844 33.9844 39.0234 33.9844C40.5859 33.9844 41.1875 34.7656 41.1875 36.4141V36.5078H38.9375C36.9219 36.5078 35.6641 37.1484 35.6641 38.7344C35.6641 40.2344 36.7734 41.1172 38.3594 41.1172C39.5234 41.1172 40.6094 40.5469 41.1953 39.4141L41.2656 41H42.125V36.2344C42.125 34.2734 41.0156 33.0703 39.0156 33.0703ZM38.5547 40.2344C37.3828 40.2344 36.7188 39.6562 36.7188 38.7656C36.7188 37.8281 37.4531 37.2734 38.9922 37.2734H41.1875V38.0703C40.8281 39.3516 39.9141 40.2344 38.5547 40.2344ZM46.1094 41.1172C46.4453 41.1172 46.8672 41.0625 47.2109 40.9922L47.1953 40.1094C46.9609 40.1562 46.7266 40.1875 46.5625 40.1875C45.7812 40.1875 45.7031 39.6875 45.7031 39.0859V29.9609H44.6719V39.3516C44.6719 40.4531 45 41.1172 46.1094 41.1172ZM49.0234 41H50.0547V38.6875L51.8906 36.7578L54.6562 41H55.8828L52.5938 36.1094L55.4219 33.1953H54.0703L50.0547 37.4375V29.9609H49.0234V41ZM57.5156 31.5625H58.5938V29.9609H57.5156V31.5625ZM57.5391 41H58.5625V33.1953H57.5391V41ZM61.3672 41H62.3984V36.3828C62.3984 34.8672 63.25 34.0312 64.5703 34.0312C65.8516 34.0312 66.5234 34.875 66.5234 36.2969V41H67.5547V36.0547C67.5234 34.3672 66.6641 33.0703 64.8438 33.0703C63.8125 33.0703 62.8906 33.5703 62.3984 34.5234V33.1953H61.3672V41ZM73.0469 40.0625C71.6562 39.8594 70.5781 39.7344 70.5781 38.875C70.5781 38.5078 70.7734 38.2422 71.1953 38.0547C71.6562 38.3125 72.2188 38.4609 72.8359 38.4609C74.4844 38.4609 75.7656 37.4141 75.7656 35.8125C75.7656 35.25 75.6094 34.75 75.3438 34.3359L76.3906 33.4531L75.8438 32.7812L74.7812 33.7188C74.2656 33.3047 73.5781 33.0703 72.8125 33.0703C71.1484 33.0703 69.8516 34.1797 69.8516 35.7578C69.8516 36.4609 70.1016 37.0703 70.5312 37.5312C69.9766 37.9141 69.6875 38.3828 69.6875 39.0391C69.6875 39.8281 70.1172 40.2656 70.7109 40.5312L69.5312 41.6094C69.5156 41.7109 69.5078 41.8125 69.5078 41.9531C69.5078 43.4922 70.8047 44.5859 73.0234 44.5859C74.9219 44.5859 76.2812 43.7422 76.2812 42.2188C76.2812 40.5469 74.625 40.3047 73.0469 40.0625ZM72.8438 33.8906C74.0078 33.8906 74.7422 34.6641 74.7422 35.7734C74.7422 36.8594 74.0156 37.6094 72.8359 37.6094C71.6562 37.6094 70.9219 36.8516 70.9219 35.7656C70.9219 34.6719 71.6875 33.8906 72.8438 33.8906ZM73.0156 43.7656C71.6016 43.7656 70.5703 43.1719 70.4609 42.0781C70.4531 42 70.4453 41.9219 70.4453 41.8281L71.3516 40.7422C71.7891 40.8438 72.2578 40.9062 72.6953 40.9688C74.1797 41.1797 75.2969 41.3281 75.2969 42.3203C75.2969 43.2344 74.3984 43.7656 73.0156 43.7656ZM85.2109 41.1172C86.4609 41.1172 87.5469 40.4062 88.0312 39.2266L88.0703 41H89.0391V29.9609H87.9922V34.9141C87.5078 33.7656 86.4219 33.0703 85.1953 33.0703C83.0938 33.0703 81.7266 34.8828 81.7266 37.0859C81.7266 39.3125 83.0938 41.1172 85.2109 41.1172ZM85.4375 40.1797C83.8125 40.1797 82.7734 38.8281 82.7734 37.0859C82.7734 35.3594 83.8125 34.0156 85.4375 34.0156C87.0625 34.0156 88.0703 35.3438 88.0703 37.0859C88.0703 38.8516 87.0625 40.1797 85.4375 40.1797ZM91.8281 31.5625H92.9062V29.9609H91.8281V31.5625ZM91.8516 41H92.875V33.1953H91.8516V41ZM98 41.1172C99.5234 41.1172 100.773 40.3281 100.773 38.7656C100.773 35.7734 96.2188 37.0234 96.2188 35.0859C96.2188 34.3906 96.8594 33.9062 97.8672 33.9062C98.8203 33.9062 99.4688 34.4297 99.8438 35.1328L100.641 34.7031C100.094 33.6719 99.1328 33.0703 97.8984 33.0703C96.4062 33.0703 95.2266 33.8281 95.2266 35.2188C95.2266 38.0391 99.7578 36.6953 99.7578 38.8125C99.7578 39.6328 99.1328 40.25 97.9531 40.25C96.7422 40.25 95.9688 39.5312 95.6719 38.6953L94.8359 39.0625C95.2344 40.25 96.4609 41.1172 98 41.1172ZM105.305 41.1172C105.742 41.1172 106.164 41.0391 106.406 40.9609L106.391 40.0156C106.172 40.1016 105.82 40.2031 105.477 40.2031C104.648 40.2031 104.211 39.75 104.211 38.6484V34.0703H106.398V33.1953H104.211V30.1797L103.195 30.9375V33.1953H101.883V34.0703H103.18V38.8125C103.18 40.3047 103.922 41.1172 105.305 41.1172ZM111.094 33.0703C109.711 33.0703 108.805 33.6328 108.047 34.6797L108.836 35.2578C109.375 34.4531 110.062 33.9844 111.102 33.9844C112.664 33.9844 113.266 34.7656 113.266 36.4141V36.5078H111.016C109 36.5078 107.742 37.1484 107.742 38.7344C107.742 40.2344 108.852 41.1172 110.438 41.1172C111.602 41.1172 112.688 40.5469 113.273 39.4141L113.344 41H114.203V36.2344C114.203 34.2734 113.094 33.0703 111.094 33.0703ZM110.633 40.2344C109.461 40.2344 108.797 39.6562 108.797 38.7656C108.797 37.8281 109.531 37.2734 111.07 37.2734H113.266V38.0703C112.906 39.3516 111.992 40.2344 110.633 40.2344ZM116.789 41H117.82V36.3828C117.82 34.8672 118.672 34.0312 119.992 34.0312C121.273 34.0312 121.945 34.875 121.945 36.2969V41H122.977V36.0547C122.945 34.3672 122.086 33.0703 120.266 33.0703C119.234 33.0703 118.312 33.5703 117.82 34.5234V33.1953H116.789V41ZM128.445 41.1172C129.883 41.1172 131.016 40.3281 131.492 38.9688L130.547 38.6094C130.234 39.5781 129.453 40.1797 128.438 40.1797C126.75 40.1797 125.977 38.7188 125.977 37.1094C125.977 35.5234 126.75 34.0156 128.43 34.0156C129.43 34.0156 130.219 34.625 130.586 35.6016L131.57 35.2188C130.992 33.8125 129.852 33.0703 128.43 33.0703C126.086 33.0703 124.93 35.0625 124.93 37.1094C124.93 39.3203 126.203 41.1172 128.445 41.1172ZM136.438 41.1172C137.695 41.1172 138.578 40.7344 139.453 39.8203L138.734 39.1875C138.031 39.9219 137.383 40.1797 136.445 40.1797C134.875 40.1797 133.969 39.1172 133.891 37.375H139.641C139.672 37.2578 139.695 36.9453 139.695 36.6797C139.695 35.1328 138.859 33.0703 136.312 33.0703C134.039 33.0703 132.797 34.9297 132.797 37.1328C132.797 39.375 134.086 41.1172 136.438 41.1172ZM133.891 36.6094C134.023 35.0469 134.883 33.9531 136.305 33.9531C137.852 33.9531 138.555 35.0625 138.648 36.1172C138.672 36.2734 138.672 36.4453 138.664 36.6094H133.891ZM146.453 41H147.516V34.0703H149.805V33.1953H147.516V32.0781C147.516 31.1797 147.969 30.7656 148.766 30.7656C149 30.7656 149.242 30.8516 149.492 30.9844L149.836 30.1328C149.477 29.9531 149.086 29.8438 148.672 29.8438C147.375 29.8438 146.461 30.5781 146.461 31.9844V33.1953H144.828V34.0703H146.453V41ZM151.445 41H152.445V37.0156C152.445 34.8984 153.68 34.0781 154.719 34.0781C155.031 34.0781 155.336 34.1562 155.609 34.3047L156.078 33.4453C155.742 33.1953 155.297 33.0703 154.859 33.0703C153.93 33.0703 152.844 33.625 152.453 34.8281V33.1953H151.445V41ZM160.18 41.1172C162.406 41.1172 163.977 39.3203 163.977 37.0781C163.977 34.8516 162.406 33.0703 160.18 33.0703C157.961 33.0703 156.414 34.8516 156.414 37.0781C156.414 39.3281 157.961 41.1172 160.18 41.1172ZM160.18 40.2188C158.492 40.2188 157.484 38.8125 157.484 37.0781C157.484 35.3516 158.492 33.9766 160.18 33.9766C161.883 33.9766 162.906 35.3594 162.906 37.0781C162.906 38.8047 161.883 40.2188 160.18 40.2188ZM166.109 41H167.141V36.375C167.141 35.0156 167.961 34.0391 169.266 34.0391C170.547 34.0391 171.102 34.8984 171.102 36.2812V41H172.133V36.375C172.133 35.0156 172.953 34.0391 174.25 34.0391C175.578 34.0391 176.094 34.9453 176.094 36.5625V41H177.125V36.4375C177.125 34.4375 176.312 33.0703 174.438 33.0703C173.281 33.0703 172.32 33.6562 171.859 34.7969C171.508 33.6016 170.602 33.0703 169.453 33.0703C168.406 33.0703 167.531 33.5547 167.102 34.5547V33.1953H166.102L166.109 41ZM186.695 41.1172C188.133 41.1172 189.266 40.3281 189.742 38.9688L188.797 38.6094C188.484 39.5781 187.703 40.1797 186.688 40.1797C185 40.1797 184.227 38.7188 184.227 37.1094C184.227 35.5234 185 34.0156 186.68 34.0156C187.68 34.0156 188.469 34.625 188.836 35.6016L189.82 35.2188C189.242 33.8125 188.102 33.0703 186.68 33.0703C184.336 33.0703 183.18 35.0625 183.18 37.1094C183.18 39.3203 184.453 41.1172 186.695 41.1172ZM194.328 33.0703C192.945 33.0703 192.039 33.6328 191.281 34.6797L192.07 35.2578C192.609 34.4531 193.297 33.9844 194.336 33.9844C195.898 33.9844 196.5 34.7656 196.5 36.4141V36.5078H194.25C192.234 36.5078 190.977 37.1484 190.977 38.7344C190.977 40.2344 192.086 41.1172 193.672 41.1172C194.836 41.1172 195.922 40.5469 196.508 39.4141L196.578 41H197.438V36.2344C197.438 34.2734 196.328 33.0703 194.328 33.0703ZM193.867 40.2344C192.695 40.2344 192.031 39.6562 192.031 38.7656C192.031 37.8281 192.766 37.2734 194.305 37.2734H196.5V38.0703C196.141 39.3516 195.227 40.2344 193.867 40.2344ZM200.031 41H201.062V36.375C201.062 35.0156 201.883 34.0391 203.188 34.0391C204.469 34.0391 205.023 34.8984 205.023 36.2812V41H206.055V36.375C206.055 35.0156 206.875 34.0391 208.172 34.0391C209.5 34.0391 210.016 34.9453 210.016 36.5625V41H211.047V36.4375C211.047 34.4375 210.234 33.0703 208.359 33.0703C207.203 33.0703 206.242 33.6562 205.781 34.7969C205.43 33.6016 204.523 33.0703 203.375 33.0703C202.328 33.0703 201.453 33.5547 201.023 34.5547V33.1953H200.023L200.031 41ZM213.664 44.2344H214.727V39.2812C215.219 40.4219 216.273 41.1172 217.516 41.1172C219.625 41.1172 220.836 39.3203 220.836 37.1016C220.836 34.8906 219.625 33.0703 217.531 33.0703C216.297 33.0703 215.219 33.7656 214.727 34.9219V33.1953H213.664V44.2344ZM217.289 40.1797C215.664 40.1797 214.641 38.8516 214.641 37.1016C214.641 35.3516 215.664 34.0312 217.289 34.0312C218.922 34.0312 219.797 35.3672 219.797 37.1016C219.797 38.8281 218.922 40.1797 217.289 40.1797ZM225.469 41.1172C226.5 41.1172 227.43 40.625 227.914 39.6719V41H228.938V33.1953H227.914V37.8047C227.914 39.3281 227.055 40.1562 225.742 40.1562C224.461 40.1562 223.789 39.3203 223.789 37.8984V33.1953H222.766V38.1328C222.797 39.8203 223.641 41.1172 225.469 41.1172ZM234.062 41.1172C235.586 41.1172 236.836 40.3281 236.836 38.7656C236.836 35.7734 232.281 37.0234 232.281 35.0859C232.281 34.3906 232.922 33.9062 233.93 33.9062C234.883 33.9062 235.531 34.4297 235.906 35.1328L236.703 34.7031C236.156 33.6719 235.195 33.0703 233.961 33.0703C232.469 33.0703 231.289 33.8281 231.289 35.2188C231.289 38.0391 235.82 36.6953 235.82 38.8125C235.82 39.6328 235.195 40.25 234.016 40.25C232.805 40.25 232.031 39.5312 231.734 38.6953L230.898 39.0625C231.297 40.25 232.523 41.1172 234.062 41.1172ZM245.461 41.1172C245.898 41.1172 246.32 41.0391 246.562 40.9609L246.547 40.0156C246.328 40.1016 245.977 40.2031 245.633 40.2031C244.805 40.2031 244.367 39.75 244.367 38.6484V34.0703H246.555V33.1953H244.367V30.1797L243.352 30.9375V33.1953H242.039V34.0703H243.336V38.8125C243.336 40.3047 244.078 41.1172 245.461 41.1172ZM251.586 41.1172C253.812 41.1172 255.383 39.3203 255.383 37.0781C255.383 34.8516 253.812 33.0703 251.586 33.0703C249.367 33.0703 247.82 34.8516 247.82 37.0781C247.82 39.3281 249.367 41.1172 251.586 41.1172ZM251.586 40.2188C249.898 40.2188 248.891 38.8125 248.891 37.0781C248.891 35.3516 249.898 33.9766 251.586 33.9766C253.289 33.9766 254.312 35.3594 254.312 37.0781C254.312 38.8047 253.289 40.2188 251.586 40.2188ZM24.4766 66.1172C26.7031 66.1172 28.2734 64.3203 28.2734 62.0781C28.2734 59.8516 26.7031 58.0703 24.4766 58.0703C22.2578 58.0703 20.7109 59.8516 20.7109 62.0781C20.7109 64.3281 22.2578 66.1172 24.4766 66.1172ZM24.4766 65.2188C22.7891 65.2188 21.7812 63.8125 21.7812 62.0781C21.7812 60.3516 22.7891 58.9766 24.4766 58.9766C26.1797 58.9766 27.2031 60.3594 27.2031 62.0781C27.2031 63.8047 26.1797 65.2188 24.4766 65.2188ZM30.6719 66H31.6953V59.0703H34.8047V66H35.875V59.0703H38.3047V58.1953H35.875V57.0781C35.875 56.1797 36.3516 55.7656 37.2188 55.7656C37.4688 55.7656 37.7188 55.8516 37.9844 55.9844L38.3281 55.1328C37.9531 54.9531 37.5547 54.8438 37.125 54.8438C36.4609 54.8438 35.9141 55.0156 35.5078 55.3516C34.9375 55 34.2969 54.8438 33.6172 54.8438C31.9688 54.8438 30.6719 55.8516 30.6719 57.4609V58.1953H29.3125V59.0703H30.6719V66ZM31.6953 58.1953V57.4766C31.6953 56.4062 32.4141 55.6875 33.6641 55.6875C34.1953 55.6875 34.6562 55.8047 35.0547 56.0312C34.8984 56.2812 34.8125 56.6016 34.8125 56.9844V58.1953H31.6953ZM46.9141 66.1172C48.3516 66.1172 49.4844 65.3281 49.9609 63.9688L49.0156 63.6094C48.7031 64.5781 47.9219 65.1797 46.9062 65.1797C45.2188 65.1797 44.4453 63.7188 44.4453 62.1094C44.4453 60.5234 45.2188 59.0156 46.8984 59.0156C47.8984 59.0156 48.6875 59.625 49.0547 60.6016L50.0391 60.2188C49.4609 58.8125 48.3203 58.0703 46.8984 58.0703C44.5547 58.0703 43.3984 60.0625 43.3984 62.1094C43.3984 64.3203 44.6719 66.1172 46.9141 66.1172ZM54.5469 58.0703C53.1641 58.0703 52.2578 58.6328 51.5 59.6797L52.2891 60.2578C52.8281 59.4531 53.5156 58.9844 54.5547 58.9844C56.1172 58.9844 56.7188 59.7656 56.7188 61.4141V61.5078H54.4688C52.4531 61.5078 51.1953 62.1484 51.1953 63.7344C51.1953 65.2344 52.3047 66.1172 53.8906 66.1172C55.0547 66.1172 56.1406 65.5469 56.7266 64.4141L56.7969 66H57.6562V61.2344C57.6562 59.2734 56.5469 58.0703 54.5469 58.0703ZM54.0859 65.2344C52.9141 65.2344 52.25 64.6562 52.25 63.7656C52.25 62.8281 52.9844 62.2734 54.5234 62.2734H56.7188V63.0703C56.3594 64.3516 55.4453 65.2344 54.0859 65.2344ZM60.25 66H61.2812V61.375C61.2812 60.0156 62.1016 59.0391 63.4062 59.0391C64.6875 59.0391 65.2422 59.8984 65.2422 61.2812V66H66.2734V61.375C66.2734 60.0156 67.0938 59.0391 68.3906 59.0391C69.7188 59.0391 70.2344 59.9453 70.2344 61.5625V66H71.2656V61.4375C71.2656 59.4375 70.4531 58.0703 68.5781 58.0703C67.4219 58.0703 66.4609 58.6562 66 59.7969C65.6484 58.6016 64.7422 58.0703 63.5938 58.0703C62.5469 58.0703 61.6719 58.5547 61.2422 59.5547V58.1953H60.2422L60.25 66ZM73.8828 69.2344H74.9453V64.2812C75.4375 65.4219 76.4922 66.1172 77.7344 66.1172C79.8438 66.1172 81.0547 64.3203 81.0547 62.1016C81.0547 59.8906 79.8438 58.0703 77.75 58.0703C76.5156 58.0703 75.4375 58.7656 74.9453 59.9219V58.1953H73.8828V69.2344ZM77.5078 65.1797C75.8828 65.1797 74.8594 63.8516 74.8594 62.1016C74.8594 60.3516 75.8828 59.0312 77.5078 59.0312C79.1406 59.0312 80.0156 60.3672 80.0156 62.1016C80.0156 63.8281 79.1406 65.1797 77.5078 65.1797ZM85.6875 66.1172C86.7188 66.1172 87.6484 65.625 88.1328 64.6719V66H89.1562V58.1953H88.1328V62.8047C88.1328 64.3281 87.2734 65.1562 85.9609 65.1562C84.6797 65.1562 84.0078 64.3203 84.0078 62.8984V58.1953H82.9844V63.1328C83.0156 64.8203 83.8594 66.1172 85.6875 66.1172ZM94.2812 66.1172C95.8047 66.1172 97.0547 65.3281 97.0547 63.7656C97.0547 60.7734 92.5 62.0234 92.5 60.0859C92.5 59.3906 93.1406 58.9062 94.1484 58.9062C95.1016 58.9062 95.75 59.4297 96.125 60.1328L96.9219 59.7031C96.375 58.6719 95.4141 58.0703 94.1797 58.0703C92.6875 58.0703 91.5078 58.8281 91.5078 60.2188C91.5078 63.0391 96.0391 61.6953 96.0391 63.8125C96.0391 64.6328 95.4141 65.25 94.2344 65.25C93.0234 65.25 92.25 64.5312 91.9531 63.6953L91.1172 64.0625C91.5156 65.25 92.7422 66.1172 94.2812 66.1172ZM103.32 66H104.367V61.5469C104.367 60.0547 105.172 59.0156 106.562 59.0156C107.93 59.0156 108.477 59.9062 108.477 61.2969V66H109.523V61.0547C109.492 59.3672 108.617 58.0703 106.797 58.0703C105.766 58.0703 104.859 58.5703 104.367 59.5234V54.9609H103.32V66ZM115.195 66.1172C117.422 66.1172 118.992 64.3203 118.992 62.0781C118.992 59.8516 117.422 58.0703 115.195 58.0703C112.977 58.0703 111.43 59.8516 111.43 62.0781C111.43 64.3281 112.977 66.1172 115.195 66.1172ZM115.195 65.2188C113.508 65.2188 112.5 63.8125 112.5 62.0781C112.5 60.3516 113.508 58.9766 115.195 58.9766C116.898 58.9766 117.922 60.3594 117.922 62.0781C117.922 63.8047 116.898 65.2188 115.195 65.2188ZM123.562 66.1172C124.594 66.1172 125.523 65.625 126.008 64.6719V66H127.031V58.1953H126.008V62.8047C126.008 64.3281 125.148 65.1562 123.836 65.1562C122.555 65.1562 121.883 64.3203 121.883 62.8984V58.1953H120.859V63.1328C120.891 64.8203 121.734 66.1172 123.562 66.1172ZM132.156 66.1172C133.68 66.1172 134.93 65.3281 134.93 63.7656C134.93 60.7734 130.375 62.0234 130.375 60.0859C130.375 59.3906 131.016 58.9062 132.023 58.9062C132.977 58.9062 133.625 59.4297 134 60.1328L134.797 59.7031C134.25 58.6719 133.289 58.0703 132.055 58.0703C130.562 58.0703 129.383 58.8281 129.383 60.2188C129.383 63.0391 133.914 61.6953 133.914 63.8125C133.914 64.6328 133.289 65.25 132.109 65.25C130.898 65.25 130.125 64.5312 129.828 63.6953L128.992 64.0625C129.391 65.25 130.617 66.1172 132.156 66.1172ZM137.062 56.5625H138.141V54.9609H137.062V56.5625ZM137.086 66H138.109V58.1953H137.086V66ZM140.914 66H141.945V61.3828C141.945 59.8672 142.797 59.0312 144.117 59.0312C145.398 59.0312 146.07 59.875 146.07 61.2969V66H147.102V61.0547C147.07 59.3672 146.211 58.0703 144.391 58.0703C143.359 58.0703 142.438 58.5703 141.945 59.5234V58.1953H140.914V66ZM152.594 65.0625C151.203 64.8594 150.125 64.7344 150.125 63.875C150.125 63.5078 150.32 63.2422 150.742 63.0547C151.203 63.3125 151.766 63.4609 152.383 63.4609C154.031 63.4609 155.312 62.4141 155.312 60.8125C155.312 60.25 155.156 59.75 154.891 59.3359L155.938 58.4531L155.391 57.7812L154.328 58.7188C153.812 58.3047 153.125 58.0703 152.359 58.0703C150.695 58.0703 149.398 59.1797 149.398 60.7578C149.398 61.4609 149.648 62.0703 150.078 62.5312C149.523 62.9141 149.234 63.3828 149.234 64.0391C149.234 64.8281 149.664 65.2656 150.258 65.5312L149.078 66.6094C149.062 66.7109 149.055 66.8125 149.055 66.9531C149.055 68.4922 150.352 69.5859 152.57 69.5859C154.469 69.5859 155.828 68.7422 155.828 67.2188C155.828 65.5469 154.172 65.3047 152.594 65.0625ZM152.391 58.8906C153.555 58.8906 154.289 59.6641 154.289 60.7734C154.289 61.8594 153.562 62.6094 152.383 62.6094C151.203 62.6094 150.469 61.8516 150.469 60.7656C150.469 59.6719 151.234 58.8906 152.391 58.8906ZM152.562 68.7656C151.148 68.7656 150.117 68.1719 150.008 67.0781C150 67 149.992 66.9219 149.992 66.8281L150.898 65.7422C151.336 65.8438 151.805 65.9062 152.242 65.9688C153.727 66.1797 154.844 66.3281 154.844 67.3203C154.844 68.2344 153.945 68.7656 152.562 68.7656Z" fill="#1A1F23"/>
<path d="M195.677 125.303C190.789 118.01 184.3 111.749 176.63 106.928C168.961 102.107 160.282 98.8339 151.158 97.3202C142.034 95.8066 132.668 96.0866 123.668 98.1421C114.669 100.198 106.236 103.983 98.9183 109.251L139.5 157.587L195.677 125.303Z" fill="#B2E7B2"/>
<path d="M205.615 157.599C205.617 146.009 202.068 134.657 195.379 124.862L139.5 157.586L205.615 157.599Z" fill="#D293CE"/>
<path d="M99.2301 109.029C85.3234 118.919 76.229 133.52 73.9475 149.62L139.5 157.587L99.2301 109.029Z" fill="#FFDCA9"/>
<path d="M151.384 217.815C166.629 215.235 180.412 207.778 190.324 196.745C200.236 185.712 205.648 171.806 205.614 157.454L139.5 157.586L151.384 217.815Z" fill="#95A9E8"/>
<path d="M73.999 149.265C72.5772 158.862 73.635 168.635 77.0853 177.78C80.5356 186.926 86.28 195.182 93.8464 201.872C101.413 208.561 110.585 213.492 120.61 216.26C130.635 219.028 141.226 219.553 151.512 217.793L139.5 157.586L73.999 149.265Z" fill="#EDB0A9"/>
<path d="M131.974 124.667C133.642 123.696 135.973 121.434 135.973 119.164C135.973 117.277 134.694 116.225 132.931 116.225C130.859 116.225 129.663 117.852 129.663 119.67L131.099 119.766C131.133 118.624 131.611 117.544 132.944 117.544C134.004 117.544 134.503 118.228 134.503 119.13C134.503 121.55 131.516 123.642 129.615 124.804V126H136.465V124.667H131.974ZM142.104 119.69C141.646 119.547 141.161 119.513 140.683 119.581L142.699 116.341H141.024L138.133 121.058C137.818 121.57 137.606 122.165 137.606 122.828C137.606 124.64 139.151 126.13 141.052 126.13C142.945 126.13 144.483 124.64 144.483 122.814C144.483 121.324 143.451 120.087 142.104 119.69ZM141.052 124.763C139.938 124.763 139.042 123.881 139.042 122.814C139.042 121.741 139.938 120.859 141.052 120.859C142.159 120.859 143.048 121.741 143.048 122.808C143.048 123.881 142.159 124.763 141.052 124.763ZM146.5 126H147.922V124.291H146.5V126ZM153.213 116.341V117.011C153.213 117.612 152.871 117.865 152.249 117.865H150.848V118.986H153.158V126H154.601V116.341H153.213Z" fill="#1E1D2D"/>
<path d="M179.04 152.93C180.811 152.93 182.499 151.987 182.499 150.039C182.499 148.938 181.945 148.056 180.961 147.571C181.597 147.133 182 146.422 182 145.582C182 143.975 180.605 143.011 179.047 143.011C177.536 143.011 176.094 143.934 176.094 145.575C176.094 146.395 176.463 147.106 177.126 147.571C176.189 148.036 175.581 148.911 175.581 150.052C175.581 151.973 177.263 152.93 179.04 152.93ZM179.074 147.147C178.145 147.147 177.543 146.552 177.543 145.65C177.543 144.707 178.261 144.235 179.067 144.235C179.949 144.235 180.599 144.782 180.599 145.698C180.599 146.6 179.956 147.147 179.074 147.147ZM179.033 151.666C177.96 151.666 177.017 151.098 177.017 149.888C177.017 148.774 177.857 148.111 179.033 148.111C180.188 148.111 181.043 148.774 181.043 149.902C181.043 151.098 180.12 151.666 179.033 151.666ZM184.516 152.8H185.938V151.091H184.516V152.8ZM187.92 143.141V144.481H193.095L188.809 152.8H190.436L194.865 143.92V143.141H187.92Z" fill="#1E1D2D"/>
<path d="M158.974 187.667C160.642 186.696 162.973 184.434 162.973 182.164C162.973 180.277 161.694 179.225 159.931 179.225C157.859 179.225 156.663 180.852 156.663 182.67L158.099 182.766C158.133 181.624 158.611 180.544 159.944 180.544C161.004 180.544 161.503 181.228 161.503 182.13C161.503 184.55 158.516 186.642 156.615 187.804V189H163.465V187.667H158.974ZM168.018 179.341V180.011C168.018 180.612 167.676 180.865 167.054 180.865H165.652V181.986H167.963V189H169.405V179.341H168.018ZM173.5 189H174.922V187.291H173.5V189ZM176.904 179.341V180.681H182.079L177.793 189H179.42L183.85 180.12V179.341H176.904Z" fill="#1E1D2D"/>
<path d="M104.931 189.13C106.817 189.13 108.444 188.098 108.444 186.19C108.444 185.015 107.754 184.153 106.448 183.839C107.439 183.449 107.925 182.711 107.925 181.802C107.925 180.188 106.503 179.211 104.903 179.211C103.249 179.211 101.875 180.25 101.875 182.014L103.263 182.103C103.276 181.159 103.939 180.578 104.924 180.578C105.826 180.578 106.517 181.07 106.517 181.979C106.517 182.902 106.038 183.367 104.486 183.367V184.502C105.642 184.502 107.043 184.604 107.043 186.074C107.043 187.195 106.086 187.776 104.958 187.776C103.714 187.776 102.818 187.093 102.818 185.924L101.417 186.006C101.417 188.07 103.01 189.13 104.931 189.13ZM113.106 189.13C115.636 189.13 116.381 186.594 116.381 184.188C116.381 181.768 115.608 179.197 113.011 179.197C110.153 179.197 109.729 182.096 109.729 184.167C109.729 186.231 110.181 189.13 113.106 189.13ZM113.072 187.742C111.35 187.742 111.172 185.808 111.172 184.167C111.172 182.52 111.35 180.612 113.011 180.612C114.638 180.612 114.863 182.458 114.863 184.16C114.863 185.828 114.651 187.742 113.072 187.742ZM118.432 189H119.854V187.291H118.432V189ZM127.448 185.377V179.341H126.197L121.412 185.849V186.724H126.006V189H127.448V186.724H129V185.377H127.448ZM123.292 185.377L126.006 181.562V185.377H123.292Z" fill="#1E1D2D"/>
<path d="M96.9922 135.341V136.011C96.9922 136.612 96.6504 136.865 96.0283 136.865H94.627V137.986H96.9375V145H98.3799V135.341H96.9922ZM104.956 145.13C106.843 145.13 108.47 144.098 108.47 142.19C108.47 141.015 107.779 140.153 106.474 139.839C107.465 139.449 107.95 138.711 107.95 137.802C107.95 136.188 106.528 135.211 104.929 135.211C103.274 135.211 101.9 136.25 101.9 138.014L103.288 138.103C103.302 137.159 103.965 136.578 104.949 136.578C105.852 136.578 106.542 137.07 106.542 137.979C106.542 138.902 106.063 139.367 104.512 139.367V140.502C105.667 140.502 107.068 140.604 107.068 142.074C107.068 143.195 106.111 143.776 104.983 143.776C103.739 143.776 102.844 143.093 102.844 141.924L101.442 142.006C101.442 144.07 103.035 145.13 104.956 145.13Z" fill="#1E1D2D"/>
<path d="M56.5625 270.625L56.9531 269.938L50.4375 266.219L56.9531 262.492L56.5625 261.805L48.8203 266.219L56.5625 270.625ZM62.7266 263.633C61.8672 263.633 61.0547 263.938 60.2969 264.594L60.9375 260.953H65.7578V259.961H60.0859L59.0781 265.641L60.1406 265.938C60.7266 265.078 61.6406 264.602 62.5859 264.602C64.1484 264.602 65.2031 265.781 65.2031 267.305C65.2031 268.844 64.0391 270.141 62.4688 270.141C60.9766 270.141 60.0312 269.055 59.7344 267.68L58.7344 267.953C59.1406 269.789 60.6172 271.117 62.4688 271.117C64.5938 271.117 66.2891 269.398 66.2891 267.312C66.2891 265.25 64.7266 263.633 62.7266 263.633ZM72.5 271H73.5312V266.375C73.5312 265.016 74.3516 264.039 75.6562 264.039C76.9375 264.039 77.4922 264.898 77.4922 266.281V271H78.5234V266.375C78.5234 265.016 79.3438 264.039 80.6406 264.039C81.9688 264.039 82.4844 264.945 82.4844 266.562V271H83.5156V266.438C83.5156 264.438 82.7031 263.07 80.8281 263.07C79.6719 263.07 78.7109 263.656 78.25 264.797C77.8984 263.602 76.9922 263.07 75.8438 263.07C74.7969 263.07 73.9219 263.555 73.4922 264.555V263.195H72.4922L72.5 271ZM86.0938 261.562H87.1719V259.961H86.0938V261.562ZM86.1172 271H87.1406V263.195H86.1172V271ZM89.9453 271H90.9766V266.383C90.9766 264.867 91.8281 264.031 93.1484 264.031C94.4297 264.031 95.1016 264.875 95.1016 266.297V271H96.1328V266.055C96.1016 264.367 95.2422 263.07 93.4219 263.07C92.3906 263.07 91.4688 263.57 90.9766 264.523V263.195H89.9453V271Z" fill="#1A1F23"/>
<path d="M52.6953 295.633C51.8359 295.633 51.0234 295.938 50.2656 296.594L50.9062 292.953H55.7266V291.961H50.0547L49.0469 297.641L50.1094 297.938C50.6953 297.078 51.6094 296.602 52.5547 296.602C54.1172 296.602 55.1719 297.781 55.1719 299.305C55.1719 300.844 54.0078 302.141 52.4375 302.141C50.9453 302.141 50 301.055 49.7031 299.68L48.7031 299.953C49.1094 301.789 50.5859 303.117 52.4375 303.117C54.5625 303.117 56.2578 301.398 56.2578 299.312C56.2578 297.25 54.6953 295.633 52.6953 295.633ZM58.2969 298.539H62.5156V297.734H58.2969V298.539ZM72.4062 302.625L72.7969 301.938L66.2812 298.219L72.7969 294.492L72.4062 293.805L64.6641 298.219L72.4062 302.625ZM78.6406 291.961V292.914C78.6406 293.508 78.3125 293.742 77.7031 293.742H75.8281V294.578H78.6016V303H79.6562V291.961H78.6406ZM87.4531 303.117C90.1953 303.117 91.2344 300.281 91.2344 297.508C91.2344 294.703 90.1719 291.82 87.3359 291.82C84.2266 291.82 83.5391 295.062 83.5391 297.477C83.5391 299.875 84.25 303.117 87.4531 303.117ZM87.4297 302.102C85.1016 302.102 84.5938 299.57 84.5938 297.477C84.5938 295.367 85.0938 292.859 87.3359 292.859C89.4688 292.859 90.1328 295.195 90.1328 297.484C90.1328 299.742 89.4844 302.102 87.4297 302.102ZM97.3594 303H98.3906V298.375C98.3906 297.016 99.2109 296.039 100.516 296.039C101.797 296.039 102.352 296.898 102.352 298.281V303H103.383V298.375C103.383 297.016 104.203 296.039 105.5 296.039C106.828 296.039 107.344 296.945 107.344 298.562V303H108.375V298.438C108.375 296.438 107.562 295.07 105.688 295.07C104.531 295.07 103.57 295.656 103.109 296.797C102.758 295.602 101.852 295.07 100.703 295.07C99.6562 295.07 98.7812 295.555 98.3516 296.555V295.195H97.3516L97.3594 303ZM110.953 293.562H112.031V291.961H110.953V293.562ZM110.977 303H112V295.195H110.977V303ZM114.805 303H115.836V298.383C115.836 296.867 116.688 296.031 118.008 296.031C119.289 296.031 119.961 296.875 119.961 298.297V303H120.992V298.055C120.961 296.367 120.102 295.07 118.281 295.07C117.25 295.07 116.328 295.57 115.836 296.523V295.195H114.805V303Z" fill="#1A1F23"/>
<path d="M175.766 242.961V243.914C175.766 244.508 175.438 244.742 174.828 244.742H172.953V245.578H175.727V254H176.781V242.961H175.766ZM184.578 254.117C187.32 254.117 188.359 251.281 188.359 248.508C188.359 245.703 187.297 242.82 184.461 242.82C181.352 242.82 180.664 246.062 180.664 248.477C180.664 250.875 181.375 254.117 184.578 254.117ZM184.555 253.102C182.227 253.102 181.719 250.57 181.719 248.477C181.719 246.367 182.219 243.859 184.461 243.859C186.594 243.859 187.258 246.195 187.258 248.484C187.258 250.742 186.609 253.102 184.555 253.102ZM190.312 249.539H194.531V248.734H190.312V249.539ZM204.422 253.625L204.812 252.938L198.297 249.219L204.812 245.492L204.422 244.805L196.68 249.219L204.422 253.625ZM210.656 242.961V243.914C210.656 244.508 210.328 244.742 209.719 244.742H207.844V245.578H210.617V254H211.672V242.961H210.656ZM219.555 246.633C218.695 246.633 217.883 246.938 217.125 247.594L217.766 243.953H222.586V242.961H216.914L215.906 248.641L216.969 248.938C217.555 248.078 218.469 247.602 219.414 247.602C220.977 247.602 222.031 248.781 222.031 250.305C222.031 251.844 220.867 253.141 219.297 253.141C217.805 253.141 216.859 252.055 216.562 250.68L215.562 250.953C215.969 252.789 217.445 254.117 219.297 254.117C221.422 254.117 223.117 252.398 223.117 250.312C223.117 248.25 221.555 246.633 219.555 246.633ZM229.328 254H230.359V249.375C230.359 248.016 231.18 247.039 232.484 247.039C233.766 247.039 234.32 247.898 234.32 249.281V254H235.352V249.375C235.352 248.016 236.172 247.039 237.469 247.039C238.797 247.039 239.312 247.945 239.312 249.562V254H240.344V249.438C240.344 247.438 239.531 246.07 237.656 246.07C236.5 246.07 235.539 246.656 235.078 247.797C234.727 246.602 233.82 246.07 232.672 246.07C231.625 246.07 230.75 246.555 230.32 247.555V246.195H229.32L229.328 254ZM242.922 244.562H244V242.961H242.922V244.562ZM242.945 254H243.969V246.195H242.945V254ZM246.773 254H247.805V249.383C247.805 247.867 248.656 247.031 249.977 247.031C251.258 247.031 251.93 247.875 251.93 249.297V254H252.961V249.055C252.93 247.367 252.07 246.07 250.25 246.07C249.219 246.07 248.297 246.57 247.805 247.523V246.195H246.773V254Z" fill="#1A1F23"/>
<path d="M175.766 273.961V274.914C175.766 275.508 175.438 275.742 174.828 275.742H172.953V276.578H175.727V285H176.781V273.961H175.766ZM184.664 277.633C183.805 277.633 182.992 277.938 182.234 278.594L182.875 274.953H187.695V273.961H182.023L181.016 279.641L182.078 279.938C182.664 279.078 183.578 278.602 184.523 278.602C186.086 278.602 187.141 279.781 187.141 281.305C187.141 282.844 185.977 284.141 184.406 284.141C182.914 284.141 181.969 283.055 181.672 281.68L180.672 281.953C181.078 283.789 182.555 285.117 184.406 285.117C186.531 285.117 188.227 283.398 188.227 281.312C188.227 279.25 186.664 277.633 184.664 277.633ZM190.266 280.539H194.484V279.734H190.266V280.539ZM204.375 284.625L204.766 283.938L198.25 280.219L204.766 276.492L204.375 275.805L196.633 280.219L204.375 284.625ZM208.07 284.023C210.508 282.562 213.594 280.031 213.594 277.086C213.594 275.039 212.25 273.852 210.273 273.852C208.039 273.852 206.75 275.469 206.75 277.609L207.797 277.672C207.82 276.039 208.586 274.812 210.281 274.812C211.742 274.812 212.523 275.719 212.523 277.062C212.523 280.039 209.102 282.383 206.477 284.023V285H214.18V284.023H208.07ZM219.375 285.117C222.117 285.117 223.156 282.281 223.156 279.508C223.156 276.703 222.094 273.82 219.258 273.82C216.148 273.82 215.461 277.062 215.461 279.477C215.461 281.875 216.172 285.117 219.375 285.117ZM219.352 284.102C217.023 284.102 216.516 281.57 216.516 279.477C216.516 277.367 217.016 274.859 219.258 274.859C221.391 274.859 222.055 277.195 222.055 279.484C222.055 281.742 221.406 284.102 219.352 284.102ZM229.281 285H230.312V280.375C230.312 279.016 231.133 278.039 232.438 278.039C233.719 278.039 234.273 278.898 234.273 280.281V285H235.305V280.375C235.305 279.016 236.125 278.039 237.422 278.039C238.75 278.039 239.266 278.945 239.266 280.562V285H240.297V280.438C240.297 278.438 239.484 277.07 237.609 277.07C236.453 277.07 235.492 277.656 235.031 278.797C234.68 277.602 233.773 277.07 232.625 277.07C231.578 277.07 230.703 277.555 230.273 278.555V277.195H229.273L229.281 285ZM242.875 275.562H243.953V273.961H242.875V275.562ZM242.898 285H243.922V277.195H242.898V285ZM246.727 285H247.758V280.383C247.758 278.867 248.609 278.031 249.93 278.031C251.211 278.031 251.883 278.875 251.883 280.297V285H252.914V280.055C252.883 278.367 252.023 277.07 250.203 277.07C249.172 277.07 248.25 277.57 247.758 278.523V277.195H246.727V285Z" fill="#1A1F23"/>
<path d="M173.227 315.023C175.664 313.562 178.75 311.031 178.75 308.086C178.75 306.039 177.406 304.852 175.43 304.852C173.195 304.852 171.906 306.469 171.906 308.609L172.953 308.672C172.977 307.039 173.742 305.812 175.438 305.812C176.898 305.812 177.68 306.719 177.68 308.062C177.68 311.039 174.258 313.383 171.633 315.023V316H179.336V315.023H173.227ZM184.531 316.117C187.273 316.117 188.312 313.281 188.312 310.508C188.312 307.703 187.25 304.82 184.414 304.82C181.305 304.82 180.617 308.062 180.617 310.477C180.617 312.875 181.328 316.117 184.531 316.117ZM184.508 315.102C182.18 315.102 181.672 312.57 181.672 310.477C181.672 308.367 182.172 305.859 184.414 305.859C186.547 305.859 187.211 308.195 187.211 310.484C187.211 312.742 186.562 315.102 184.508 315.102ZM193.523 315.109H194.32V311.516H197.914V310.711H194.32V307.109H193.523V310.711H189.922V311.516H193.523V315.109ZM204.406 316H205.438V311.375C205.438 310.016 206.258 309.039 207.562 309.039C208.844 309.039 209.398 309.898 209.398 311.281V316H210.43V311.375C210.43 310.016 211.25 309.039 212.547 309.039C213.875 309.039 214.391 309.945 214.391 311.562V316H215.422V311.438C215.422 309.438 214.609 308.07 212.734 308.07C211.578 308.07 210.617 308.656 210.156 309.797C209.805 308.602 208.898 308.07 207.75 308.07C206.703 308.07 205.828 308.555 205.398 309.555V308.195H204.398L204.406 316ZM218 306.562H219.078V304.961H218V306.562ZM218.023 316H219.047V308.195H218.023V316ZM221.852 316H222.883V311.383C222.883 309.867 223.734 309.031 225.055 309.031C226.336 309.031 227.008 309.875 227.008 311.297V316H228.039V311.055C228.008 309.367 227.148 308.07 225.328 308.07C224.297 308.07 223.375 308.57 222.883 309.523V308.195H221.852V316ZM233.031 316.117C234.062 316.117 234.992 315.625 235.477 314.672V316H236.5V308.195H235.477V312.805C235.477 314.328 234.617 315.156 233.305 315.156C232.023 315.156 231.352 314.32 231.352 312.898V308.195H230.328V313.133C230.359 314.82 231.203 316.117 233.031 316.117ZM241.68 316.117C242.117 316.117 242.539 316.039 242.781 315.961L242.766 315.016C242.547 315.102 242.195 315.203 241.852 315.203C241.023 315.203 240.586 314.75 240.586 313.648V309.07H242.773V308.195H240.586V305.18L239.57 305.938V308.195H238.258V309.07H239.555V313.812C239.555 315.305 240.297 316.117 241.68 316.117ZM247.734 316.117C248.992 316.117 249.875 315.734 250.75 314.82L250.031 314.188C249.328 314.922 248.68 315.18 247.742 315.18C246.172 315.18 245.266 314.117 245.188 312.375H250.938C250.969 312.258 250.992 311.945 250.992 311.68C250.992 310.133 250.156 308.07 247.609 308.07C245.336 308.07 244.094 309.93 244.094 312.133C244.094 314.375 245.383 316.117 247.734 316.117ZM245.188 311.609C245.32 310.047 246.18 308.953 247.602 308.953C249.148 308.953 249.852 310.062 249.945 311.117C249.969 311.273 249.969 311.445 249.961 311.609H245.188ZM255.438 316.117C256.961 316.117 258.211 315.328 258.211 313.766C258.211 310.773 253.656 312.023 253.656 310.086C253.656 309.391 254.297 308.906 255.305 308.906C256.258 308.906 256.906 309.43 257.281 310.133L258.078 309.703C257.531 308.672 256.57 308.07 255.336 308.07C253.844 308.07 252.664 308.828 252.664 310.219C252.664 313.039 257.195 311.695 257.195 313.812C257.195 314.633 256.57 315.25 255.391 315.25C254.18 315.25 253.406 314.531 253.109 313.695L252.273 314.062C252.672 315.25 253.898 316.117 255.438 316.117Z" fill="#1A1F23"/>
<circle cx="30" cy="267" r="10" fill="#95A9E8"/>
<circle cx="30" cy="299" r="10" fill="#EDB0A9"/>
<circle cx="153" cy="250" r="10" fill="#FFDCA9"/>
<circle cx="153" cy="280" r="10" fill="#B2E7B2"/>
<circle cx="153" cy="311" r="10" fill="#D293CE"/>
</svg>
