<svg width="279" height="359" viewBox="0 0 279 359" fill="none" xmlns="http://www.w3.org/2000/svg">
<rect opacity="0.15" width="279" height="359" rx="12" fill="#D44747"/>
<path d="M21.75 41H22.8203V29.9609H21.75V41ZM30.6094 41H31.6719V34.0703H33.9609V33.1953H31.6719V32.0781C31.6719 31.1797 32.125 30.7656 32.9219 30.7656C33.1562 30.7656 33.3984 30.8516 33.6484 30.9844L33.9922 30.1328C33.6328 29.9531 33.2422 29.8438 32.8281 29.8438C31.5312 29.8438 30.6172 30.5781 30.6172 31.9844V33.1953H28.9844V34.0703H30.6094V41ZM38.3438 41.1172C39.6016 41.1172 40.4844 40.7344 41.3594 39.8203L40.6406 39.1875C39.9375 39.9219 39.2891 40.1797 38.3516 40.1797C36.7812 40.1797 35.875 39.1172 35.7969 37.375H41.5469C41.5781 37.2578 41.6016 36.9453 41.6016 36.6797C41.6016 35.1328 40.7656 33.0703 38.2188 33.0703C35.9453 33.0703 34.7031 34.9297 34.7031 37.1328C34.7031 39.375 35.9922 41.1172 38.3438 41.1172ZM35.7969 36.6094C35.9297 35.0469 36.7891 33.9531 38.2109 33.9531C39.7578 33.9531 40.4609 35.0625 40.5547 36.1172C40.5781 36.2734 40.5781 36.4453 40.5703 36.6094H35.7969ZM46.7344 41.1172C47.9922 41.1172 48.875 40.7344 49.75 39.8203L49.0312 39.1875C48.3281 39.9219 47.6797 40.1797 46.7422 40.1797C45.1719 40.1797 44.2656 39.1172 44.1875 37.375H49.9375C49.9688 37.2578 49.9922 36.9453 49.9922 36.6797C49.9922 35.1328 49.1562 33.0703 46.6094 33.0703C44.3359 33.0703 43.0938 34.9297 43.0938 37.1328C43.0938 39.375 44.3828 41.1172 46.7344 41.1172ZM44.1875 36.6094C44.3203 35.0469 45.1797 33.9531 46.6016 33.9531C48.1484 33.9531 48.8516 35.0625 48.9453 36.1172C48.9688 36.2734 48.9688 36.4453 48.9609 36.6094H44.1875ZM53.5156 41.1172C53.8516 41.1172 54.2734 41.0625 54.6172 40.9922L54.6016 40.1094C54.3672 40.1562 54.1328 40.1875 53.9688 40.1875C53.1875 40.1875 53.1094 39.6875 53.1094 39.0859V29.9609H52.0781V39.3516C52.0781 40.4531 52.4062 41.1172 53.5156 41.1172ZM60.5234 41H61.5703V36.5469C61.5703 35.0547 62.375 34.0156 63.7656 34.0156C65.1328 34.0156 65.6797 34.9062 65.6797 36.2969V41H66.7266V36.0547C66.6953 34.3672 65.8203 33.0703 64 33.0703C62.9688 33.0703 62.0625 33.5703 61.5703 34.5234V29.9609H60.5234V41ZM72.3281 41.1172C73.5859 41.1172 74.4688 40.7344 75.3438 39.8203L74.625 39.1875C73.9219 39.9219 73.2734 40.1797 72.3359 40.1797C70.7656 40.1797 69.8594 39.1172 69.7812 37.375H75.5312C75.5625 37.2578 75.5859 36.9453 75.5859 36.6797C75.5859 35.1328 74.75 33.0703 72.2031 33.0703C69.9297 33.0703 68.6875 34.9297 68.6875 37.1328C68.6875 39.375 69.9766 41.1172 72.3281 41.1172ZM69.7812 36.6094C69.9141 35.0469 70.7734 33.9531 72.1953 33.9531C73.7422 33.9531 74.4453 35.0625 74.5391 36.1172C74.5625 36.2734 74.5625 36.4453 74.5547 36.6094H69.7812ZM77.6875 31.5625H78.7656V29.9609H77.6875V31.5625ZM77.7109 41H78.7344V33.1953H77.7109V41ZM84.4375 40.0625C83.0469 39.8594 81.9688 39.7344 81.9688 38.875C81.9688 38.5078 82.1641 38.2422 82.5859 38.0547C83.0469 38.3125 83.6094 38.4609 84.2266 38.4609C85.875 38.4609 87.1562 37.4141 87.1562 35.8125C87.1562 35.25 87 34.75 86.7344 34.3359L87.7812 33.4531L87.2344 32.7812L86.1719 33.7188C85.6562 33.3047 84.9688 33.0703 84.2031 33.0703C82.5391 33.0703 81.2422 34.1797 81.2422 35.7578C81.2422 36.4609 81.4922 37.0703 81.9219 37.5312C81.3672 37.9141 81.0781 38.3828 81.0781 39.0391C81.0781 39.8281 81.5078 40.2656 82.1016 40.5312L80.9219 41.6094C80.9062 41.7109 80.8984 41.8125 80.8984 41.9531C80.8984 43.4922 82.1953 44.5859 84.4141 44.5859C86.3125 44.5859 87.6719 43.7422 87.6719 42.2188C87.6719 40.5469 86.0156 40.3047 84.4375 40.0625ZM84.2344 33.8906C85.3984 33.8906 86.1328 34.6641 86.1328 35.7734C86.1328 36.8594 85.4062 37.6094 84.2266 37.6094C83.0469 37.6094 82.3125 36.8516 82.3125 35.7656C82.3125 34.6719 83.0781 33.8906 84.2344 33.8906ZM84.4062 43.7656C82.9922 43.7656 81.9609 43.1719 81.8516 42.0781C81.8438 42 81.8359 41.9219 81.8359 41.8281L82.7422 40.7422C83.1797 40.8438 83.6484 40.9062 84.0859 40.9688C85.5703 41.1797 86.6875 41.3281 86.6875 42.3203C86.6875 43.2344 85.7891 43.7656 84.4062 43.7656ZM89.6797 41H90.7266V36.5469C90.7266 35.0547 91.5312 34.0156 92.9219 34.0156C94.2891 34.0156 94.8359 34.9062 94.8359 36.2969V41H95.8828V36.0547C95.8516 34.3672 94.9766 33.0703 93.1562 33.0703C92.125 33.0703 91.2188 33.5703 90.7266 34.5234V29.9609H89.6797V41ZM100.852 41.1172C101.289 41.1172 101.711 41.0391 101.953 40.9609L101.938 40.0156C101.719 40.1016 101.367 40.2031 101.023 40.2031C100.195 40.2031 99.7578 39.75 99.7578 38.6484V34.0703H101.945V33.1953H99.7578V30.1797L98.7422 30.9375V33.1953H97.4297V34.0703H98.7266V38.8125C98.7266 40.3047 99.4688 41.1172 100.852 41.1172ZM106.906 41.1172C108.164 41.1172 109.047 40.7344 109.922 39.8203L109.203 39.1875C108.5 39.9219 107.852 40.1797 106.914 40.1797C105.344 40.1797 104.438 39.1172 104.359 37.375H110.109C110.141 37.2578 110.164 36.9453 110.164 36.6797C110.164 35.1328 109.328 33.0703 106.781 33.0703C104.508 33.0703 103.266 34.9297 103.266 37.1328C103.266 39.375 104.555 41.1172 106.906 41.1172ZM104.359 36.6094C104.492 35.0469 105.352 33.9531 106.773 33.9531C108.32 33.9531 109.023 35.0625 109.117 36.1172C109.141 36.2734 109.141 36.4453 109.133 36.6094H104.359ZM112.289 41H113.32V36.3828C113.32 34.8672 114.172 34.0312 115.492 34.0312C116.773 34.0312 117.445 34.875 117.445 36.2969V41H118.477V36.0547C118.445 34.3672 117.586 33.0703 115.766 33.0703C114.734 33.0703 113.812 33.5703 113.32 34.5234V33.1953H112.289V41ZM124.078 41.1172C125.336 41.1172 126.219 40.7344 127.094 39.8203L126.375 39.1875C125.672 39.9219 125.023 40.1797 124.086 40.1797C122.516 40.1797 121.609 39.1172 121.531 37.375H127.281C127.312 37.2578 127.336 36.9453 127.336 36.6797C127.336 35.1328 126.5 33.0703 123.953 33.0703C121.68 33.0703 120.438 34.9297 120.438 37.1328C120.438 39.375 121.727 41.1172 124.078 41.1172ZM121.531 36.6094C121.664 35.0469 122.523 33.9531 123.945 33.9531C125.492 33.9531 126.195 35.0625 126.289 36.1172C126.312 36.2734 126.312 36.4453 126.305 36.6094H121.531ZM132.305 41.1172C133.555 41.1172 134.641 40.4062 135.125 39.2266L135.164 41H136.133V29.9609H135.086V34.9141C134.602 33.7656 133.516 33.0703 132.289 33.0703C130.188 33.0703 128.82 34.8828 128.82 37.0859C128.82 39.3125 130.188 41.1172 132.305 41.1172ZM132.531 40.1797C130.906 40.1797 129.867 38.8281 129.867 37.0859C129.867 35.3594 130.906 34.0156 132.531 34.0156C134.156 34.0156 135.164 35.3438 135.164 37.0859C135.164 38.8516 134.156 40.1797 132.531 40.1797ZM145.359 41.1172C146.883 41.1172 148.133 40.3281 148.133 38.7656C148.133 35.7734 143.578 37.0234 143.578 35.0859C143.578 34.3906 144.219 33.9062 145.227 33.9062C146.18 33.9062 146.828 34.4297 147.203 35.1328L148 34.7031C147.453 33.6719 146.492 33.0703 145.258 33.0703C143.766 33.0703 142.586 33.8281 142.586 35.2188C142.586 38.0391 147.117 36.6953 147.117 38.8125C147.117 39.6328 146.492 40.25 145.312 40.25C144.102 40.25 143.328 39.5312 143.031 38.6953L142.195 39.0625C142.594 40.25 143.82 41.1172 145.359 41.1172ZM153.234 41.1172C154.492 41.1172 155.375 40.7344 156.25 39.8203L155.531 39.1875C154.828 39.9219 154.18 40.1797 153.242 40.1797C151.672 40.1797 150.766 39.1172 150.688 37.375H156.438C156.469 37.2578 156.492 36.9453 156.492 36.6797C156.492 35.1328 155.656 33.0703 153.109 33.0703C150.836 33.0703 149.594 34.9297 149.594 37.1328C149.594 39.375 150.883 41.1172 153.234 41.1172ZM150.688 36.6094C150.82 35.0469 151.68 33.9531 153.102 33.9531C154.648 33.9531 155.352 35.0625 155.445 36.1172C155.469 36.2734 155.469 36.4453 155.461 36.6094H150.688ZM158.617 41H159.648V36.3828C159.648 34.8672 160.5 34.0312 161.82 34.0312C163.102 34.0312 163.773 34.875 163.773 36.2969V41H164.805V36.0547C164.773 34.3672 163.914 33.0703 162.094 33.0703C161.062 33.0703 160.141 33.5703 159.648 34.5234V33.1953H158.617V41ZM169.719 41.1172C171.242 41.1172 172.492 40.3281 172.492 38.7656C172.492 35.7734 167.938 37.0234 167.938 35.0859C167.938 34.3906 168.578 33.9062 169.586 33.9062C170.539 33.9062 171.188 34.4297 171.562 35.1328L172.359 34.7031C171.812 33.6719 170.852 33.0703 169.617 33.0703C168.125 33.0703 166.945 33.8281 166.945 35.2188C166.945 38.0391 171.477 36.6953 171.477 38.8125C171.477 39.6328 170.852 40.25 169.672 40.25C168.461 40.25 167.688 39.5312 167.391 38.6953L166.555 39.0625C166.953 40.25 168.18 41.1172 169.719 41.1172ZM177.594 41.1172C178.852 41.1172 179.734 40.7344 180.609 39.8203L179.891 39.1875C179.188 39.9219 178.539 40.1797 177.602 40.1797C176.031 40.1797 175.125 39.1172 175.047 37.375H180.797C180.828 37.2578 180.852 36.9453 180.852 36.6797C180.852 35.1328 180.016 33.0703 177.469 33.0703C175.195 33.0703 173.953 34.9297 173.953 37.1328C173.953 39.375 175.242 41.1172 177.594 41.1172ZM175.047 36.6094C175.18 35.0469 176.039 33.9531 177.461 33.9531C179.008 33.9531 179.711 35.0625 179.805 36.1172C179.828 36.2734 179.828 36.4453 179.82 36.6094H175.047ZM190.148 41.1172C192.375 41.1172 193.945 39.3203 193.945 37.0781C193.945 34.8516 192.375 33.0703 190.148 33.0703C187.93 33.0703 186.383 34.8516 186.383 37.0781C186.383 39.3281 187.93 41.1172 190.148 41.1172ZM190.148 40.2188C188.461 40.2188 187.453 38.8125 187.453 37.0781C187.453 35.3516 188.461 33.9766 190.148 33.9766C191.852 33.9766 192.875 35.3594 192.875 37.0781C192.875 38.8047 191.852 40.2188 190.148 40.2188ZM196.609 41H197.672V34.0703H199.961V33.1953H197.672V32.0781C197.672 31.1797 198.125 30.7656 198.922 30.7656C199.156 30.7656 199.398 30.8516 199.648 30.9844L199.992 30.1328C199.633 29.9531 199.242 29.8438 198.828 29.8438C197.531 29.8438 196.617 30.5781 196.617 31.9844V33.1953H194.984V34.0703H196.609V41ZM206.234 41H207.297V34.0703H209.586V33.1953H207.297V32.0781C207.297 31.1797 207.75 30.7656 208.547 30.7656C208.781 30.7656 209.023 30.8516 209.273 30.9844L209.617 30.1328C209.258 29.9531 208.867 29.8438 208.453 29.8438C207.156 29.8438 206.242 30.5781 206.242 31.9844V33.1953H204.609V34.0703H206.234V41ZM213.969 41.1172C215.227 41.1172 216.109 40.7344 216.984 39.8203L216.266 39.1875C215.562 39.9219 214.914 40.1797 213.977 40.1797C212.406 40.1797 211.5 39.1172 211.422 37.375H217.172C217.203 37.2578 217.227 36.9453 217.227 36.6797C217.227 35.1328 216.391 33.0703 213.844 33.0703C211.57 33.0703 210.328 34.9297 210.328 37.1328C210.328 39.375 211.617 41.1172 213.969 41.1172ZM211.422 36.6094C211.555 35.0469 212.414 33.9531 213.836 33.9531C215.383 33.9531 216.086 35.0625 216.18 36.1172C216.203 36.2734 216.203 36.4453 216.195 36.6094H211.422ZM221.984 33.0703C220.602 33.0703 219.695 33.6328 218.938 34.6797L219.727 35.2578C220.266 34.4531 220.953 33.9844 221.992 33.9844C223.555 33.9844 224.156 34.7656 224.156 36.4141V36.5078H221.906C219.891 36.5078 218.633 37.1484 218.633 38.7344C218.633 40.2344 219.742 41.1172 221.328 41.1172C222.492 41.1172 223.578 40.5469 224.164 39.4141L224.234 41H225.094V36.2344C225.094 34.2734 223.984 33.0703 221.984 33.0703ZM221.523 40.2344C220.352 40.2344 219.688 39.6562 219.688 38.7656C219.688 37.8281 220.422 37.2734 221.961 37.2734H224.156V38.0703C223.797 39.3516 222.883 40.2344 221.523 40.2344ZM227.68 41H228.68V37.0156C228.68 34.8984 229.914 34.0781 230.953 34.0781C231.266 34.0781 231.57 34.1562 231.844 34.3047L232.312 33.4453C231.977 33.1953 231.531 33.0703 231.094 33.0703C230.164 33.0703 229.078 33.625 228.688 34.8281V33.1953H227.68V41ZM22.6953 66H23.6719L25.8047 59.6172L27.9375 66H28.9141L31.1953 58.1953H30.0859L28.3672 64.4375L26.2812 58.1953H25.3359L23.2422 64.4453L21.5312 58.1953H20.4219L22.6953 66ZM33.0234 66H34.0703V61.5469C34.0703 60.0547 34.875 59.0156 36.2656 59.0156C37.6328 59.0156 38.1797 59.9062 38.1797 61.2969V66H39.2266V61.0547C39.1953 59.3672 38.3203 58.0703 36.5 58.0703C35.4688 58.0703 34.5625 58.5703 34.0703 59.5234V54.9609H33.0234V66ZM44.8281 66.1172C46.0859 66.1172 46.9688 65.7344 47.8438 64.8203L47.125 64.1875C46.4219 64.9219 45.7734 65.1797 44.8359 65.1797C43.2656 65.1797 42.3594 64.1172 42.2812 62.375H48.0312C48.0625 62.2578 48.0859 61.9453 48.0859 61.6797C48.0859 60.1328 47.25 58.0703 44.7031 58.0703C42.4297 58.0703 41.1875 59.9297 41.1875 62.1328C41.1875 64.375 42.4766 66.1172 44.8281 66.1172ZM42.2812 61.6094C42.4141 60.0469 43.2734 58.9531 44.6953 58.9531C46.2422 58.9531 46.9453 60.0625 47.0391 61.1172C47.0625 61.2734 47.0625 61.4453 47.0547 61.6094H42.2812ZM50.2109 66H51.2422V61.3828C51.2422 59.8672 52.0938 59.0312 53.4141 59.0312C54.6953 59.0312 55.3672 59.875 55.3672 61.2969V66H56.3984V61.0547C56.3672 59.3672 55.5078 58.0703 53.6875 58.0703C52.6562 58.0703 51.7344 58.5703 51.2422 59.5234V58.1953H50.2109V66ZM64.3828 66H65.3594L67.4922 59.6172L69.625 66H70.6016L72.8828 58.1953H71.7734L70.0547 64.4375L67.9688 58.1953H67.0234L64.9297 64.4453L63.2188 58.1953H62.1094L64.3828 66ZM77.2656 58.0703C75.8828 58.0703 74.9766 58.6328 74.2188 59.6797L75.0078 60.2578C75.5469 59.4531 76.2344 58.9844 77.2734 58.9844C78.8359 58.9844 79.4375 59.7656 79.4375 61.4141V61.5078H77.1875C75.1719 61.5078 73.9141 62.1484 73.9141 63.7344C73.9141 65.2344 75.0234 66.1172 76.6094 66.1172C77.7734 66.1172 78.8594 65.5469 79.4453 64.4141L79.5156 66H80.375V61.2344C80.375 59.2734 79.2656 58.0703 77.2656 58.0703ZM76.8047 65.2344C75.6328 65.2344 74.9688 64.6562 74.9688 63.7656C74.9688 62.8281 75.7031 62.2734 77.2422 62.2734H79.4375V63.0703C79.0781 64.3516 78.1641 65.2344 76.8047 65.2344ZM84.3594 66.1172C84.6953 66.1172 85.1172 66.0625 85.4609 65.9922L85.4453 65.1094C85.2109 65.1562 84.9766 65.1875 84.8125 65.1875C84.0312 65.1875 83.9531 64.6875 83.9531 64.0859V54.9609H82.9219V64.3516C82.9219 65.4531 83.25 66.1172 84.3594 66.1172ZM87.2734 66H88.3047V63.6875L90.1406 61.7578L92.9062 66H94.1328L90.8438 61.1094L93.6719 58.1953H92.3203L88.3047 62.4375V54.9609H87.2734V66ZM95.7656 56.5625H96.8438V54.9609H95.7656V56.5625ZM95.7891 66H96.8125V58.1953H95.7891V66ZM99.6172 66H100.648V61.3828C100.648 59.8672 101.5 59.0312 102.82 59.0312C104.102 59.0312 104.773 59.875 104.773 61.2969V66H105.805V61.0547C105.773 59.3672 104.914 58.0703 103.094 58.0703C102.062 58.0703 101.141 58.5703 100.648 59.5234V58.1953H99.6172V66ZM111.297 65.0625C109.906 64.8594 108.828 64.7344 108.828 63.875C108.828 63.5078 109.023 63.2422 109.445 63.0547C109.906 63.3125 110.469 63.4609 111.086 63.4609C112.734 63.4609 114.016 62.4141 114.016 60.8125C114.016 60.25 113.859 59.75 113.594 59.3359L114.641 58.4531L114.094 57.7812L113.031 58.7188C112.516 58.3047 111.828 58.0703 111.062 58.0703C109.398 58.0703 108.102 59.1797 108.102 60.7578C108.102 61.4609 108.352 62.0703 108.781 62.5312C108.227 62.9141 107.938 63.3828 107.938 64.0391C107.938 64.8281 108.367 65.2656 108.961 65.5312L107.781 66.6094C107.766 66.7109 107.758 66.8125 107.758 66.9531C107.758 68.4922 109.055 69.5859 111.273 69.5859C113.172 69.5859 114.531 68.7422 114.531 67.2188C114.531 65.5469 112.875 65.3047 111.297 65.0625ZM111.094 58.8906C112.258 58.8906 112.992 59.6641 112.992 60.7734C112.992 61.8594 112.266 62.6094 111.086 62.6094C109.906 62.6094 109.172 61.8516 109.172 60.7656C109.172 59.6719 109.938 58.8906 111.094 58.8906ZM111.266 68.7656C109.852 68.7656 108.82 68.1719 108.711 67.0781C108.703 67 108.695 66.9219 108.695 66.8281L109.602 65.7422C110.039 65.8438 110.508 65.9062 110.945 65.9688C112.43 66.1797 113.547 66.3281 113.547 67.3203C113.547 68.2344 112.648 68.7656 111.266 68.7656ZM123.695 66.1172C125.922 66.1172 127.492 64.3203 127.492 62.0781C127.492 59.8516 125.922 58.0703 123.695 58.0703C121.477 58.0703 119.93 59.8516 119.93 62.0781C119.93 64.3281 121.477 66.1172 123.695 66.1172ZM123.695 65.2188C122.008 65.2188 121 63.8125 121 62.0781C121 60.3516 122.008 58.9766 123.695 58.9766C125.398 58.9766 126.422 60.3594 126.422 62.0781C126.422 63.8047 125.398 65.2188 123.695 65.2188ZM129.891 66H130.914V59.0703H134.023V66H135.094V59.0703H137.523V58.1953H135.094V57.0781C135.094 56.1797 135.57 55.7656 136.438 55.7656C136.688 55.7656 136.938 55.8516 137.203 55.9844L137.547 55.1328C137.172 54.9531 136.773 54.8438 136.344 54.8438C135.68 54.8438 135.133 55.0156 134.727 55.3516C134.156 55 133.516 54.8438 132.836 54.8438C131.188 54.8438 129.891 55.8516 129.891 57.4609V58.1953H128.531V59.0703H129.891V66ZM130.914 58.1953V57.4766C130.914 56.4062 131.633 55.6875 132.883 55.6875C133.414 55.6875 133.875 55.8047 134.273 56.0312C134.117 56.2812 134.031 56.6016 134.031 56.9844V58.1953H130.914ZM139.094 61.5391H143.312V60.7344H139.094V61.5391ZM148.914 66.1172C150.352 66.1172 151.484 65.3281 151.961 63.9688L151.016 63.6094C150.703 64.5781 149.922 65.1797 148.906 65.1797C147.219 65.1797 146.445 63.7188 146.445 62.1094C146.445 60.5234 147.219 59.0156 148.898 59.0156C149.898 59.0156 150.688 59.625 151.055 60.6016L152.039 60.2188C151.461 58.8125 150.32 58.0703 148.898 58.0703C146.555 58.0703 145.398 60.0625 145.398 62.1094C145.398 64.3203 146.672 66.1172 148.914 66.1172ZM156.547 58.0703C155.164 58.0703 154.258 58.6328 153.5 59.6797L154.289 60.2578C154.828 59.4531 155.516 58.9844 156.555 58.9844C158.117 58.9844 158.719 59.7656 158.719 61.4141V61.5078H156.469C154.453 61.5078 153.195 62.1484 153.195 63.7344C153.195 65.2344 154.305 66.1172 155.891 66.1172C157.055 66.1172 158.141 65.5469 158.727 64.4141L158.797 66H159.656V61.2344C159.656 59.2734 158.547 58.0703 156.547 58.0703ZM156.086 65.2344C154.914 65.2344 154.25 64.6562 154.25 63.7656C154.25 62.8281 154.984 62.2734 156.523 62.2734H158.719V63.0703C158.359 64.3516 157.445 65.2344 156.086 65.2344ZM162.25 66H163.281V61.375C163.281 60.0156 164.102 59.0391 165.406 59.0391C166.688 59.0391 167.242 59.8984 167.242 61.2812V66H168.273V61.375C168.273 60.0156 169.094 59.0391 170.391 59.0391C171.719 59.0391 172.234 59.9453 172.234 61.5625V66H173.266V61.4375C173.266 59.4375 172.453 58.0703 170.578 58.0703C169.422 58.0703 168.461 58.6562 168 59.7969C167.648 58.6016 166.742 58.0703 165.594 58.0703C164.547 58.0703 163.672 58.5547 163.242 59.5547V58.1953H162.242L162.25 66ZM175.883 69.2344H176.945V64.2812C177.438 65.4219 178.492 66.1172 179.734 66.1172C181.844 66.1172 183.055 64.3203 183.055 62.1016C183.055 59.8906 181.844 58.0703 179.75 58.0703C178.516 58.0703 177.438 58.7656 176.945 59.9219V58.1953H175.883V69.2344ZM179.508 65.1797C177.883 65.1797 176.859 63.8516 176.859 62.1016C176.859 60.3516 177.883 59.0312 179.508 59.0312C181.141 59.0312 182.016 60.3672 182.016 62.1016C182.016 63.8281 181.141 65.1797 179.508 65.1797ZM187.688 66.1172C188.719 66.1172 189.648 65.625 190.133 64.6719V66H191.156V58.1953H190.133V62.8047C190.133 64.3281 189.273 65.1562 187.961 65.1562C186.68 65.1562 186.008 64.3203 186.008 62.8984V58.1953H184.984V63.1328C185.016 64.8203 185.859 66.1172 187.688 66.1172ZM196.281 66.1172C197.805 66.1172 199.055 65.3281 199.055 63.7656C199.055 60.7734 194.5 62.0234 194.5 60.0859C194.5 59.3906 195.141 58.9062 196.148 58.9062C197.102 58.9062 197.75 59.4297 198.125 60.1328L198.922 59.7031C198.375 58.6719 197.414 58.0703 196.18 58.0703C194.688 58.0703 193.508 58.8281 193.508 60.2188C193.508 63.0391 198.039 61.6953 198.039 63.8125C198.039 64.6328 197.414 65.25 196.234 65.25C195.023 65.25 194.25 64.5312 193.953 63.6953L193.117 64.0625C193.516 65.25 194.742 66.1172 196.281 66.1172Z" fill="#1A1F23"/>
<path d="M205.614 157.587C205.614 145.1 201.492 132.912 193.799 122.657C186.107 112.402 175.213 104.57 162.578 100.212C149.943 95.8535 136.17 95.1767 123.108 98.2724C110.046 101.368 98.3177 108.088 89.4967 117.532L139.5 157.587H205.614Z" fill="#B2E7B2"/>
<path d="M89.9124 117.091C81.4508 125.977 75.9549 136.946 74.091 148.666C72.2271 160.387 74.0753 172.357 79.4116 183.125L139.5 157.587L89.9124 117.091Z" fill="#FFDCA9"/>
<path d="M151.384 217.815C166.629 215.235 180.412 207.778 190.324 196.745C200.236 185.712 205.648 171.806 205.614 157.454L139.5 157.586L151.384 217.815Z" fill="#95A9E8"/>
<path d="M79.6677 183.635C84.9017 193.945 93.1384 202.698 103.451 208.91C113.764 215.122 125.744 218.546 138.043 218.797C150.342 219.048 162.474 216.116 173.072 210.331C183.67 204.546 192.315 196.138 198.035 186.051L139.5 157.586L79.6677 183.635Z" fill="#EDB0A9"/>
<path d="M128.931 128.13C130.817 128.13 132.444 127.098 132.444 125.19C132.444 124.015 131.754 123.153 130.448 122.839C131.439 122.449 131.925 121.711 131.925 120.802C131.925 119.188 130.503 118.211 128.903 118.211C127.249 118.211 125.875 119.25 125.875 121.014L127.263 121.103C127.276 120.159 127.939 119.578 128.924 119.578C129.826 119.578 130.517 120.07 130.517 120.979C130.517 121.902 130.038 122.367 128.486 122.367V123.502C129.642 123.502 131.043 123.604 131.043 125.074C131.043 126.195 130.086 126.776 128.958 126.776C127.714 126.776 126.818 126.093 126.818 124.924L125.417 125.006C125.417 127.07 127.01 128.13 128.931 128.13ZM137.059 118.211C135.165 118.211 133.627 119.701 133.627 121.526C133.627 123.017 134.659 124.254 136.006 124.65C136.464 124.794 136.949 124.828 137.428 124.76L135.411 128H137.086L139.978 123.283C140.292 122.771 140.504 122.176 140.504 121.513C140.504 119.701 138.959 118.211 137.059 118.211ZM137.059 123.481C135.951 123.481 135.062 122.6 135.062 121.533C135.062 120.46 135.951 119.578 137.059 119.578C138.173 119.578 139.068 120.46 139.068 121.526C139.068 122.6 138.173 123.481 137.059 123.481ZM142.432 128H143.854V126.291H142.432V128ZM149.145 118.341V119.011C149.145 119.612 148.803 119.865 148.181 119.865H146.779V120.986H149.09V128H150.532V118.341H149.145Z" fill="#1E1D2D"/>
<path d="M180.999 172.13C182.77 172.13 184.458 171.187 184.458 169.238C184.458 168.138 183.904 167.256 182.92 166.771C183.556 166.333 183.959 165.622 183.959 164.781C183.959 163.175 182.564 162.211 181.006 162.211C179.495 162.211 178.053 163.134 178.053 164.774C178.053 165.595 178.422 166.306 179.085 166.771C178.148 167.235 177.54 168.11 177.54 169.252C177.54 171.173 179.222 172.13 180.999 172.13ZM181.033 166.347C180.104 166.347 179.502 165.752 179.502 164.85C179.502 163.906 180.22 163.435 181.026 163.435C181.908 163.435 182.558 163.981 182.558 164.897C182.558 165.8 181.915 166.347 181.033 166.347ZM180.992 170.865C179.919 170.865 178.976 170.298 178.976 169.088C178.976 167.974 179.816 167.311 180.992 167.311C182.147 167.311 183.002 167.974 183.002 169.102C183.002 170.298 182.079 170.865 180.992 170.865ZM186.475 172H187.896V170.291H186.475V172ZM189.879 162.341V163.681H195.054L190.768 172H192.395L196.824 163.12V162.341H189.879Z" fill="#1E1D2D"/>
<path d="M128.931 194.13C130.817 194.13 132.444 193.098 132.444 191.19C132.444 190.015 131.754 189.153 130.448 188.839C131.439 188.449 131.925 187.711 131.925 186.802C131.925 185.188 130.503 184.211 128.903 184.211C127.249 184.211 125.875 185.25 125.875 187.014L127.263 187.103C127.276 186.159 127.939 185.578 128.924 185.578C129.826 185.578 130.517 186.07 130.517 186.979C130.517 187.902 130.038 188.367 128.486 188.367V189.502C129.642 189.502 131.043 189.604 131.043 191.074C131.043 192.195 130.086 192.776 128.958 192.776C127.714 192.776 126.818 192.093 126.818 190.924L125.417 191.006C125.417 193.07 127.01 194.13 128.931 194.13ZM139.253 190.377V184.341H138.002L133.217 190.849V191.724H137.811V194H139.253V191.724H140.805V190.377H139.253ZM135.097 190.377L137.811 186.562V190.377H135.097ZM142.527 194H143.949V192.291H142.527V194ZM149.397 194.13C151.168 194.13 152.856 193.187 152.856 191.238C152.856 190.138 152.303 189.256 151.318 188.771C151.954 188.333 152.357 187.622 152.357 186.781C152.357 185.175 150.963 184.211 149.404 184.211C147.894 184.211 146.451 185.134 146.451 186.774C146.451 187.595 146.82 188.306 147.483 188.771C146.547 189.235 145.938 190.11 145.938 191.252C145.938 193.173 147.62 194.13 149.397 194.13ZM149.432 188.347C148.502 188.347 147.9 187.752 147.9 186.85C147.9 185.906 148.618 185.435 149.425 185.435C150.307 185.435 150.956 185.981 150.956 186.897C150.956 187.8 150.313 188.347 149.432 188.347ZM149.391 192.865C148.317 192.865 147.374 192.298 147.374 191.088C147.374 189.974 148.215 189.311 149.391 189.311C150.546 189.311 151.4 189.974 151.4 191.102C151.4 192.298 150.478 192.865 149.391 192.865Z" fill="#1E1D2D"/>
<path d="M86.9922 152.341V153.011C86.9922 153.612 86.6504 153.865 86.0283 153.865H84.627V154.986H86.9375V162H88.3799V152.341H86.9922ZM91.5723 152.341V153.681H96.7471L92.4609 162H94.0879L98.5176 153.12V152.341H91.5723ZM100.268 162H101.689V160.291H100.268V162ZM109.284 158.377V152.341H108.033L103.248 158.849V159.724H107.842V162H109.284V159.724H110.836V158.377H109.284ZM105.128 158.377L107.842 154.562V158.377H105.128Z" fill="#1E1D2D"/>
<path d="M52.5938 260.102C54.5938 260.102 56.1406 258.859 56.1406 256.969C56.1406 253.328 50.4688 254.234 50.4688 251.609C50.4688 250.562 51.3359 249.797 52.4844 249.797C53.5078 249.797 54.25 250.25 54.7578 251.172L55.6484 250.617C54.9453 249.383 53.875 248.844 52.5234 248.844C50.7891 248.844 49.3984 249.938 49.3984 251.656C49.3984 255.102 55.0703 254.156 55.0703 257.055C55.0703 258.25 54.1016 259.141 52.6094 259.141C51.1328 259.141 50.0234 258.336 49.8047 256.805L48.7422 257.07C49.0703 259.031 50.6875 260.102 52.5938 260.102ZM60.7109 260.117C61.1484 260.117 61.5703 260.039 61.8125 259.961L61.7969 259.016C61.5781 259.102 61.2266 259.203 60.8828 259.203C60.0547 259.203 59.6172 258.75 59.6172 257.648V253.07H61.8047V252.195H59.6172V249.18L58.6016 249.938V252.195H57.2891V253.07H58.5859V257.812C58.5859 259.305 59.3281 260.117 60.7109 260.117ZM63.7109 260H64.7109V256.016C64.7109 253.898 65.9453 253.078 66.9844 253.078C67.2969 253.078 67.6016 253.156 67.875 253.305L68.3438 252.445C68.0078 252.195 67.5625 252.07 67.125 252.07C66.1953 252.07 65.1094 252.625 64.7188 253.828V252.195H63.7109V260ZM72.4453 260.117C74.6719 260.117 76.2422 258.32 76.2422 256.078C76.2422 253.852 74.6719 252.07 72.4453 252.07C70.2266 252.07 68.6797 253.852 68.6797 256.078C68.6797 258.328 70.2266 260.117 72.4453 260.117ZM72.4453 259.219C70.7578 259.219 69.75 257.812 69.75 256.078C69.75 254.352 70.7578 252.977 72.4453 252.977C74.1484 252.977 75.1719 254.359 75.1719 256.078C75.1719 257.805 74.1484 259.219 72.4453 259.219ZM78.3672 260H79.3984V255.383C79.3984 253.867 80.25 253.031 81.5703 253.031C82.8516 253.031 83.5234 253.875 83.5234 255.297V260H84.5547V255.055C84.5234 253.367 83.6641 252.07 81.8438 252.07C80.8125 252.07 79.8906 252.57 79.3984 253.523V252.195H78.3672V260ZM90.0469 259.062C88.6562 258.859 87.5781 258.734 87.5781 257.875C87.5781 257.508 87.7734 257.242 88.1953 257.055C88.6562 257.312 89.2188 257.461 89.8359 257.461C91.4844 257.461 92.7656 256.414 92.7656 254.812C92.7656 254.25 92.6094 253.75 92.3438 253.336L93.3906 252.453L92.8438 251.781L91.7812 252.719C91.2656 252.305 90.5781 252.07 89.8125 252.07C88.1484 252.07 86.8516 253.18 86.8516 254.758C86.8516 255.461 87.1016 256.07 87.5312 256.531C86.9766 256.914 86.6875 257.383 86.6875 258.039C86.6875 258.828 87.1172 259.266 87.7109 259.531L86.5312 260.609C86.5156 260.711 86.5078 260.812 86.5078 260.953C86.5078 262.492 87.8047 263.586 90.0234 263.586C91.9219 263.586 93.2812 262.742 93.2812 261.219C93.2812 259.547 91.625 259.305 90.0469 259.062ZM89.8438 252.891C91.0078 252.891 91.7422 253.664 91.7422 254.773C91.7422 255.859 91.0156 256.609 89.8359 256.609C88.6562 256.609 87.9219 255.852 87.9219 254.766C87.9219 253.672 88.6875 252.891 89.8438 252.891ZM90.0156 262.766C88.6016 262.766 87.5703 262.172 87.4609 261.078C87.4531 261 87.4453 260.922 87.4453 260.828L88.3516 259.742C88.7891 259.844 89.2578 259.906 89.6953 259.969C91.1797 260.18 92.2969 260.328 92.2969 261.32C92.2969 262.234 91.3984 262.766 90.0156 262.766ZM96.6719 260.117C97.0078 260.117 97.4297 260.062 97.7734 259.992L97.7578 259.109C97.5234 259.156 97.2891 259.188 97.125 259.188C96.3438 259.188 96.2656 258.688 96.2656 258.086V248.961H95.2344V258.352C95.2344 259.453 95.5625 260.117 96.6719 260.117ZM100.438 263.344H101.562L105.844 252.195H104.719L102.312 258.695L99.5781 252.195H98.4453L101.766 259.906L100.438 263.344ZM49.75 280H52.7109C56.3359 280 58.3594 278.016 58.3594 274.562C58.3594 270.969 56.3828 268.961 52.7266 268.961H49.75V280ZM50.8203 279.008V269.953H52.7109C55.8047 269.953 57.2891 271.445 57.2891 274.523C57.2891 277.586 55.5547 279.008 52.6172 279.008H50.8203ZM60.75 270.562H61.8281V268.961H60.75V270.562ZM60.7734 280H61.7969V272.195H60.7734V280ZM66.9219 280.117C68.4453 280.117 69.6953 279.328 69.6953 277.766C69.6953 274.773 65.1406 276.023 65.1406 274.086C65.1406 273.391 65.7812 272.906 66.7891 272.906C67.7422 272.906 68.3906 273.43 68.7656 274.133L69.5625 273.703C69.0156 272.672 68.0547 272.07 66.8203 272.07C65.3281 272.07 64.1484 272.828 64.1484 274.219C64.1484 277.039 68.6797 275.695 68.6797 277.812C68.6797 278.633 68.0547 279.25 66.875 279.25C65.6641 279.25 64.8906 278.531 64.5938 277.695L63.7578 278.062C64.1562 279.25 65.3828 280.117 66.9219 280.117ZM74.375 272.07C72.9922 272.07 72.0859 272.633 71.3281 273.68L72.1172 274.258C72.6562 273.453 73.3438 272.984 74.3828 272.984C75.9453 272.984 76.5469 273.766 76.5469 275.414V275.508H74.2969C72.2812 275.508 71.0234 276.148 71.0234 277.734C71.0234 279.234 72.1328 280.117 73.7188 280.117C74.8828 280.117 75.9688 279.547 76.5547 278.414L76.625 280H77.4844V275.234C77.4844 273.273 76.375 272.07 74.375 272.07ZM73.9141 279.234C72.7422 279.234 72.0781 278.656 72.0781 277.766C72.0781 276.828 72.8125 276.273 74.3516 276.273H76.5469V277.07C76.1875 278.352 75.2734 279.234 73.9141 279.234ZM82.9531 279.062C81.5625 278.859 80.4844 278.734 80.4844 277.875C80.4844 277.508 80.6797 277.242 81.1016 277.055C81.5625 277.312 82.125 277.461 82.7422 277.461C84.3906 277.461 85.6719 276.414 85.6719 274.812C85.6719 274.25 85.5156 273.75 85.25 273.336L86.2969 272.453L85.75 271.781L84.6875 272.719C84.1719 272.305 83.4844 272.07 82.7188 272.07C81.0547 272.07 79.7578 273.18 79.7578 274.758C79.7578 275.461 80.0078 276.07 80.4375 276.531C79.8828 276.914 79.5938 277.383 79.5938 278.039C79.5938 278.828 80.0234 279.266 80.6172 279.531L79.4375 280.609C79.4219 280.711 79.4141 280.812 79.4141 280.953C79.4141 282.492 80.7109 283.586 82.9297 283.586C84.8281 283.586 86.1875 282.742 86.1875 281.219C86.1875 279.547 84.5312 279.305 82.9531 279.062ZM82.75 272.891C83.9141 272.891 84.6484 273.664 84.6484 274.773C84.6484 275.859 83.9219 276.609 82.7422 276.609C81.5625 276.609 80.8281 275.852 80.8281 274.766C80.8281 273.672 81.5938 272.891 82.75 272.891ZM82.9219 282.766C81.5078 282.766 80.4766 282.172 80.3672 281.078C80.3594 281 80.3516 280.922 80.3516 280.828L81.2578 279.742C81.6953 279.844 82.1641 279.906 82.6016 279.969C84.0859 280.18 85.2031 280.328 85.2031 281.32C85.2031 282.234 84.3047 282.766 82.9219 282.766ZM88.1797 280H89.1797V276.016C89.1797 273.898 90.4141 273.078 91.4531 273.078C91.7656 273.078 92.0703 273.156 92.3438 273.305L92.8125 272.445C92.4766 272.195 92.0312 272.07 91.5938 272.07C90.6641 272.07 89.5781 272.625 89.1875 273.828V272.195H88.1797V280ZM96.8438 280.117C98.1016 280.117 98.9844 279.734 99.8594 278.82L99.1406 278.188C98.4375 278.922 97.7891 279.18 96.8516 279.18C95.2812 279.18 94.375 278.117 94.2969 276.375H100.047C100.078 276.258 100.102 275.945 100.102 275.68C100.102 274.133 99.2656 272.07 96.7188 272.07C94.4453 272.07 93.2031 273.93 93.2031 276.133C93.2031 278.375 94.4922 280.117 96.8438 280.117ZM94.2969 275.609C94.4297 274.047 95.2891 272.953 96.7109 272.953C98.2578 272.953 98.9609 274.062 99.0547 275.117C99.0781 275.273 99.0781 275.445 99.0703 275.609H94.2969ZM105.234 280.117C106.492 280.117 107.375 279.734 108.25 278.82L107.531 278.188C106.828 278.922 106.18 279.18 105.242 279.18C103.672 279.18 102.766 278.117 102.688 276.375H108.438C108.469 276.258 108.492 275.945 108.492 275.68C108.492 274.133 107.656 272.07 105.109 272.07C102.836 272.07 101.594 273.93 101.594 276.133C101.594 278.375 102.883 280.117 105.234 280.117ZM102.688 275.609C102.82 274.047 103.68 272.953 105.102 272.953C106.648 272.953 107.352 274.062 107.445 275.117C107.469 275.273 107.469 275.445 107.461 275.609H102.688Z" fill="#1A1F23"/>
<path d="M49.75 305H52.7109C56.3359 305 58.3594 303.016 58.3594 299.562C58.3594 295.969 56.3828 293.961 52.7266 293.961H49.75V305ZM50.8203 304.008V294.953H52.7109C55.8047 294.953 57.2891 296.445 57.2891 299.523C57.2891 302.586 55.5547 304.008 52.6172 304.008H50.8203ZM60.75 295.562H61.8281V293.961H60.75V295.562ZM60.7734 305H61.7969V297.195H60.7734V305ZM66.9219 305.117C68.4453 305.117 69.6953 304.328 69.6953 302.766C69.6953 299.773 65.1406 301.023 65.1406 299.086C65.1406 298.391 65.7812 297.906 66.7891 297.906C67.7422 297.906 68.3906 298.43 68.7656 299.133L69.5625 298.703C69.0156 297.672 68.0547 297.07 66.8203 297.07C65.3281 297.07 64.1484 297.828 64.1484 299.219C64.1484 302.039 68.6797 300.695 68.6797 302.812C68.6797 303.633 68.0547 304.25 66.875 304.25C65.6641 304.25 64.8906 303.531 64.5938 302.695L63.7578 303.062C64.1562 304.25 65.3828 305.117 66.9219 305.117ZM74.375 297.07C72.9922 297.07 72.0859 297.633 71.3281 298.68L72.1172 299.258C72.6562 298.453 73.3438 297.984 74.3828 297.984C75.9453 297.984 76.5469 298.766 76.5469 300.414V300.508H74.2969C72.2812 300.508 71.0234 301.148 71.0234 302.734C71.0234 304.234 72.1328 305.117 73.7188 305.117C74.8828 305.117 75.9688 304.547 76.5547 303.414L76.625 305H77.4844V300.234C77.4844 298.273 76.375 297.07 74.375 297.07ZM73.9141 304.234C72.7422 304.234 72.0781 303.656 72.0781 302.766C72.0781 301.828 72.8125 301.273 74.3516 301.273H76.5469V302.07C76.1875 303.352 75.2734 304.234 73.9141 304.234ZM82.9531 304.062C81.5625 303.859 80.4844 303.734 80.4844 302.875C80.4844 302.508 80.6797 302.242 81.1016 302.055C81.5625 302.312 82.125 302.461 82.7422 302.461C84.3906 302.461 85.6719 301.414 85.6719 299.812C85.6719 299.25 85.5156 298.75 85.25 298.336L86.2969 297.453L85.75 296.781L84.6875 297.719C84.1719 297.305 83.4844 297.07 82.7188 297.07C81.0547 297.07 79.7578 298.18 79.7578 299.758C79.7578 300.461 80.0078 301.07 80.4375 301.531C79.8828 301.914 79.5938 302.383 79.5938 303.039C79.5938 303.828 80.0234 304.266 80.6172 304.531L79.4375 305.609C79.4219 305.711 79.4141 305.812 79.4141 305.953C79.4141 307.492 80.7109 308.586 82.9297 308.586C84.8281 308.586 86.1875 307.742 86.1875 306.219C86.1875 304.547 84.5312 304.305 82.9531 304.062ZM82.75 297.891C83.9141 297.891 84.6484 298.664 84.6484 299.773C84.6484 300.859 83.9219 301.609 82.7422 301.609C81.5625 301.609 80.8281 300.852 80.8281 299.766C80.8281 298.672 81.5938 297.891 82.75 297.891ZM82.9219 307.766C81.5078 307.766 80.4766 307.172 80.3672 306.078C80.3594 306 80.3516 305.922 80.3516 305.828L81.2578 304.742C81.6953 304.844 82.1641 304.906 82.6016 304.969C84.0859 305.18 85.2031 305.328 85.2031 306.32C85.2031 307.234 84.3047 307.766 82.9219 307.766ZM88.1797 305H89.1797V301.016C89.1797 298.898 90.4141 298.078 91.4531 298.078C91.7656 298.078 92.0703 298.156 92.3438 298.305L92.8125 297.445C92.4766 297.195 92.0312 297.07 91.5938 297.07C90.6641 297.07 89.5781 297.625 89.1875 298.828V297.195H88.1797V305ZM96.8438 305.117C98.1016 305.117 98.9844 304.734 99.8594 303.82L99.1406 303.188C98.4375 303.922 97.7891 304.18 96.8516 304.18C95.2812 304.18 94.375 303.117 94.2969 301.375H100.047C100.078 301.258 100.102 300.945 100.102 300.68C100.102 299.133 99.2656 297.07 96.7188 297.07C94.4453 297.07 93.2031 298.93 93.2031 301.133C93.2031 303.375 94.4922 305.117 96.8438 305.117ZM94.2969 300.609C94.4297 299.047 95.2891 297.953 96.7109 297.953C98.2578 297.953 98.9609 299.062 99.0547 300.117C99.0781 300.273 99.0781 300.445 99.0703 300.609H94.2969ZM105.234 305.117C106.492 305.117 107.375 304.734 108.25 303.82L107.531 303.188C106.828 303.922 106.18 304.18 105.242 304.18C103.672 304.18 102.766 303.117 102.688 301.375H108.438C108.469 301.258 108.492 300.945 108.492 300.68C108.492 299.133 107.656 297.07 105.109 297.07C102.836 297.07 101.594 298.93 101.594 301.133C101.594 303.375 102.883 305.117 105.234 305.117ZM102.688 300.609C102.82 299.047 103.68 297.953 105.102 297.953C106.648 297.953 107.352 299.062 107.445 300.117C107.469 300.273 107.469 300.445 107.461 300.609H102.688Z" fill="#1A1F23"/>
<path d="M179.375 237.961V247.273L173.883 237.961H172.75V249H173.781V239.656L179.273 249H180.406V237.961H179.375ZM186.531 249.117C187.789 249.117 188.672 248.734 189.547 247.82L188.828 247.188C188.125 247.922 187.477 248.18 186.539 248.18C184.969 248.18 184.062 247.117 183.984 245.375H189.734C189.766 245.258 189.789 244.945 189.789 244.68C189.789 243.133 188.953 241.07 186.406 241.07C184.133 241.07 182.891 242.93 182.891 245.133C182.891 247.375 184.18 249.117 186.531 249.117ZM183.984 244.609C184.117 243.047 184.977 241.953 186.398 241.953C187.945 241.953 188.648 243.062 188.742 244.117C188.766 244.273 188.766 244.445 188.758 244.609H183.984ZM194.234 249.117C195.266 249.117 196.195 248.625 196.68 247.672V249H197.703V241.195H196.68V245.805C196.68 247.328 195.82 248.156 194.508 248.156C193.227 248.156 192.555 247.32 192.555 245.898V241.195H191.531V246.133C191.562 247.82 192.406 249.117 194.234 249.117ZM202.883 249.117C203.32 249.117 203.742 249.039 203.984 248.961L203.969 248.016C203.75 248.102 203.398 248.203 203.055 248.203C202.227 248.203 201.789 247.75 201.789 246.648V242.07H203.977V241.195H201.789V238.18L200.773 238.938V241.195H199.461V242.07H200.758V246.812C200.758 248.305 201.5 249.117 202.883 249.117ZM205.883 249H206.883V245.016C206.883 242.898 208.117 242.078 209.156 242.078C209.469 242.078 209.773 242.156 210.047 242.305L210.516 241.445C210.18 241.195 209.734 241.07 209.297 241.07C208.367 241.07 207.281 241.625 206.891 242.828V241.195H205.883V249ZM214.766 241.07C213.383 241.07 212.477 241.633 211.719 242.68L212.508 243.258C213.047 242.453 213.734 241.984 214.773 241.984C216.336 241.984 216.938 242.766 216.938 244.414V244.508H214.688C212.672 244.508 211.414 245.148 211.414 246.734C211.414 248.234 212.523 249.117 214.109 249.117C215.273 249.117 216.359 248.547 216.945 247.414L217.016 249H217.875V244.234C217.875 242.273 216.766 241.07 214.766 241.07ZM214.305 248.234C213.133 248.234 212.469 247.656 212.469 246.766C212.469 245.828 213.203 245.273 214.742 245.273H216.938V246.07C216.578 247.352 215.664 248.234 214.305 248.234ZM221.859 249.117C222.195 249.117 222.617 249.062 222.961 248.992L222.945 248.109C222.711 248.156 222.477 248.188 222.312 248.188C221.531 248.188 221.453 247.688 221.453 247.086V237.961H220.422V247.352C220.422 248.453 220.75 249.117 221.859 249.117Z" fill="#1A1F23"/>
<path d="M171.539 280H172.711L173.664 277.336H178.531L179.469 280H180.633L176.539 268.961H175.641L171.539 280ZM174 276.406L176.094 270.461L178.195 276.406H174ZM185.312 279.062C183.922 278.859 182.844 278.734 182.844 277.875C182.844 277.508 183.039 277.242 183.461 277.055C183.922 277.312 184.484 277.461 185.102 277.461C186.75 277.461 188.031 276.414 188.031 274.812C188.031 274.25 187.875 273.75 187.609 273.336L188.656 272.453L188.109 271.781L187.047 272.719C186.531 272.305 185.844 272.07 185.078 272.07C183.414 272.07 182.117 273.18 182.117 274.758C182.117 275.461 182.367 276.07 182.797 276.531C182.242 276.914 181.953 277.383 181.953 278.039C181.953 278.828 182.383 279.266 182.977 279.531L181.797 280.609C181.781 280.711 181.773 280.812 181.773 280.953C181.773 282.492 183.07 283.586 185.289 283.586C187.188 283.586 188.547 282.742 188.547 281.219C188.547 279.547 186.891 279.305 185.312 279.062ZM185.109 272.891C186.273 272.891 187.008 273.664 187.008 274.773C187.008 275.859 186.281 276.609 185.102 276.609C183.922 276.609 183.188 275.852 183.188 274.766C183.188 273.672 183.953 272.891 185.109 272.891ZM185.281 282.766C183.867 282.766 182.836 282.172 182.727 281.078C182.719 281 182.711 280.922 182.711 280.828L183.617 279.742C184.055 279.844 184.523 279.906 184.961 279.969C186.445 280.18 187.562 280.328 187.562 281.32C187.562 282.234 186.664 282.766 185.281 282.766ZM190.539 280H191.539V276.016C191.539 273.898 192.773 273.078 193.812 273.078C194.125 273.078 194.43 273.156 194.703 273.305L195.172 272.445C194.836 272.195 194.391 272.07 193.953 272.07C193.023 272.07 191.938 272.625 191.547 273.828V272.195H190.539V280ZM199.203 280.117C200.461 280.117 201.344 279.734 202.219 278.82L201.5 278.188C200.797 278.922 200.148 279.18 199.211 279.18C197.641 279.18 196.734 278.117 196.656 276.375H202.406C202.438 276.258 202.461 275.945 202.461 275.68C202.461 274.133 201.625 272.07 199.078 272.07C196.805 272.07 195.562 273.93 195.562 276.133C195.562 278.375 196.852 280.117 199.203 280.117ZM196.656 275.609C196.789 274.047 197.648 272.953 199.07 272.953C200.617 272.953 201.32 274.062 201.414 275.117C201.438 275.273 201.438 275.445 201.43 275.609H196.656ZM207.594 280.117C208.852 280.117 209.734 279.734 210.609 278.82L209.891 278.188C209.188 278.922 208.539 279.18 207.602 279.18C206.031 279.18 205.125 278.117 205.047 276.375H210.797C210.828 276.258 210.852 275.945 210.852 275.68C210.852 274.133 210.016 272.07 207.469 272.07C205.195 272.07 203.953 273.93 203.953 276.133C203.953 278.375 205.242 280.117 207.594 280.117ZM205.047 275.609C205.18 274.047 206.039 272.953 207.461 272.953C209.008 272.953 209.711 274.062 209.805 275.117C209.828 275.273 209.828 275.445 209.82 275.609H205.047Z" fill="#1A1F23"/>
<path d="M175.594 306.102C177.594 306.102 179.141 304.859 179.141 302.969C179.141 299.328 173.469 300.234 173.469 297.609C173.469 296.562 174.336 295.797 175.484 295.797C176.508 295.797 177.25 296.25 177.758 297.172L178.648 296.617C177.945 295.383 176.875 294.844 175.523 294.844C173.789 294.844 172.398 295.938 172.398 297.656C172.398 301.102 178.07 300.156 178.07 303.055C178.07 304.25 177.102 305.141 175.609 305.141C174.133 305.141 173.023 304.336 172.805 302.805L171.742 303.07C172.07 305.031 173.688 306.102 175.594 306.102ZM183.711 306.117C184.148 306.117 184.57 306.039 184.812 305.961L184.797 305.016C184.578 305.102 184.227 305.203 183.883 305.203C183.055 305.203 182.617 304.75 182.617 303.648V299.07H184.805V298.195H182.617V295.18L181.602 295.938V298.195H180.289V299.07H181.586V303.812C181.586 305.305 182.328 306.117 183.711 306.117ZM186.711 306H187.711V302.016C187.711 299.898 188.945 299.078 189.984 299.078C190.297 299.078 190.602 299.156 190.875 299.305L191.344 298.445C191.008 298.195 190.562 298.07 190.125 298.07C189.195 298.07 188.109 298.625 187.719 299.828V298.195H186.711V306ZM195.445 306.117C197.672 306.117 199.242 304.32 199.242 302.078C199.242 299.852 197.672 298.07 195.445 298.07C193.227 298.07 191.68 299.852 191.68 302.078C191.68 304.328 193.227 306.117 195.445 306.117ZM195.445 305.219C193.758 305.219 192.75 303.812 192.75 302.078C192.75 300.352 193.758 298.977 195.445 298.977C197.148 298.977 198.172 300.359 198.172 302.078C198.172 303.805 197.148 305.219 195.445 305.219ZM201.367 306H202.398V301.383C202.398 299.867 203.25 299.031 204.57 299.031C205.852 299.031 206.523 299.875 206.523 301.297V306H207.555V301.055C207.523 299.367 206.664 298.07 204.844 298.07C203.812 298.07 202.891 298.57 202.398 299.523V298.195H201.367V306ZM213.047 305.062C211.656 304.859 210.578 304.734 210.578 303.875C210.578 303.508 210.773 303.242 211.195 303.055C211.656 303.312 212.219 303.461 212.836 303.461C214.484 303.461 215.766 302.414 215.766 300.812C215.766 300.25 215.609 299.75 215.344 299.336L216.391 298.453L215.844 297.781L214.781 298.719C214.266 298.305 213.578 298.07 212.812 298.07C211.148 298.07 209.852 299.18 209.852 300.758C209.852 301.461 210.102 302.07 210.531 302.531C209.977 302.914 209.688 303.383 209.688 304.039C209.688 304.828 210.117 305.266 210.711 305.531L209.531 306.609C209.516 306.711 209.508 306.812 209.508 306.953C209.508 308.492 210.805 309.586 213.023 309.586C214.922 309.586 216.281 308.742 216.281 307.219C216.281 305.547 214.625 305.305 213.047 305.062ZM212.844 298.891C214.008 298.891 214.742 299.664 214.742 300.773C214.742 301.859 214.016 302.609 212.836 302.609C211.656 302.609 210.922 301.852 210.922 300.766C210.922 299.672 211.688 298.891 212.844 298.891ZM213.016 308.766C211.602 308.766 210.57 308.172 210.461 307.078C210.453 307 210.445 306.922 210.445 306.828L211.352 305.742C211.789 305.844 212.258 305.906 212.695 305.969C214.18 306.18 215.297 306.328 215.297 307.32C215.297 308.234 214.398 308.766 213.016 308.766ZM219.672 306.117C220.008 306.117 220.43 306.062 220.773 305.992L220.758 305.109C220.523 305.156 220.289 305.188 220.125 305.188C219.344 305.188 219.266 304.688 219.266 304.086V294.961H218.234V304.352C218.234 305.453 218.562 306.117 219.672 306.117ZM223.438 309.344H224.562L228.844 298.195H227.719L225.312 304.695L222.578 298.195H221.445L224.766 305.906L223.438 309.344ZM171.539 326H172.711L173.664 323.336H178.531L179.469 326H180.633L176.539 314.961H175.641L171.539 326ZM174 322.406L176.094 316.461L178.195 322.406H174ZM185.312 325.062C183.922 324.859 182.844 324.734 182.844 323.875C182.844 323.508 183.039 323.242 183.461 323.055C183.922 323.312 184.484 323.461 185.102 323.461C186.75 323.461 188.031 322.414 188.031 320.812C188.031 320.25 187.875 319.75 187.609 319.336L188.656 318.453L188.109 317.781L187.047 318.719C186.531 318.305 185.844 318.07 185.078 318.07C183.414 318.07 182.117 319.18 182.117 320.758C182.117 321.461 182.367 322.07 182.797 322.531C182.242 322.914 181.953 323.383 181.953 324.039C181.953 324.828 182.383 325.266 182.977 325.531L181.797 326.609C181.781 326.711 181.773 326.812 181.773 326.953C181.773 328.492 183.07 329.586 185.289 329.586C187.188 329.586 188.547 328.742 188.547 327.219C188.547 325.547 186.891 325.305 185.312 325.062ZM185.109 318.891C186.273 318.891 187.008 319.664 187.008 320.773C187.008 321.859 186.281 322.609 185.102 322.609C183.922 322.609 183.188 321.852 183.188 320.766C183.188 319.672 183.953 318.891 185.109 318.891ZM185.281 328.766C183.867 328.766 182.836 328.172 182.727 327.078C182.719 327 182.711 326.922 182.711 326.828L183.617 325.742C184.055 325.844 184.523 325.906 184.961 325.969C186.445 326.18 187.562 326.328 187.562 327.32C187.562 328.234 186.664 328.766 185.281 328.766ZM190.539 326H191.539V322.016C191.539 319.898 192.773 319.078 193.812 319.078C194.125 319.078 194.43 319.156 194.703 319.305L195.172 318.445C194.836 318.195 194.391 318.07 193.953 318.07C193.023 318.07 191.938 318.625 191.547 319.828V318.195H190.539V326ZM199.203 326.117C200.461 326.117 201.344 325.734 202.219 324.82L201.5 324.188C200.797 324.922 200.148 325.18 199.211 325.18C197.641 325.18 196.734 324.117 196.656 322.375H202.406C202.438 322.258 202.461 321.945 202.461 321.68C202.461 320.133 201.625 318.07 199.078 318.07C196.805 318.07 195.562 319.93 195.562 322.133C195.562 324.375 196.852 326.117 199.203 326.117ZM196.656 321.609C196.789 320.047 197.648 318.953 199.07 318.953C200.617 318.953 201.32 320.062 201.414 321.117C201.438 321.273 201.438 321.445 201.43 321.609H196.656ZM207.594 326.117C208.852 326.117 209.734 325.734 210.609 324.82L209.891 324.188C209.188 324.922 208.539 325.18 207.602 325.18C206.031 325.18 205.125 324.117 205.047 322.375H210.797C210.828 322.258 210.852 321.945 210.852 321.68C210.852 320.133 210.016 318.07 207.469 318.07C205.195 318.07 203.953 319.93 203.953 322.133C203.953 324.375 205.242 326.117 207.594 326.117ZM205.047 321.609C205.18 320.047 206.039 318.953 207.461 318.953C209.008 318.953 209.711 320.062 209.805 321.117C209.828 321.273 209.828 321.445 209.82 321.609H205.047Z" fill="#1A1F23"/>
<circle cx="30" cy="265" r="10" fill="#95A9E8"/>
<circle cx="30" cy="301" r="10" fill="#EDB0A9"/>
<circle cx="153" cy="245" r="10" fill="#FFDCA9"/>
<circle cx="153" cy="275" r="10" fill="#B2E7B2"/>
<circle cx="153" cy="311" r="10" fill="#D293CE"/>
</svg>
