<svg width="69" height="57" viewBox="0 0 69 57" fill="none" xmlns="http://www.w3.org/2000/svg">
<path d="M38.751 4.48705C37.0091 5.41963 35.4586 6.52194 34.2925 7.56745C33.1263 6.52194 31.5758 5.41963 29.8339 4.48705C27.027 2.9843 23.4153 1.75442 19.6781 2.04192C16.8981 2.25579 13.679 3.06378 10.6458 5.19459C7.6012 7.33348 4.88029 10.71 2.95887 15.8338C2.28734 17.6245 1.72283 20.7016 2.14647 24.038C2.57572 27.4187 4.04025 31.1842 7.56089 34.0806L7.57146 34.0893L7.58214 34.0979L20.0821 44.0979L20.1362 44.1411L20.1931 44.1805L33.1541 53.1535L34.2925 53.9416L35.4309 53.1535L48.3918 44.1805L48.4487 44.1411L48.5028 44.0979L61.0028 34.0979L61.1763 33.959L61.3151 33.7855C63.5626 30.9762 64.9461 27.412 65.6312 24.2037C65.9763 22.5878 66.1545 21.015 66.1655 19.6142C66.1761 18.2468 66.029 16.9083 65.6261 15.8338C63.7046 10.71 60.9837 7.33348 57.9391 5.19459C54.906 3.06378 51.6868 2.25579 48.9068 2.04192C45.1696 1.75442 41.5579 2.9843 38.751 4.48705Z" fill="#D44747" stroke="#4F4F4F" stroke-width="4"/>
<path d="M19.2539 7.53613C13.7539 7.53613 7.65391 12.1361 7.25391 22.5361" stroke="#EDEDED" stroke-width="4" stroke-linecap="round"/>
</svg>
