<svg width="104" height="24" viewBox="0 0 104 24" fill="none" xmlns="http://www.w3.org/2000/svg">
<path fill-rule="evenodd" clip-rule="evenodd" d="M52.6692 23.9145C58.468 23.8677 63.1309 19.1289 63.0841 13.3301C63.0373 7.5313 58.2985 2.8684 52.4997 2.91522C46.7009 2.96204 42.038 7.70086 42.0848 13.4997C42.1316 19.2985 46.8704 23.9614 52.6692 23.9145ZM52.6314 19.2363C55.9276 19.2097 58.5784 16.5576 58.5522 13.3127C58.526 10.0678 55.8327 7.45881 52.5366 7.48543C49.2404 7.51204 46.5896 10.1641 46.6158 13.4091C46.642 16.654 49.3353 19.263 52.6314 19.2363Z" fill="#D44747"/>
<path d="M53 4L53 2" stroke="#D44747" stroke-width="4" stroke-linecap="round"/>
<path d="M4 21L16.1747 3.20622C16.5718 2.6258 17.4282 2.6258 17.8253 3.20622L30 21" stroke="#D44747" stroke-width="5" stroke-linecap="round"/>
<path d="M74 21L86.1747 3.20622C86.5718 2.6258 87.4282 2.6258 87.8253 3.20622L100 21" stroke="#D44747" stroke-width="5" stroke-linecap="round"/>
</svg>
