<svg width="281" height="281" viewBox="0 0 281 281" fill="none" xmlns="http://www.w3.org/2000/svg">
<g opacity="0.2">
<rect x="1" y="1" width="11.625" height="279" stroke="#030708" stroke-width="1.08984"/>
<rect x="12.625" y="1" width="11.625" height="279" stroke="#030708" stroke-width="1.08984"/>
<rect x="24.25" y="1" width="11.625" height="279" stroke="#030708" stroke-width="1.08984"/>
<rect x="35.875" y="1" width="11.625" height="279" stroke="#030708" stroke-width="1.08984"/>
<rect x="47.5" y="1" width="11.625" height="279" stroke="#030708" stroke-width="1.08984"/>
<rect x="59.125" y="1" width="11.625" height="279" stroke="#030708" stroke-width="1.08984"/>
<rect x="70.75" y="1" width="11.625" height="279" stroke="#030708" stroke-width="1.08984"/>
<rect x="82.375" y="1" width="11.625" height="279" stroke="#030708" stroke-width="1.08984"/>
<rect x="94" y="1" width="11.625" height="279" stroke="#030708" stroke-width="1.08984"/>
<rect x="105.625" y="1" width="11.625" height="279" stroke="#030708" stroke-width="1.08984"/>
<rect x="117.25" y="1" width="11.625" height="279" stroke="#030708" stroke-width="1.08984"/>
<rect x="128.875" y="1" width="11.625" height="279" stroke="#030708" stroke-width="1.08984"/>
<rect x="140.5" y="1" width="11.625" height="279" stroke="#030708" stroke-width="1.08984"/>
<rect x="152.125" y="1" width="11.625" height="279" stroke="#030708" stroke-width="1.08984"/>
<rect x="163.75" y="1" width="11.625" height="279" stroke="#030708" stroke-width="1.08984"/>
<rect x="175.375" y="1" width="11.625" height="279" stroke="#030708" stroke-width="1.08984"/>
<rect x="187" y="1" width="11.625" height="279" stroke="#030708" stroke-width="1.08984"/>
<rect x="198.625" y="1" width="11.625" height="279" stroke="#030708" stroke-width="1.08984"/>
<rect x="210.25" y="1" width="11.625" height="279" stroke="#030708" stroke-width="1.08984"/>
<rect x="221.875" y="1" width="11.625" height="279" stroke="#030708" stroke-width="1.08984"/>
<rect x="233.5" y="1" width="11.625" height="279" stroke="#030708" stroke-width="1.08984"/>
<rect x="245.125" y="1" width="11.625" height="279" stroke="#030708" stroke-width="1.08984"/>
<rect x="256.75" y="1" width="11.625" height="279" stroke="#030708" stroke-width="1.08984"/>
<rect x="268.375" y="1" width="11.625" height="279" stroke="#030708" stroke-width="1.08984"/>
<rect x="1" y="280" width="11.625" height="279" transform="rotate(-90 1 280)" stroke="#030708" stroke-width="1.08984"/>
<rect x="1" y="268.375" width="11.625" height="279" transform="rotate(-90 1 268.375)" stroke="#030708" stroke-width="1.08984"/>
<rect x="1" y="256.75" width="11.625" height="279" transform="rotate(-90 1 256.75)" stroke="#030708" stroke-width="1.08984"/>
<rect x="1" y="245.125" width="11.625" height="279" transform="rotate(-90 1 245.125)" stroke="#030708" stroke-width="1.08984"/>
<rect x="1" y="233.5" width="11.625" height="279" transform="rotate(-90 1 233.5)" stroke="#030708" stroke-width="1.08984"/>
<rect x="1" y="221.875" width="11.625" height="279" transform="rotate(-90 1 221.875)" stroke="#030708" stroke-width="1.08984"/>
<rect x="1" y="210.25" width="11.625" height="279" transform="rotate(-90 1 210.25)" stroke="#030708" stroke-width="1.08984"/>
<rect x="1" y="198.625" width="11.625" height="279" transform="rotate(-90 1 198.625)" stroke="#030708" stroke-width="1.08984"/>
<rect x="1" y="187" width="11.625" height="279" transform="rotate(-90 1 187)" stroke="#030708" stroke-width="1.08984"/>
<rect x="1" y="175.375" width="11.625" height="279" transform="rotate(-90 1 175.375)" stroke="#030708" stroke-width="1.08984"/>
<rect x="1" y="163.75" width="11.625" height="279" transform="rotate(-90 1 163.75)" stroke="#030708" stroke-width="1.08984"/>
<rect x="1" y="152.125" width="11.625" height="279" transform="rotate(-90 1 152.125)" stroke="#030708" stroke-width="1.08984"/>
<rect x="1" y="140.5" width="11.625" height="279" transform="rotate(-90 1 140.5)" stroke="#030708" stroke-width="1.08984"/>
<rect x="1" y="128.875" width="11.625" height="279" transform="rotate(-90 1 128.875)" stroke="#030708" stroke-width="1.08984"/>
<rect x="1" y="117.25" width="11.625" height="279" transform="rotate(-90 1 117.25)" stroke="#030708" stroke-width="1.08984"/>
<rect x="1" y="105.625" width="11.625" height="279" transform="rotate(-90 1 105.625)" stroke="#030708" stroke-width="1.08984"/>
<rect x="1" y="93.9995" width="11.625" height="279" transform="rotate(-90 1 93.9995)" stroke="#030708" stroke-width="1.08984"/>
<rect x="1" y="82.3755" width="11.625" height="279" transform="rotate(-90 1 82.3755)" stroke="#030708" stroke-width="1.08984"/>
<rect x="1" y="70.75" width="11.625" height="279" transform="rotate(-90 1 70.75)" stroke="#030708" stroke-width="1.08984"/>
<rect x="1" y="59.1245" width="11.625" height="279" transform="rotate(-90 1 59.1245)" stroke="#030708" stroke-width="1.08984"/>
<rect x="1" y="47.5005" width="11.625" height="279" transform="rotate(-90 1 47.5005)" stroke="#030708" stroke-width="1.08984"/>
<rect x="1" y="35.875" width="11.625" height="279" transform="rotate(-90 1 35.875)" stroke="#030708" stroke-width="1.08984"/>
<rect x="1" y="24.2495" width="11.625" height="279" transform="rotate(-90 1 24.2495)" stroke="#030708" stroke-width="1.08984"/>
<rect x="1" y="12.6255" width="11.625" height="279" transform="rotate(-90 1 12.6255)" stroke="#030708" stroke-width="1.08984"/>
</g>
<circle cx="140.5" cy="140.499" r="46.5" stroke="#030708" stroke-width="1.08984"/>
<path d="M1 1H280M1 1V280M1 1L280 280M280 1V280M280 1L1 280M280 280H1" stroke="#030708" stroke-width="1.08984"/>
<g style="mix-blend-mode:multiply">
<ellipse cx="140.5" cy="140.499" rx="116.25" ry="116.25" stroke="#F04925" stroke-width="1.08984"/>
</g>
<g style="mix-blend-mode:multiply">
<rect x="24.25" y="47.5005" width="232.5" height="186" rx="15.2578" stroke="#F04925" stroke-width="1.08984"/>
</g>
<g style="mix-blend-mode:multiply">
<rect x="233.5" y="24.2495" width="232.5" height="186" rx="15.2578" transform="rotate(90 233.5 24.2495)" stroke="#F04925" stroke-width="1.08984"/>
</g>
<g style="mix-blend-mode:multiply">
<rect x="245.125" y="35.875" width="209.25" height="209.25" rx="15.2578" transform="rotate(90 245.125 35.875)" stroke="#F04925" stroke-width="1.08984"/>
</g>
</svg>
