<svg width="211" height="132" viewBox="0 0 211 132" fill="none" xmlns="http://www.w3.org/2000/svg">
<path d="M169.008 69.8547V16.1621" stroke="#D44747" stroke-width="7.91051" stroke-linecap="round"/>
<path d="M169.588 16.5L205.495 57.1981" stroke="#D44747" stroke-width="7.91051" stroke-linecap="round"/>
<path d="M206.088 4V57.4949" stroke="#D44747" stroke-width="7.91051" stroke-linecap="round"/>
<path d="M72.1924 79.4998V104.232" stroke="#D44747" stroke-width="7.91051" stroke-linecap="round"/>
<path d="M71.5012 79.1162L56.0757 56.769" stroke="#D44747" stroke-width="7.91051" stroke-linecap="round"/>
<path d="M72.4895 79.3142L89.6949 44.8046" stroke="#D44747" stroke-width="7.91051" stroke-linecap="round"/>
<path d="M5 75.5811V127.494" stroke="#D44747" stroke-width="7.91051" stroke-linecap="round"/>
<path d="M40.4984 74.9877C34.5991 61.4983 13.3788 70.5774 6.59853 73.9062C5.28771 74.5498 4.51641 75.8995 4.54268 77.3596L4.92414 98.5577C4.96523 100.841 6.9248 102.596 9.18449 102.266C20.2785 100.644 49.0288 94.4929 40.4984 74.9877Z" stroke="#D44747" stroke-width="7.91051" stroke-linecap="round"/>
<path d="M7.9668 105.245L42.2787 114.046" stroke="#D44747" stroke-width="7.91051" stroke-linecap="round"/>
<path d="M107.294 38.1141C107.294 38.1141 103.281 84.7861 124.895 84.7861C153.867 84.7861 144.177 25.3584 144.177 25.3584" stroke="#D44747" stroke-width="7.91051" stroke-linecap="round"/>
</svg>
