<svg width="285" height="284" viewBox="0 0 285 284" fill="none" xmlns="http://www.w3.org/2000/svg">
<g opacity="0.2">
<rect x="1" y="1.00024" width="11.625" height="279" stroke="#030708" stroke-width="1.10547"/>
<rect x="12.625" y="1.00024" width="11.625" height="279" stroke="#030708" stroke-width="1.10547"/>
<rect x="24.25" y="1.00024" width="11.625" height="279" stroke="#030708" stroke-width="1.10547"/>
<rect x="35.875" y="1.00024" width="11.625" height="279" stroke="#030708" stroke-width="1.10547"/>
<rect x="47.5" y="1.00024" width="11.625" height="279" stroke="#030708" stroke-width="1.10547"/>
<rect x="59.125" y="1.00024" width="11.625" height="279" stroke="#030708" stroke-width="1.10547"/>
<rect x="70.75" y="1.00024" width="11.625" height="279" stroke="#030708" stroke-width="1.10547"/>
<rect x="82.375" y="1.00024" width="11.625" height="279" stroke="#030708" stroke-width="1.10547"/>
<rect x="94" y="1.00024" width="11.625" height="279" stroke="#030708" stroke-width="1.10547"/>
<rect x="105.625" y="1.00024" width="11.625" height="279" stroke="#030708" stroke-width="1.10547"/>
<rect x="117.25" y="1.00024" width="11.625" height="279" stroke="#030708" stroke-width="1.10547"/>
<rect x="128.875" y="1.00024" width="11.625" height="279" stroke="#030708" stroke-width="1.10547"/>
<rect x="140.5" y="1.00024" width="11.625" height="279" stroke="#030708" stroke-width="1.10547"/>
<rect x="152.125" y="1.00024" width="11.625" height="279" stroke="#030708" stroke-width="1.10547"/>
<rect x="163.75" y="1.00024" width="11.625" height="279" stroke="#030708" stroke-width="1.10547"/>
<rect x="175.375" y="1.00024" width="11.625" height="279" stroke="#030708" stroke-width="1.10547"/>
<rect x="187" y="1.00024" width="11.625" height="279" stroke="#030708" stroke-width="1.10547"/>
<rect x="198.625" y="1.00024" width="11.625" height="279" stroke="#030708" stroke-width="1.10547"/>
<rect x="210.25" y="1.00024" width="11.625" height="279" stroke="#030708" stroke-width="1.10547"/>
<rect x="221.875" y="1.00024" width="11.625" height="279" stroke="#030708" stroke-width="1.10547"/>
<rect x="233.5" y="1.00024" width="11.625" height="279" stroke="#030708" stroke-width="1.10547"/>
<rect x="245.125" y="1.00024" width="11.625" height="279" stroke="#030708" stroke-width="1.10547"/>
<rect x="256.75" y="1.00024" width="11.625" height="279" stroke="#030708" stroke-width="1.10547"/>
<rect x="268.375" y="1.00024" width="11.625" height="279" stroke="#030708" stroke-width="1.10547"/>
<rect x="1" y="280" width="11.625" height="279" transform="rotate(-90 1 280)" stroke="#030708" stroke-width="1.10547"/>
<rect x="1" y="268.378" width="11.625" height="279" transform="rotate(-90 1 268.378)" stroke="#030708" stroke-width="1.10547"/>
<rect x="1" y="256.747" width="11.625" height="279" transform="rotate(-90 1 256.747)" stroke="#030708" stroke-width="1.10547"/>
<rect x="1" y="245.125" width="11.625" height="279" transform="rotate(-90 1 245.125)" stroke="#030708" stroke-width="1.10547"/>
<rect x="1" y="233.503" width="11.625" height="279" transform="rotate(-90 1 233.503)" stroke="#030708" stroke-width="1.10547"/>
<rect x="1" y="221.872" width="11.625" height="279" transform="rotate(-90 1 221.872)" stroke="#030708" stroke-width="1.10547"/>
<rect x="1" y="210.25" width="11.625" height="279" transform="rotate(-90 1 210.25)" stroke="#030708" stroke-width="1.10547"/>
<rect x="1" y="198.628" width="11.625" height="279" transform="rotate(-90 1 198.628)" stroke="#030708" stroke-width="1.10547"/>
<rect x="1" y="186.997" width="11.625" height="279" transform="rotate(-90 1 186.997)" stroke="#030708" stroke-width="1.10547"/>
<rect x="1" y="175.375" width="11.625" height="279" transform="rotate(-90 1 175.375)" stroke="#030708" stroke-width="1.10547"/>
<rect x="1" y="163.753" width="11.625" height="279" transform="rotate(-90 1 163.753)" stroke="#030708" stroke-width="1.10547"/>
<rect x="1" y="152.122" width="11.625" height="279" transform="rotate(-90 1 152.122)" stroke="#030708" stroke-width="1.10547"/>
<rect x="1" y="140.5" width="11.625" height="279" transform="rotate(-90 1 140.5)" stroke="#030708" stroke-width="1.10547"/>
<rect x="1" y="128.878" width="11.625" height="279" transform="rotate(-90 1 128.878)" stroke="#030708" stroke-width="1.10547"/>
<rect x="1" y="117.247" width="11.625" height="279" transform="rotate(-90 1 117.247)" stroke="#030708" stroke-width="1.10547"/>
<rect x="1" y="105.625" width="11.625" height="279" transform="rotate(-90 1 105.625)" stroke="#030708" stroke-width="1.10547"/>
<rect x="1" y="94.0029" width="11.625" height="279" transform="rotate(-90 1 94.0029)" stroke="#030708" stroke-width="1.10547"/>
<rect x="1" y="82.3723" width="11.625" height="279" transform="rotate(-90 1 82.3723)" stroke="#030708" stroke-width="1.10547"/>
<rect x="1" y="70.7502" width="11.625" height="279" transform="rotate(-90 1 70.7502)" stroke="#030708" stroke-width="1.10547"/>
<rect x="1" y="59.1279" width="11.625" height="279" transform="rotate(-90 1 59.1279)" stroke="#030708" stroke-width="1.10547"/>
<rect x="1" y="47.4973" width="11.625" height="279" transform="rotate(-90 1 47.4973)" stroke="#030708" stroke-width="1.10547"/>
<rect x="1" y="35.8752" width="11.625" height="279" transform="rotate(-90 1 35.8752)" stroke="#030708" stroke-width="1.10547"/>
<rect x="1" y="24.2529" width="11.625" height="279" transform="rotate(-90 1 24.2529)" stroke="#030708" stroke-width="1.10547"/>
<rect x="1" y="12.6223" width="11.625" height="279" transform="rotate(-90 1 12.6223)" stroke="#030708" stroke-width="1.10547"/>
</g>
<ellipse cx="140.5" cy="140.503" rx="46.5" ry="46.5" stroke="#030708" stroke-width="1.10547"/>
<path d="M1 1H280M1 1V280M1 1L280 280M280 1V280M280 1L1 280M280 280H1" stroke="#030708" stroke-width="1.10547"/>
<g style="mix-blend-mode:multiply">
<ellipse cx="140.5" cy="140.503" rx="116.25" ry="116.25" stroke="#F04925" stroke-width="1.10547"/>
</g>
<g style="mix-blend-mode:multiply">
<rect x="24.25" y="47.4973" width="232.5" height="186" rx="15.4766" stroke="#F04925" stroke-width="1.10547"/>
</g>
<g style="mix-blend-mode:multiply">
<rect x="233.5" y="24.2529" width="232.5" height="186" rx="15.4766" transform="rotate(90 233.5 24.2529)" stroke="#F04925" stroke-width="1.10547"/>
</g>
<g style="mix-blend-mode:multiply">
<rect x="245.125" y="35.875" width="209.25" height="209.25" rx="15.4766" transform="rotate(90 245.125 35.875)" stroke="#F04925" stroke-width="1.10547"/>
</g>
<path d="M25.583 118.94C25.583 112.427 30.8623 107.148 37.3747 107.148H84.5413C91.0537 107.148 96.333 112.427 96.333 118.94V166.106C96.333 172.619 91.0537 177.898 84.5413 177.898H37.3747C30.8623 177.898 25.583 172.619 25.583 166.106V118.94Z" fill="black"/>
<path d="M121.096 38.7562C124.495 34.2235 131.708 36.6278 131.708 42.2937V240.747C131.708 246.376 124.571 248.804 121.139 244.342L62.1807 167.696C61.3879 166.665 60.958 165.401 60.958 164.101V120.905C60.958 119.629 61.3718 118.388 62.1372 117.367L121.096 38.7562Z" fill="black"/>
<path fill-rule="evenodd" clip-rule="evenodd" d="M121.096 38.7562C124.495 34.2235 131.708 36.6278 131.708 42.2937V240.747C131.708 246.376 124.571 248.804 121.139 244.342L62.1807 167.696C61.3879 166.665 60.958 165.401 60.958 164.101V120.905C60.958 119.629 61.3718 118.388 62.1372 117.367L121.096 38.7562ZM108.125 95.3562L84.5413 126.801V158.085L108.125 188.743V95.3562Z" fill="black"/>
<path fill-rule="evenodd" clip-rule="evenodd" d="M156.618 89.9225C159.619 84.1428 166.737 81.8902 172.517 84.8912L167.083 95.3562C172.517 84.8912 172.524 84.8949 172.531 84.8986L172.546 84.9063L172.577 84.9227L172.646 84.9593L172.811 85.0481C172.932 85.1144 173.076 85.1948 173.241 85.29C173.57 85.4802 173.985 85.7298 174.473 86.0432C175.448 86.6697 176.717 87.5543 178.177 88.7341C181.1 91.0944 184.801 94.6459 188.434 99.6771C195.802 109.879 202.458 125.567 202.458 148.419C202.458 171.271 195.802 186.959 188.434 197.16C184.801 202.192 181.1 205.743 178.177 208.103C176.717 209.283 175.448 210.168 174.473 210.794C173.985 211.108 173.57 211.357 173.241 211.548C173.076 211.643 172.932 211.723 172.811 211.789L172.646 211.878L172.577 211.915L172.546 211.931L172.531 211.939C172.524 211.943 172.517 211.946 167.083 201.481L172.517 211.946C166.737 214.947 159.619 212.695 156.618 206.915C153.648 201.194 155.825 194.161 161.475 191.108C161.513 191.086 161.596 191.036 161.72 190.956C162.035 190.754 162.609 190.363 163.359 189.757C164.859 188.546 167.054 186.485 169.316 183.353C173.74 177.227 178.875 166.384 178.875 148.419C178.875 130.453 173.74 119.61 169.316 113.485C167.054 110.353 164.859 108.292 163.359 107.081C162.609 106.475 162.035 106.084 161.72 105.881C161.596 105.801 161.512 105.751 161.475 105.729C155.825 102.677 153.648 95.6437 156.618 89.9225Z" fill="black"/>
<path fill-rule="evenodd" clip-rule="evenodd" d="M191.62 67.1279C194.185 61.1421 201.117 58.3693 207.103 60.9347L202.458 71.7729C207.103 60.9347 207.11 60.9375 207.116 60.9404L207.131 60.9465L207.162 60.9601L207.236 60.9925L207.43 61.0789C207.579 61.1461 207.767 61.2328 207.991 61.3397C208.44 61.5535 209.036 61.8488 209.758 62.2319C211.201 62.9974 213.155 64.1183 215.448 65.6465C220.025 68.6981 226.011 73.414 231.968 80.2216C244.037 94.0155 255.521 115.894 255.521 148.419C255.521 180.944 244.037 202.822 231.968 216.616C226.011 223.423 220.025 228.139 215.448 231.191C213.155 232.719 211.201 233.84 209.758 234.606C209.036 234.989 208.44 235.284 207.991 235.498C207.767 235.605 207.579 235.691 207.43 235.759L207.236 235.845L207.162 235.877L207.131 235.891L207.116 235.897C207.11 235.9 207.103 235.903 202.458 225.065L207.103 235.903C201.117 238.468 194.185 235.695 191.62 229.71C189.067 223.752 191.801 216.857 197.729 214.263L197.852 214.205C198.008 214.131 198.298 213.989 198.705 213.773C199.519 213.341 200.789 212.62 202.366 211.568C205.527 209.461 209.858 206.07 214.219 201.086C222.785 191.297 231.937 174.852 231.937 148.419C231.937 121.986 222.785 105.541 214.219 95.7513C209.858 90.7672 205.527 87.3763 202.366 85.2691C200.789 84.2179 199.519 83.4963 198.705 83.0642C198.298 82.8485 198.008 82.7062 197.852 82.6322L197.729 82.5745C191.801 79.9804 189.067 73.0855 191.62 67.1279Z" fill="black"/>
</svg>
