<svg width="1216" height="38" viewBox="0 0 1216 38" fill="none" xmlns="http://www.w3.org/2000/svg">
<path fill-rule="evenodd" clip-rule="evenodd" d="M1193.45 3.1665C1199.9 3.1665 1205.12 8.48345 1205.12 15.0422C1205.13 17.2875 1204.5 19.4884 1203.32 21.3811L1212.14 30.3249C1213.14 31.3602 1213.14 33.0286 1212.14 34.0638C1211.65 34.5622 1210.99 34.8403 1210.3 34.8351C1209.61 34.8335 1208.95 34.5565 1208.46 34.0638L1199.68 25.0843C1197.82 26.2922 1195.66 26.9289 1193.45 26.918C1187.01 26.918 1181.79 21.601 1181.79 15.0422C1181.79 8.48345 1187.01 3.1665 1193.45 3.1665ZM1193.45 22.9598C1197.75 22.9598 1201.23 19.4151 1201.23 15.0426C1201.23 10.6701 1197.75 7.12545 1193.45 7.12545C1189.16 7.12545 1185.68 10.6701 1185.68 15.0426C1185.69 19.4116 1189.16 22.9513 1193.45 22.9598Z" fill="#1A1F23"/>
<path fill-rule="evenodd" clip-rule="evenodd" d="M1061.91 22.7401L1048.5 9.66694C1048.26 9.44392 1047.89 9.44392 1047.65 9.66694L1034.24 22.7401C1034.01 22.969 1034.01 23.334 1034.24 23.5629L1038.3 27.5231C1038.54 27.7462 1038.91 27.7462 1039.15 27.5231L1048.07 18.8239L1056.99 27.5407C1057.22 27.7638 1057.59 27.7638 1057.83 27.5407L1061.89 23.5805C1062.11 23.3472 1062.11 22.991 1061.89 22.7577L1061.91 22.7401Z" fill="#1A1F23"/>
<path fill-rule="evenodd" clip-rule="evenodd" d="M968.974 33.1027L981.813 19.4416C982.032 19.2024 982.032 18.821 981.813 18.5817L968.974 4.92527C968.749 4.69223 968.39 4.69223 968.166 4.92527L964.276 9.0636C964.057 9.30284 964.057 9.6842 964.276 9.92345L972.82 19.0094L964.259 28.0861C964.04 28.3253 964.04 28.7067 964.259 28.946L968.148 33.0843C968.377 33.3059 968.727 33.3059 968.956 33.0843L968.974 33.1027Z" fill="#1A1F23"/>
<path fill-rule="evenodd" clip-rule="evenodd" d="M1126.38 33.1027L1113.54 19.4416C1113.32 19.2024 1113.32 18.821 1113.54 18.5817L1126.38 4.92527C1126.6 4.69223 1126.96 4.69223 1127.18 4.92527L1131.07 9.0636C1131.29 9.30284 1131.29 9.6842 1131.07 9.92345L1122.53 19.0094L1131.09 28.0861C1131.31 28.3253 1131.31 28.7067 1131.09 28.946L1127.2 33.0843C1126.97 33.3059 1126.62 33.3059 1126.39 33.0843L1126.38 33.1027Z" fill="#1A1F23"/>
<path fill-rule="evenodd" clip-rule="evenodd" d="M912.634 15.2594L899.218 28.3326C898.983 28.5556 898.609 28.5556 898.374 28.3326L884.962 15.2594C884.733 15.0305 884.733 14.6655 884.962 14.4366L889.026 10.4764C889.261 10.2534 889.635 10.2534 889.87 10.4764L898.794 19.1757L907.708 10.4588C907.943 10.2358 908.317 10.2358 908.552 10.4588L912.616 14.419C912.834 14.6523 912.834 15.0085 912.616 15.2418L912.634 15.2594Z" fill="#1A1F23"/>
<path fill-rule="evenodd" clip-rule="evenodd" d="M34.2098 18.9998C34.2098 27.7443 27.248 34.8332 18.6601 34.8332C10.0722 34.8332 3.11035 27.7443 3.11035 18.9998C3.11035 10.2553 10.0722 3.1665 18.6601 3.1665C22.7841 3.1665 26.7393 4.83465 29.6554 7.80398C32.5716 10.7733 34.2098 14.8006 34.2098 18.9998ZM25.7826 14.3775C25.7826 10.4192 22.5774 7.78884 18.6598 7.78884C14.7423 7.78884 12.1741 11.0832 12.1741 11.0832L14.7724 13.7289C14.7724 13.7289 16.7186 11.7472 18.6598 11.7472C20.601 11.7472 21.8952 13.0598 21.8952 14.3775C21.8952 17.0232 16.7186 17.0232 16.7186 20.9816V22.2942H20.6061V21.6456C20.6061 19.6638 25.7826 19.6638 25.7826 14.3775ZM21.2682 28.2345C21.271 26.774 20.1109 25.5874 18.6766 25.5837C17.2422 25.5799 16.0762 26.7604 16.0716 28.2209C16.067 29.6814 17.2255 30.8694 18.6599 30.8751C19.3502 30.8792 20.0134 30.6017 20.5016 30.1047C20.9897 29.6076 21.2622 28.9323 21.2582 28.2294L21.2682 28.2345Z" fill="#1A1F23"/>
<path fill-rule="evenodd" clip-rule="evenodd" d="M116.221 26.2204L112.575 29.9323C112.363 30.1287 112.039 30.1287 111.827 29.9323L105.481 23.4823L99.1341 29.9364C98.9219 30.1328 98.5979 30.1328 98.3858 29.9364L94.7403 26.2245C94.5475 26.0085 94.5475 25.6786 94.7403 25.4625L101.079 19.0003L94.7403 12.5381C94.5475 12.3221 94.5475 11.9922 94.7403 11.7762L98.3858 8.06427C98.5979 7.8679 98.9219 7.8679 99.1341 8.06427L105.481 14.5183L111.827 8.06427C112.039 7.8679 112.363 7.8679 112.575 8.06427L116.221 11.7762C116.414 11.9922 116.414 12.3221 116.221 12.5381L109.882 19.0003L116.221 25.4625C116.309 25.5686 116.36 25.7022 116.365 25.8415C116.36 25.9807 116.309 26.1143 116.221 26.2204Z" fill="#1A1F23"/>
<path fill-rule="evenodd" clip-rule="evenodd" d="M187.271 30.2923L192.066 35.1747C192.218 35.2989 192.304 35.4876 192.3 35.6856C192.302 35.8801 192.226 36.0671 192.091 36.2046C191.956 36.3421 191.773 36.4187 191.582 36.4171H175.914C175.723 36.4187 175.539 36.3421 175.404 36.2046C175.269 36.0671 175.194 35.8801 175.196 35.6856V19.7321C175.189 19.4321 175.359 19.1572 175.629 19.0354C175.902 18.9468 176.201 19.0107 176.416 19.2038L181.211 24.121L187.271 17.9962C187.399 17.8581 187.578 17.7798 187.764 17.7798C187.951 17.7798 188.129 17.8581 188.258 17.9962L193.286 23.1167C193.445 23.2427 193.533 23.4404 193.52 23.645C193.522 23.8328 193.435 24.0102 193.286 24.121L187.271 30.2923ZM209.404 18.2692C209.411 18.5693 209.24 18.8441 208.971 18.9659C208.878 18.9944 208.782 19.0062 208.686 19.0007C208.5 18.9954 208.322 18.9234 208.184 18.7976L203.389 13.8803L197.328 20.0573C197.199 20.1745 197.033 20.2404 196.861 20.2431C196.671 20.2501 196.486 20.1837 196.342 20.0573L191.262 14.8846C190.995 14.6051 190.995 14.1598 191.262 13.8803L197.328 7.70901L192.499 2.82657C192.309 2.60768 192.247 2.30349 192.334 2.02541C192.453 1.75116 192.723 1.57711 193.018 1.58419H208.686C208.877 1.58263 209.06 1.6592 209.195 1.79672C209.33 1.93424 209.405 2.12121 209.404 2.31569V18.2692Z" fill="#1A1F23"/>
<path fill-rule="evenodd" clip-rule="evenodd" d="M276.299 33.052L268.366 25.4187H262.761C262.563 25.4201 262.372 25.3451 262.232 25.2103C262.092 25.0755 262.014 24.8923 262.016 24.7017V13.3069C262.014 13.1163 262.092 12.933 262.232 12.7982C262.372 12.6635 262.563 12.5884 262.761 12.5899H268.366L276.299 4.95658C276.514 4.753 276.835 4.69421 277.112 4.80766C277.389 4.91303 277.569 5.17209 277.565 5.45848V32.5501C277.569 32.8364 277.389 33.0955 277.112 33.2009C277.019 33.2332 276.92 33.25 276.82 33.2505C276.626 33.2534 276.438 33.182 276.299 33.052ZM282.682 30.5628L280.658 28.5051C280.39 28.2185 280.39 27.7684 280.658 27.4819C285.252 22.7991 285.252 15.2084 280.658 10.5256C280.39 10.239 280.39 9.78889 280.658 9.50233L282.677 7.44464C282.808 7.30511 282.989 7.22621 283.179 7.22621C283.369 7.22621 283.55 7.30511 283.681 7.44464C289.945 13.829 289.945 24.1784 283.681 30.5628C283.55 30.7006 283.37 30.7783 283.182 30.7783C282.994 30.7783 282.813 30.7006 282.682 30.5628ZM286.209 34.1551C285.941 33.8685 285.941 33.4184 286.209 33.1319C293.86 25.3244 293.86 12.6769 286.209 4.86945C285.941 4.58289 285.941 4.13278 286.209 3.84622L288.228 1.78852C288.509 1.5158 288.951 1.5158 289.232 1.78852C298.556 11.2963 298.556 26.705 289.232 36.2128C288.951 36.4855 288.509 36.4855 288.228 36.2128L286.209 34.1551Z" fill="#1A1F23"/>
<path fill-rule="evenodd" clip-rule="evenodd" d="M383.717 19.4602L373.658 33.1389L373.644 33.1205C373.465 33.3424 373.19 33.3424 373.011 33.1205L369.964 28.9768C369.792 28.7373 369.792 28.3554 369.964 28.1159L376.671 19.0274L369.977 9.92967C369.805 9.69011 369.805 9.30826 369.977 9.0687L373.024 4.92501C373.201 4.69166 373.481 4.69166 373.658 4.92501L383.717 18.5992C383.889 18.8387 383.889 19.2206 383.717 19.4602ZM348.062 19.4603L358.122 33.1391L358.136 33.1207C358.315 33.3426 358.589 33.3426 358.769 33.1207L361.816 28.977C361.988 28.7375 361.988 28.3556 361.816 28.116L355.109 19.0276L361.803 9.92985C361.974 9.6903 361.974 9.30844 361.803 9.06889L358.755 4.9252C358.579 4.69185 358.298 4.69185 358.122 4.9252L348.062 18.5994C347.891 18.8389 347.891 19.2208 348.062 19.4603Z" fill="#1A1F23"/>
<path fill-rule="evenodd" clip-rule="evenodd" d="M460.425 22.1672C462.118 22.1672 463.559 22.773 464.749 23.9846C465.939 25.1963 466.534 26.6639 466.534 28.3874C466.534 30.1109 465.939 31.5785 464.749 32.7902C463.559 34.0018 462.118 34.6076 460.425 34.6076C458.733 34.6076 457.291 34.0018 456.102 32.7902C454.912 31.5785 454.317 30.1109 454.317 28.3874C454.317 28.2319 454.329 28.0116 454.355 27.7265L447.482 24.2276C446.312 25.3421 444.924 25.8993 443.321 25.8993C441.628 25.8993 440.187 25.2935 438.997 24.0818C437.807 22.8702 437.212 21.4026 437.212 19.6791C437.212 17.9555 437.807 16.488 438.997 15.2763C440.187 14.0646 441.628 13.4588 443.321 13.4588C444.924 13.4588 446.312 14.016 447.482 15.1305L454.355 11.6316C454.329 11.3465 454.317 11.1262 454.317 10.9707C454.317 9.24719 454.912 7.77962 456.102 6.56796C457.291 5.35631 458.733 4.75049 460.425 4.75049C462.118 4.75049 463.559 5.35631 464.749 6.56796C465.939 7.77962 466.534 9.24719 466.534 10.9707C466.534 12.6943 465.939 14.1618 464.749 15.3735C463.559 16.5851 462.118 17.191 460.425 17.191C458.822 17.191 457.435 16.6337 456.264 15.5193L449.391 19.0182C449.417 19.3033 449.43 19.5236 449.43 19.6791C449.43 19.8346 449.417 20.0549 449.391 20.34L456.264 23.8388C457.435 22.7244 458.822 22.1672 460.425 22.1672Z" fill="#1A1F23"/>
<path fill-rule="evenodd" clip-rule="evenodd" d="M556.687 29.3402C556.688 29.6417 556.517 29.9154 556.251 30.0379C556.163 30.071 556.069 30.0847 555.975 30.0779C555.787 30.0715 555.606 29.9989 555.462 29.872L547.357 22.3189V27.9407C547.36 28.5301 547.135 29.0963 546.733 29.5131C546.331 29.9299 545.785 30.1627 545.216 30.1596L524.613 30.0836C524.045 30.0852 523.5 29.8517 523.099 29.4351C522.698 29.0184 522.475 28.4531 522.478 27.8647V10.136C522.475 9.54654 522.699 8.98036 523.101 8.56356C523.503 8.14676 524.05 7.91396 524.618 7.91702L545.222 7.99299C545.79 7.99146 546.334 8.22493 546.735 8.64157C547.136 9.0582 547.36 9.6235 547.357 10.2119V15.8337L555.462 8.13434C555.679 7.93604 555.982 7.87283 556.257 7.96849C556.518 8.09179 556.687 8.36233 556.687 8.66048V29.3402Z" fill="#1A1F23"/>
<path d="M641.489 17.8796L627.494 3.62963C626.887 3.01213 625.908 3.01213 625.301 3.62963L611.306 17.8796C610.7 18.4971 610.7 19.4946 611.306 20.1121L625.301 34.3621C625.908 34.9796 626.887 34.9796 627.494 34.3621L641.489 20.1121C642.095 19.5105 642.095 18.513 641.489 17.8796ZM629.5 22.9621V19.0038H623.28V23.7538H620.17V17.4205C620.17 16.5496 620.87 15.8371 621.725 15.8371H629.5V11.8788L634.942 17.4205L629.5 22.9621Z" fill="#1A1F23"/>
<path fill-rule="evenodd" clip-rule="evenodd" d="M715.401 2.4508C714.185 1.21301 712.214 1.21301 710.999 2.4508L696.969 16.736C695.754 17.9737 695.754 19.9806 696.969 21.2184L710.999 35.5035C712.214 36.7413 714.185 36.7413 715.401 35.5035L729.43 21.2184C730.646 19.9806 730.646 17.9738 729.43 16.736L715.401 2.4508ZM711.25 20.751H715.155V9.50014H711.25V20.751ZM715.802 26.7102C715.802 25.2474 714.636 24.0616 713.199 24.0616C711.761 24.0616 710.595 25.2474 710.595 26.7102C710.595 28.1729 711.761 29.3587 713.199 29.3587C714.636 29.3587 715.802 28.1729 715.802 26.7102Z" fill="#1A1F23"/>
<path d="M815.684 18.263H819.076V30.624H800.605V18.263H804.061V14.0852H799.663C797.928 14.0852 796.521 15.4916 796.521 17.2265V31.5194C796.521 33.2543 797.928 34.6607 799.663 34.6607C801.398 34.6607 818.346 34.6607 820.081 34.6607C821.816 34.6607 823.223 33.2543 823.223 31.5194C823.223 29.7845 823.223 17.2265 823.223 17.2265C823.223 15.4916 821.816 14.0852 820.081 14.0852H815.684V18.263Z" fill="#1A1F23"/>
<path d="M809.316 1.47432C809.602 1.11989 810.142 1.11989 810.428 1.47432L817.775 10.5771C818.152 11.0445 817.819 11.7405 817.218 11.7405H802.526C801.925 11.7405 801.592 11.0445 801.97 10.5771L809.316 1.47432Z" fill="#1A1F23"/>
<path d="M806.955 11.7012H812.789V25.0518H806.955V11.7012Z" fill="#1A1F23"/>
</svg>
