<svg width="1440" height="452" viewBox="0 0 1440 452" fill="none" xmlns="http://www.w3.org/2000/svg">
<g clip-path="url(#clip0_229_21495)">
<rect width="1440" height="452" fill="#4E7B11"/>
<g filter="url(#filter0_d_229_21495)">
<mask id="mask0_229_21495" style="mask-type:alpha" maskUnits="userSpaceOnUse" x="42" y="-105" width="1357" height="618">
<g clip-path="url(#clip1_229_21495)">
<path d="M1166.77 118.243C1161.05 109.988 1163.11 98.6643 1171.37 92.9507L1231.16 51.569C1239.41 45.8554 1250.74 47.9157 1256.45 56.1709L1318.52 145.855C1324.24 154.11 1322.18 165.434 1313.92 171.148L1254.13 212.53C1245.88 218.243 1234.55 216.183 1228.84 207.928L1166.77 118.243Z" fill="#5E980F"/>
<path d="M1180.57 42.3651C1172.32 48.0787 1170.26 59.4027 1175.97 67.6579L1235.76 26.2762C1244.02 20.5626 1255.34 22.623 1261.05 30.8782L1333.47 135.51C1341.73 129.796 1343.79 118.472 1338.07 110.217L1265.65 5.58532C1259.94 -2.66988 1248.62 -4.73025 1240.36 0.983375L1180.57 42.3651Z" fill="#5E980F"/>
</g>
<path d="M293.836 64.86C306.913 72.3745 305.955 90.694 292.166 96.8034L162.841 154.103C149.836 159.865 134.997 150.329 135.711 136.668L142.394 8.89184C143.108 -4.76849 158.861 -12.7046 171.194 -5.61726L293.836 64.86Z" fill="#5E980F"/>
<path d="M81.6393 316.847C76.8586 314.493 74.8911 308.709 77.2447 303.929C79.5983 299.148 85.3818 297.181 90.1625 299.534L275.406 390.732C280.187 393.086 282.154 398.869 279.801 403.65C277.447 408.431 271.663 410.398 266.883 408.045L81.6393 316.847Z" fill="#5E980F"/>
<path d="M232.779 265.429C235.132 260.648 233.165 254.865 228.384 252.511C223.603 250.158 217.82 252.125 215.466 256.906L124.268 442.149C121.914 446.93 123.882 452.714 128.662 455.067C133.443 457.421 139.227 455.453 141.58 450.673L232.779 265.429Z" fill="#5E980F"/>
<path d="M1063.13 311.257C1064.34 316.145 1061.36 321.09 1056.47 322.302L1029.92 328.886C1020.15 331.31 1014.19 341.2 1016.61 350.976L1038.56 439.475C1040.98 449.251 1050.87 455.21 1060.65 452.786L1149.15 430.838C1158.92 428.414 1164.88 418.524 1162.46 408.749L1155.87 382.199C1154.66 377.311 1157.64 372.366 1162.53 371.154C1167.42 369.942 1172.36 372.922 1173.57 377.809L1184.55 422.059C1186.97 431.835 1181.01 441.724 1171.24 444.149L1047.34 474.875C1037.56 477.299 1027.67 471.34 1025.25 461.565L994.522 337.665C992.098 327.89 998.057 318 1007.83 315.576L1052.08 304.602C1056.97 303.39 1061.92 306.37 1063.13 311.257Z" fill="#5E980F"/>
<path d="M1108.18 327.607C1111.43 322.215 1118.43 320.478 1123.82 323.727C1129.21 326.976 1130.95 333.98 1127.7 339.372L1104.67 377.602C1101.42 382.993 1094.41 384.73 1089.02 381.482C1083.63 378.233 1081.89 371.228 1085.14 365.837L1108.18 327.607Z" fill="#5E980F"/>
<path d="M1140.37 288.983C1143.28 287.66 1146.62 289.669 1146.81 292.861L1150.06 347.169C1150.28 350.833 1146.3 353.241 1143.16 351.347L1090.37 319.537C1087.22 317.642 1087.49 312.999 1090.84 311.481L1140.37 288.983Z" fill="#5E980F"/>
<g clip-path="url(#clip2_229_21495)">
<path d="M618.33 -4.22588C625.031 -9.08339 634.402 -7.58851 639.259 -0.886967C644.117 5.81457 642.622 15.185 635.92 20.0425L597.091 48.1875C590.389 53.045 581.019 51.5501 576.161 44.8486C571.304 38.1471 572.799 28.7766 579.5 23.9191L618.33 -4.22588Z" fill="#5E980F"/>
<path d="M679.28 -34.4964C682.45 -34.5758 684.714 -31.4518 683.652 -28.464L658.043 43.6055C656.824 47.0348 652.259 47.6915 650.123 44.7448L599.273 -25.4102C597.137 -28.3569 599.181 -32.4908 602.819 -32.5819L679.28 -34.4964Z" fill="#5E980F"/>
<path d="M512.014 108.787C505.313 113.644 495.944 112.149 491.087 105.448C486.23 98.7474 487.725 89.3781 494.426 84.5212L533.276 56.3608C539.977 51.5039 549.346 52.9986 554.203 59.6993C559.06 66.4 557.566 75.7693 550.865 80.6262L512.014 108.787Z" fill="#5E980F"/>
<path d="M451.055 139.066C447.885 139.146 445.62 136.021 446.682 133.033L472.31 60.9552C473.53 57.5265 478.094 56.8703 480.229 59.8167L531.075 129.965C533.211 132.911 531.167 137.045 527.529 137.136L451.055 139.066Z" fill="#5E980F"/>
</g>
<path fill-rule="evenodd" clip-rule="evenodd" d="M973.643 97.9082C1000.12 70.5697 999.415 26.9464 972.077 0.472704C944.738 -26.001 901.115 -25.2999 874.641 2.03854C848.168 29.377 848.869 73.0004 876.207 99.474C903.546 125.948 947.169 125.247 973.643 97.9082ZM986.018 109.892C1019.11 75.7188 1018.23 21.1896 984.061 -11.9025C949.887 -44.9946 895.358 -44.1182 862.266 -9.94516C829.174 24.2279 830.05 78.7571 864.223 111.849C898.397 144.941 952.926 144.065 986.018 109.892Z" fill="#5E980F"/>
<path fill-rule="evenodd" clip-rule="evenodd" d="M953.318 -29.6823L845.465 81.6942L857.84 93.6779L965.694 -17.6986L953.318 -29.6823Z" fill="#5E980F"/>
<path fill-rule="evenodd" clip-rule="evenodd" d="M990.444 6.26883L882.591 117.645L894.966 129.629L1002.82 18.2525L990.444 6.26883Z" fill="#5E980F"/>
<path fill-rule="evenodd" clip-rule="evenodd" d="M972.826 76.1752C968.111 62.752 957.7 46.4996 942.118 31.4106C926.536 16.3216 909.957 6.43773 896.389 2.15612C881.723 -2.47219 875.93 0.707869 874.641 2.03854C873.353 3.36922 870.361 9.26148 875.458 23.7716C880.173 37.1948 890.585 53.4471 906.166 68.5361C921.748 83.6251 938.327 93.509 951.895 97.7906C966.561 102.419 972.354 99.2389 973.643 97.9082C974.931 96.5775 977.924 90.6853 972.826 76.1752ZM986.018 109.892C1002.56 92.8054 988.274 52.1275 954.101 19.0355C919.928 -14.0566 878.812 -27.0317 862.266 -9.94516C845.72 7.14138 860.01 47.8192 894.183 80.9113C928.356 114.003 969.472 126.978 986.018 109.892Z" fill="#5E980F"/>
<path d="M556.961 326.345C557.681 324.664 559.334 323.574 561.163 323.574H628.282C630.111 323.574 631.764 324.664 632.484 326.345L642.281 349.204C643.574 352.221 641.361 355.577 638.079 355.577H551.366C548.084 355.577 545.871 352.221 547.164 349.204L556.961 326.345Z" fill="#5E980F"/>
<path fill-rule="evenodd" clip-rule="evenodd" d="M521.574 351.005C511.474 351.005 503.287 359.192 503.287 369.292V451.584C503.287 461.683 511.474 469.871 521.574 469.871H667.871C677.971 469.871 686.158 461.683 686.158 451.584V369.292C686.158 359.192 677.971 351.005 667.871 351.005H521.574ZM594.723 442.44C614.922 442.44 631.297 426.065 631.297 405.866C631.297 385.667 614.922 369.292 594.723 369.292C574.523 369.292 558.148 385.667 558.148 405.866C558.148 426.065 574.523 442.44 594.723 442.44Z" fill="#5E980F"/>
</mask>
<g mask="url(#mask0_229_21495)">
<rect y="-1" width="1440" height="453" fill="#5E980F"/>
</g>
</g>
<g opacity="0.5" filter="url(#filter1_d_229_21495)">
<path d="M0 0H1440V452H0V0Z" fill="black"/>
<path d="M0.5 0.5H1439.5V451.5H0.5V0.5Z" stroke="black"/>
</g>
<path fill-rule="evenodd" clip-rule="evenodd" d="M779.22 236.494C779.224 247.37 786.913 255.228 797.749 255.232C808.591 255.228 816.275 247.37 816.279 236.494C816.279 225.6 808.591 217.751 797.749 217.746C786.908 217.751 779.224 225.604 779.22 236.494V236.494ZM797.748 221.666C806.503 221.684 811.926 228.347 811.939 236.493C811.926 244.631 806.503 251.299 797.748 251.308C788.994 251.299 783.571 244.631 783.558 236.493C783.571 228.347 788.994 221.684 797.748 221.666V221.666Z" fill="white"/>
<path fill-rule="evenodd" clip-rule="evenodd" d="M824.098 254.299H828.437V224.107H836.732V220.178H828.437V211.427C828.442 204.963 830.48 201.746 834.792 201.733C836.487 201.733 837.771 201.949 838.846 202.45L839.702 198.683C838.364 198.101 836.723 197.808 834.56 197.808C830.078 197.822 824.102 200.542 824.093 209.717V220.178H816.722V224.107H823.96H824.093V254.299H824.098Z" fill="white"/>
<path fill-rule="evenodd" clip-rule="evenodd" d="M850.354 226.935C850.359 243.648 861.807 255.697 878.33 255.702C894.853 255.697 906.3 243.648 906.305 226.935C906.3 210.217 894.853 198.177 878.33 198.173C861.807 198.173 850.359 210.217 850.354 226.935V226.935ZM878.329 202.557C885.469 202.557 891.262 205.219 895.28 209.599C899.285 213.975 901.505 220.074 901.505 226.939C901.505 233.805 899.285 239.895 895.28 244.284C891.271 248.655 885.473 251.317 878.338 251.317C878.338 251.317 878.333 251.317 878.329 251.317C871.189 251.317 865.391 248.66 861.378 244.284C857.369 239.895 855.152 233.81 855.152 226.939C855.152 220.078 857.373 213.975 861.378 209.599C865.391 205.219 871.193 202.557 878.329 202.557V202.557Z" fill="white"/>
<path fill-rule="evenodd" clip-rule="evenodd" d="M916.951 224.901L916.777 225.212L916.701 224.864C916.541 224.138 916.469 221.292 916.393 218.675H912.05C912.063 220.656 912.433 226.055 912.433 228.64V254.299H916.773V234.856C916.781 227.824 920.443 222.149 928.506 222.135C928.943 222.135 929.514 222.203 930.156 222.406L930.66 218.102C929.79 217.886 928.987 217.746 928.118 217.746C922.873 217.746 919.239 220.732 916.951 224.901V224.901Z" fill="white"/>
<path fill-rule="evenodd" clip-rule="evenodd" d="M951.699 217.746C945.991 217.742 941.504 220.98 939.685 224.896L939.649 224.973H939.564H939.225L939.203 224.869C939.043 224.138 938.971 221.296 938.895 218.68H934.552C934.57 220.656 934.935 226.06 934.935 228.645V254.303H939.274V236.498C939.288 226.574 944.795 221.689 951.699 221.671C959.093 221.689 960.739 227.476 960.743 233.309V254.303H965.082V233.074C965.064 225.239 962.679 217.76 951.699 217.746V217.746Z" fill="white"/>
<path fill-rule="evenodd" clip-rule="evenodd" d="M974.681 204.191C974.681 206.059 976.152 207.548 978.003 207.548C979.849 207.548 981.321 206.059 981.326 204.191C981.321 202.319 979.845 200.831 978.003 200.826C976.157 200.831 974.681 202.319 974.681 204.191V204.191Z" fill="white"/>
<path fill-rule="evenodd" clip-rule="evenodd" d="M975.83 236.598V254.299H980.174V236.598V218.68H975.83V236.598Z" fill="white"/>
<path fill-rule="evenodd" clip-rule="evenodd" d="M1003.82 251.308C1000.68 251.304 998.767 249.364 998.763 246.125V222.605H1008.9V218.68H998.763V208.346H994.424V218.68H986.744V222.605H994.424V246.125C994.441 251.214 996.89 255.224 1003.43 255.237C1005.13 255.237 1007.61 254.642 1009.28 254.038L1008.92 250.136C1007.34 250.799 1005.55 251.308 1003.82 251.308V251.308Z" fill="white"/>
<path fill-rule="evenodd" clip-rule="evenodd" d="M1032.47 217.747C1026.76 217.742 1022.28 220.981 1020.46 224.897L1020.42 224.978H1020.34H1020.05V199.297H1015.71V254.299H1020.05V236.495C1020.06 226.57 1025.57 221.685 1032.48 221.671C1039.88 221.685 1041.51 227.473 1041.52 233.305V254.299H1045.86V233.071C1045.83 225.244 1043.45 217.76 1032.47 217.747V217.747Z" fill="white"/>
<path fill-rule="evenodd" clip-rule="evenodd" d="M1050.61 236.494C1050.61 247.37 1058.3 255.228 1069.14 255.232C1079.98 255.228 1087.66 247.37 1087.67 236.494C1087.66 225.6 1079.98 217.751 1069.14 217.746C1058.3 217.751 1050.61 225.604 1050.61 236.494V236.494ZM1069.13 221.671C1077.89 221.684 1083.31 228.347 1083.33 236.494C1083.32 244.632 1077.89 251.299 1069.13 251.308C1060.39 251.299 1054.96 244.632 1054.95 236.494C1054.96 228.347 1060.39 221.684 1069.13 221.671V221.671Z" fill="white"/>
<path fill-rule="evenodd" clip-rule="evenodd" d="M1093.27 226.751V254.299H1097.61V226.751V199.297H1093.27V226.751Z" fill="white"/>
<path fill-rule="evenodd" clip-rule="evenodd" d="M1103.22 236.494C1103.22 247.374 1110.91 255.228 1121.75 255.232C1132.59 255.228 1140.27 247.374 1140.28 236.494C1140.27 225.6 1132.58 217.751 1121.75 217.746C1110.91 217.751 1103.22 225.604 1103.22 236.494V236.494ZM1121.75 221.666C1130.5 221.684 1135.92 228.347 1135.94 236.493C1135.92 244.631 1130.5 251.299 1121.75 251.308C1112.99 251.299 1107.57 244.631 1107.55 236.493C1107.57 228.347 1112.99 221.684 1121.75 221.666V221.666Z" fill="white"/>
<path fill-rule="evenodd" clip-rule="evenodd" d="M1175.56 224.675C1172.9 220.444 1168.26 217.746 1162.24 217.746C1151.86 217.764 1143.41 226.001 1143.4 236.025C1143.41 246.048 1151.86 254.281 1162.24 254.299C1168.27 254.299 1172.9 251.601 1175.56 247.37L1175.6 247.302H1175.68H1175.96V252.422C1175.95 256.45 1175.71 269.005 1161.55 269.027C1156.03 269.027 1150.83 267.313 1146.73 263.163L1144.14 265.567C1147.73 269.911 1154.48 272.947 1161.54 272.947C1168.73 272.929 1180.29 269.898 1180.3 252.106L1180.3 218.68H1175.96V224.743H1175.83H1175.6L1175.56 224.675V224.675ZM1176.12 236.029C1176.12 243.951 1169.76 250.379 1161.93 250.383C1154.1 250.379 1147.74 243.951 1147.74 236.029C1147.74 228.103 1154.1 221.671 1161.93 221.671C1169.76 221.671 1176.12 228.103 1176.12 236.029V236.029Z" fill="white"/>
<path fill-rule="evenodd" clip-rule="evenodd" d="M1213.9 218.68L1202.36 249.147L1188.72 218.68H1183.87L1200.05 254.597L1196.8 262.956C1195.73 265.752 1193.71 269.14 1190.22 269.14C1187.84 269.14 1186.47 268.725 1185.21 268.215L1183.11 271.301C1184.87 272.329 1188.31 272.952 1190.3 272.952C1195.31 272.952 1198.42 270.06 1200.31 265.504L1218.52 218.685H1213.9V218.68Z" fill="white"/>
<path fill-rule="evenodd" clip-rule="evenodd" d="M813.92 185.186C812.35 184.614 807.672 183.125 805.674 182.489C803.672 181.844 797.99 180.179 796.332 179.674C795.729 178.858 795.092 178.194 794.592 177.703C789.08 171.766 780.692 168.225 772.143 168.225C762.429 168.225 755.156 171.469 752.663 172.745H629.435C628.302 172.745 625.845 172.745 625.845 172.745C625.845 172.745 625.845 175.515 625.845 176.376C625.845 181.839 632.07 185.958 640.33 185.958H675.28L703.576 206.185V237.207C703.576 252.509 711.55 266.348 724.893 274.247C736.06 280.86 742.794 281.388 750.433 281.388C750.982 281.388 751.53 281.383 752.097 281.379C752.667 281.379 753.247 281.374 753.845 281.374C754.812 281.374 757.435 281.374 757.435 281.374C757.435 281.374 757.435 278.772 757.435 277.743V216.813L759.825 215.031L790.913 191.845C790.913 191.845 807.253 190.821 811.396 190.55C813.697 190.401 816.293 190.18 818.103 189.964C819.767 189.765 820.445 189.233 820.445 188.795C820.445 188.267 820.137 188.06 819.749 187.767C819.428 187.519 816.962 186.301 813.92 185.186V185.186Z" fill="white"/>
<path fill-rule="evenodd" clip-rule="evenodd" d="M814.634 187.568C814.634 187.568 799.881 183.63 794.209 183.125C794.209 183.125 771.763 195.377 765.475 199.495C759.178 203.609 757.983 209.799 757.702 212.104L789.74 188.218C789.74 188.218 814.21 188.218 814.848 188.218C815.485 188.218 814.634 187.568 814.634 187.568V187.568Z" fill="black"/>
<path fill-rule="evenodd" clip-rule="evenodd" d="M762.745 197.231C769.319 192.792 792.014 180.224 792.014 180.224C792.014 180.224 792.041 180.251 792.045 180.26C788.156 176.038 781.088 171.856 772.146 171.856C761.149 171.856 753.568 176.376 753.568 176.376H629.438C629.438 179.746 634.46 182.322 640.333 182.322C644.699 182.322 676.429 182.322 676.429 182.322L707.174 204.309V237.207C707.174 251.489 714.586 263.939 726.716 271.116C738.837 278.293 744.92 277.748 753.848 277.748V214.977C753.848 209.447 755.494 202.134 762.745 197.231V197.231ZM782.341 181.921C782.341 183.179 781.324 184.203 780.085 184.203C778.84 184.203 777.828 183.179 777.828 181.921C777.828 180.667 778.845 179.643 780.085 179.643C781.324 179.643 782.341 180.667 782.341 181.921ZM753.947 191.444L768.021 183.563L774.207 184.077L753.947 195.449V191.444V191.444Z" fill="black"/>
<path fill-rule="evenodd" clip-rule="evenodd" d="M676.431 182.327H728.171C716.603 182.327 707.175 191.728 707.175 204.313L676.431 182.327V182.327Z" fill="#F0E614"/>
<path fill-rule="evenodd" clip-rule="evenodd" d="M789.197 181.803C785.107 178.28 778.668 175.059 771.028 175.059V171.879L772.148 171.856C781.08 171.856 788.126 176.016 792.015 180.224L789.197 181.803V181.803Z" fill="#E60000"/>
<path fill-rule="evenodd" clip-rule="evenodd" d="M789.736 188.218L767.318 204.94C767.318 204.94 767.05 202.495 770.426 199.739C773.797 196.983 794.209 183.129 794.209 183.129L789.736 188.218V188.218Z" fill="#E60000"/>
<path fill-rule="evenodd" clip-rule="evenodd" d="M744.432 230.955C744.432 230.955 744.432 222.988 744.432 219.768C744.432 215.067 742.536 211.81 738.211 208.716L719.886 195.616C717.83 197.889 716.586 200.934 716.586 204.322C716.586 208.544 718.588 212.284 721.67 214.661L744.432 230.955V230.955Z" fill="white"/>
<path fill-rule="evenodd" clip-rule="evenodd" d="M237.523 203.686V254.299H242.321V203.686H259.522V199.296H220.317V203.686H237.389H237.523Z" fill="white"/>
<path fill-rule="evenodd" clip-rule="evenodd" d="M280.554 217.746C274.842 217.742 270.239 220.981 268.415 224.896L268.38 224.977H268.295H268.125V199.296H263.786V254.299H268.125V236.494C268.139 226.57 273.642 221.684 280.55 221.666C287.944 221.684 289.585 227.468 289.594 233.305V254.299H293.929V233.07C293.92 225.239 291.529 217.764 280.554 217.746V217.746Z" fill="white"/>
<path fill-rule="evenodd" clip-rule="evenodd" d="M318.326 251.308C307.472 251.304 304.765 241.578 304.751 237.658V237.523H334.555V234.397C334.546 226.137 328.847 217.751 318.023 217.747C307.726 217.756 300.417 225.758 300.412 236.422C300.421 247.465 307.49 255.233 318.251 255.237C324.481 255.237 329.85 253.032 333.436 247.704L330.269 245.011C327.892 248.868 323 251.304 318.326 251.308V251.308ZM304.75 233.458C304.755 231.532 307.622 221.689 317.79 221.666C324.694 221.684 330.215 227.007 330.215 233.458V233.593H304.75V233.458V233.458Z" fill="white"/>
<path fill-rule="evenodd" clip-rule="evenodd" d="M376.86 213.587C374.478 210.714 371.022 209.081 366.567 209.081C357.5 209.081 350.82 216.538 350.82 226.796C350.82 237.054 357.5 244.51 366.183 244.51C371.022 244.51 374.937 242.336 377.399 238.605L387.38 246.143C382.849 252.662 375.165 255.698 367.713 255.698C350.74 255.698 338.373 244.429 338.373 226.791C338.373 209.158 350.74 197.889 367.713 197.889C373.782 197.889 381.462 199.987 386.073 205.973L376.86 213.587V213.587Z" fill="white"/>
<path fill-rule="evenodd" clip-rule="evenodd" d="M408.166 215.608C419.69 215.608 428.903 223.381 428.903 235.421C428.903 247.465 419.69 255.237 408.166 255.237C396.647 255.237 387.429 247.465 387.429 235.421C387.429 223.381 396.647 215.608 408.166 215.608V215.608ZM408.167 244.979C413.929 244.979 417.385 241.095 417.385 235.42C417.385 229.75 413.929 225.866 408.167 225.866C402.405 225.866 398.953 229.75 398.953 235.42C398.953 241.095 402.41 244.979 408.167 244.979V244.979Z" fill="white"/>
<path fill-rule="evenodd" clip-rule="evenodd" d="M433.166 216.542H444.689V222.605H444.841C447.298 218.017 450.527 215.613 455.597 215.613C456.904 215.613 458.362 215.689 459.437 216.001V226.647C457.823 226.178 456.208 225.866 454.518 225.866C445.764 225.866 444.685 230.995 444.685 238.533V254.304H433.161V216.542H433.166Z" fill="white"/>
<path fill-rule="evenodd" clip-rule="evenodd" d="M462.724 216.542H473.783V221.667H473.94C475.469 218.716 479.238 215.608 484.843 215.608C496.519 215.608 498.668 223.381 498.668 233.476V254.299H487.149V235.804C487.149 231.46 487.073 225.862 481.16 225.862C475.17 225.862 474.247 230.603 474.247 235.497V254.299H462.724V216.542V216.542Z" fill="white"/>
<path fill-rule="evenodd" clip-rule="evenodd" d="M539.078 247.771C535.394 252.517 529.325 255.233 523.335 255.233C511.816 255.233 502.594 247.46 502.594 235.416C502.594 223.376 511.812 215.604 523.335 215.604C534.088 215.604 540.844 223.376 540.844 235.416V239.074H514.117C515.041 243.5 518.341 246.373 522.796 246.373C526.56 246.373 529.093 244.429 531.015 241.785L539.078 247.771V247.771ZM529.324 231.149C529.4 227.269 526.403 224.003 522.256 224.003C517.19 224.003 514.425 227.495 514.117 231.149H529.324V231.149Z" fill="white"/>
<path fill-rule="evenodd" clip-rule="evenodd" d="M544.919 226.75V199.296H556.438V226.75V254.299H544.919V226.75V226.75Z" fill="white"/>
<path fill-rule="evenodd" clip-rule="evenodd" d="M563.203 226.75V199.296H574.722V226.75V254.299H563.203V226.75V226.75Z" fill="white"/>
<path fill-rule="evenodd" clip-rule="evenodd" d="M588.263 226.75V199.296H583.46V226.75V254.299H610.423V249.914H588.263V226.75Z" fill="white"/>
<path fill-rule="evenodd" clip-rule="evenodd" d="M641.617 230.589C641.599 221.567 636.185 217.769 627.618 217.747C623.083 217.747 617.638 219.501 614.284 222.673L616.799 225.663C619.943 222.984 623.484 221.671 627.618 221.671C633.331 221.685 637.728 224.215 637.737 230.513V232.822H632.225C628.738 232.822 623.832 233.102 619.823 234.73C615.809 236.359 612.701 239.318 612.696 244.736C612.696 252.247 619.047 255.233 625.085 255.242C631.043 255.237 634.812 253.095 637.411 248.548L637.452 248.48H637.532H637.817V248.62C637.817 250.591 637.964 252.562 638.254 254.308H642.29C641.769 250.239 641.621 246.283 641.621 239.368V230.589H641.617ZM637.737 238.822C637.737 241.831 637.099 244.952 635.213 247.334C633.322 249.702 630.182 251.313 625.246 251.313C625.246 251.313 625.241 251.313 625.237 251.313C621.357 251.304 617.044 249.035 617.04 244.497C617.067 238.208 624.853 236.287 632.537 236.287H637.741V238.822H637.737Z" fill="white"/>
<path fill-rule="evenodd" clip-rule="evenodd" d="M667.488 217.742C662.221 217.742 656.201 219.993 653.395 224.905L653.355 224.977H653.279H652.99V199.296H648.65V254.299H652.99V248.006H653.123H653.355L653.395 248.078C656.201 252.991 662.221 255.233 667.488 255.233C678.329 255.228 686.009 247.375 686.018 236.494C686.009 225.605 678.329 217.751 667.488 217.742V217.742ZM667.487 251.308C659.045 251.299 652.543 244.645 652.53 236.494C652.543 228.338 659.045 221.684 667.487 221.67C676.242 221.684 681.66 228.347 681.678 236.494C681.66 244.631 676.242 251.299 667.487 251.308V251.308Z" fill="white"/>
</g>
<defs>
<filter id="filter0_d_229_21495" x="38" y="-1" width="1365" height="461" filterUnits="userSpaceOnUse" color-interpolation-filters="sRGB">
<feFlood flood-opacity="0" result="BackgroundImageFix"/>
<feColorMatrix in="SourceAlpha" type="matrix" values="0 0 0 0 0 0 0 0 0 0 0 0 0 0 0 0 0 0 127 0" result="hardAlpha"/>
<feOffset dy="4"/>
<feGaussianBlur stdDeviation="2"/>
<feComposite in2="hardAlpha" operator="out"/>
<feColorMatrix type="matrix" values="0 0 0 0 0 0 0 0 0 0 0 0 0 0 0 0 0 0 0.25 0"/>
<feBlend mode="normal" in2="BackgroundImageFix" result="effect1_dropShadow_229_21495"/>
<feBlend mode="normal" in="SourceGraphic" in2="effect1_dropShadow_229_21495" result="shape"/>
</filter>
<filter id="filter1_d_229_21495" x="-4" y="0" width="1448" height="460" filterUnits="userSpaceOnUse" color-interpolation-filters="sRGB">
<feFlood flood-opacity="0" result="BackgroundImageFix"/>
<feColorMatrix in="SourceAlpha" type="matrix" values="0 0 0 0 0 0 0 0 0 0 0 0 0 0 0 0 0 0 127 0" result="hardAlpha"/>
<feOffset dy="4"/>
<feGaussianBlur stdDeviation="2"/>
<feComposite in2="hardAlpha" operator="out"/>
<feColorMatrix type="matrix" values="0 0 0 0 0 0 0 0 0 0 0 0 0 0 0 0 0 0 0.25 0"/>
<feBlend mode="normal" in2="BackgroundImageFix" result="effect1_dropShadow_229_21495"/>
<feBlend mode="normal" in="SourceGraphic" in2="effect1_dropShadow_229_21495" result="shape"/>
</filter>
<clipPath id="clip0_229_21495">
<rect width="1440" height="452" fill="white"/>
</clipPath>
<clipPath id="clip1_229_21495">
<rect width="218.14" height="218.14" fill="white" transform="translate(1095.49 79.144) rotate(-34.688)"/>
</clipPath>
<clipPath id="clip2_229_21495">
<rect width="216.973" height="216.973" fill="white" transform="translate(474.701 -71.7915) rotate(9.06408)"/>
</clipPath>
</defs>
</svg>
