<svg width="38" height="38" viewBox="0 0 38 38" fill="none" xmlns="http://www.w3.org/2000/svg">
<path fill-rule="evenodd" clip-rule="evenodd" d="M16.2991 33.0519L8.36667 25.4186H2.76123C2.56315 25.4201 2.37274 25.345 2.23267 25.2102C2.0926 25.0754 2.01459 24.8922 2.01614 24.7016V13.3068C2.01459 13.1162 2.0926 12.9329 2.23267 12.7981C2.37274 12.6634 2.56315 12.5883 2.76123 12.5898H8.36667L16.2991 4.95649C16.5141 4.75291 16.8354 4.69412 17.113 4.80757C17.3897 4.91294 17.57 5.172 17.5658 5.45839V32.55C17.57 32.8364 17.3897 33.0954 17.113 33.2008C17.0192 33.2331 16.9203 33.2499 16.8207 33.2504C16.6264 33.2533 16.4388 33.1819 16.2991 33.0519ZM22.683 30.5627L20.6582 28.505C20.3906 28.2185 20.3906 27.7683 20.6582 27.4818C25.252 22.799 25.252 15.2083 20.6582 10.5255C20.3906 10.2389 20.3906 9.7888 20.6582 9.50224L22.6775 7.44455C22.8086 7.30502 22.99 7.22612 23.1795 7.22612C23.3691 7.22612 23.5505 7.30502 23.6816 7.44455C29.9452 13.8289 29.9452 24.1783 23.6816 30.5627C23.5506 30.7005 23.3705 30.7782 23.1823 30.7782C22.9941 30.7782 22.8139 30.7005 22.683 30.5627ZM26.2092 34.155C25.9415 33.8684 25.9415 33.4183 26.2092 33.1318C33.8607 25.3243 33.8607 12.6769 26.2092 4.86935C25.9415 4.58279 25.9415 4.13269 26.2092 3.84613L28.2284 1.78843C28.5096 1.51571 28.9514 1.51571 29.2326 1.78843C38.5569 11.2962 38.5569 26.7049 29.2326 36.2127C28.9514 36.4854 28.5096 36.4854 28.2284 36.2127L26.2092 34.155Z" fill="#1A1F23"/>
</svg>
