<svg width="39" height="38" viewBox="0 0 39 38" fill="none" xmlns="http://www.w3.org/2000/svg">
<path fill-rule="evenodd" clip-rule="evenodd" d="M30.2197 26.2203L26.5743 29.9322C26.3622 30.1286 26.0382 30.1286 25.826 29.9322L19.4795 23.4822L13.1331 29.9363C12.9209 30.1327 12.5969 30.1327 12.3848 29.9363L8.73937 26.2244C8.54651 26.0084 8.54651 25.6785 8.73937 25.4624L15.0778 19.0002L8.73937 12.538C8.54651 12.322 8.54651 11.9921 8.73937 11.7761L12.3848 8.06418C12.5969 7.86781 12.9209 7.86781 13.1331 8.06418L19.4795 14.5182L25.826 8.06418C26.0382 7.86781 26.3622 7.86781 26.5743 8.06418L30.2197 11.7761C30.4126 11.9921 30.4126 12.322 30.2197 12.538L23.8813 19.0002L30.2197 25.4624C30.3085 25.5685 30.3593 25.7021 30.3638 25.8414C30.3593 25.9807 30.3085 26.1143 30.2197 26.2203Z" fill="#1A1F23"/>
</svg>
