<svg width="38" height="38" viewBox="0 0 38 38" fill="none" xmlns="http://www.w3.org/2000/svg">
<path fill-rule="evenodd" clip-rule="evenodd" d="M36.7165 19.4603L26.6567 33.1391L26.6432 33.1206C26.4636 33.3425 26.1895 33.3425 26.01 33.1206L22.9626 28.9769C22.791 28.7374 22.791 28.3555 22.9626 28.116L29.6702 19.0275L22.9761 9.92979C22.8045 9.69023 22.8045 9.30838 22.9761 9.06882L26.0235 4.92513C26.1997 4.69179 26.4805 4.69179 26.6567 4.92513L36.7165 18.5993C36.8881 18.8389 36.8881 19.2207 36.7165 19.4603ZM1.06133 19.4605L11.1211 33.1392L11.1347 33.1208C11.3142 33.3427 11.5884 33.3427 11.7679 33.1208L14.8153 28.9771C14.9869 28.7376 14.9869 28.3557 14.8153 28.1162L8.1076 19.0277L14.8017 9.92997C14.9733 9.69042 14.9733 9.30856 14.8017 9.06901L11.7543 4.92532C11.5782 4.69197 11.2973 4.69197 11.1211 4.92532L1.06133 18.5995C0.889715 18.8391 0.889715 19.2209 1.06133 19.4605Z" fill="#1A1F23"/>
</svg>
