<svg width="38" height="38" viewBox="0 0 38 38" fill="none" xmlns="http://www.w3.org/2000/svg">
<path fill-rule="evenodd" clip-rule="evenodd" d="M14.2723 30.2922L19.0672 35.1746C19.2187 35.2988 19.3051 35.4875 19.301 35.6855C19.3025 35.88 19.2273 36.067 19.0923 36.2045C18.9572 36.342 18.7736 36.4186 18.5826 36.417H2.91488C2.72389 36.4186 2.54027 36.342 2.40521 36.2045C2.27015 36.067 2.19496 35.88 2.19649 35.6855V19.732C2.18953 19.432 2.36047 19.1571 2.62981 19.0353C2.90291 18.9467 3.20164 19.0106 3.41662 19.2037L8.21158 24.1209L14.2723 17.9961C14.4004 17.858 14.5788 17.7797 14.7655 17.7797C14.9521 17.7797 15.1305 17.858 15.2586 17.9961L20.2874 23.1166C20.4461 23.2426 20.5336 23.4403 20.5211 23.6449C20.5234 23.8327 20.4363 24.0101 20.2874 24.1209L14.2723 30.2922ZM36.4049 18.2692C36.4119 18.5692 36.241 18.844 35.9716 18.9658C35.8793 18.9943 35.7828 19.0061 35.6866 19.0007C35.501 18.9953 35.3233 18.9233 35.1848 18.7975L30.3899 13.8802L24.3292 20.0573C24.2003 20.1744 24.0343 20.2403 23.8616 20.243C23.6719 20.25 23.4865 20.1836 23.3428 20.0573L18.2628 14.8845C17.9955 14.605 17.9955 14.1597 18.2628 13.8802L24.3292 7.70892L19.5 2.82648C19.3104 2.60759 19.2476 2.3034 19.3346 2.02532C19.4543 1.75107 19.7242 1.57701 20.0188 1.5841H35.6866C35.8775 1.58254 36.0612 1.65911 36.1962 1.79663C36.3313 1.93415 36.4065 2.12112 36.4049 2.3156V18.2692Z" fill="#1A1F23"/>
</svg>
