<svg width="38" height="38" viewBox="0 0 38 38" fill="none" xmlns="http://www.w3.org/2000/svg">
<path fill-rule="evenodd" clip-rule="evenodd" d="M34.2103 19C34.2103 27.7445 27.2485 34.8333 18.6606 34.8333C10.0727 34.8333 3.11084 27.7445 3.11084 19C3.11084 10.2555 10.0727 3.16663 18.6606 3.16663C22.7846 3.16663 26.7398 4.83478 29.6559 7.8041C32.5721 10.7734 34.2103 14.8007 34.2103 19ZM25.7831 14.3777C25.7831 10.4193 22.5779 7.78896 18.6603 7.78896C14.7428 7.78896 12.1746 11.0833 12.1746 11.0833L14.7729 13.729C14.7729 13.729 16.7191 11.7473 18.6603 11.7473C20.6015 11.7473 21.8957 13.0599 21.8957 14.3777C21.8957 17.0234 16.7191 17.0234 16.7191 20.9817V22.2943H20.6065V21.6457C20.6065 19.664 25.7831 19.664 25.7831 14.3777ZM21.2687 28.2346C21.2714 26.7741 20.1114 25.5876 18.6771 25.5838C17.2427 25.5801 16.0767 26.7605 16.0721 28.221C16.0675 29.6815 17.226 30.8695 18.6603 30.8752C19.3507 30.8793 20.0139 30.6019 20.5021 30.1048C20.9902 29.6077 21.2627 28.9324 21.2587 28.2295L21.2687 28.2346Z" fill="#1A1F23"/>
</svg>
