<svg width="38" height="38" viewBox="0 0 38 38" fill="none" xmlns="http://www.w3.org/2000/svg">
<path fill-rule="evenodd" clip-rule="evenodd" d="M21.4008 2.4508C20.1852 1.21301 18.2143 1.21301 16.9987 2.4508L2.96933 16.736C1.75371 17.9737 1.75371 19.9806 2.96933 21.2184L16.9987 35.5035C18.2143 36.7413 20.1852 36.7413 21.4008 35.5035L35.4301 21.2184C36.6458 19.9806 36.6458 17.9737 35.4301 16.736L21.4008 2.4508ZM17.2502 20.751H21.1553V9.50014H17.2502V20.751ZM21.8021 26.7102C21.8021 25.2474 20.6365 24.0616 19.1987 24.0616C17.7608 24.0616 16.5952 25.2474 16.5952 26.7102C16.5952 28.1729 17.7608 29.3587 19.1987 29.3587C20.6365 29.3587 21.8021 28.1729 21.8021 26.7102Z" fill="#1A1F23"/>
</svg>
