<svg width="38" height="38" viewBox="0 0 38 38" fill="none" xmlns="http://www.w3.org/2000/svg">
<path d="M24.6835 18.2632H28.076V30.6242H9.60518V18.2632H13.0606V14.0853H8.66279C6.92789 14.0853 5.52148 15.4918 5.52148 17.2266V31.5196C5.52148 33.2545 6.92789 34.6609 8.66279 34.6609C10.3977 34.6609 27.3464 34.6609 29.0813 34.6609C30.8162 34.6609 32.2226 33.2545 32.2226 31.5196C32.2226 29.7847 32.2226 17.2266 32.2226 17.2266C32.2226 15.4918 30.8162 14.0853 29.0813 14.0853H24.6835V18.2632Z" fill="#1A1F23"/>
<path d="M18.3159 1.4745C18.6019 1.12007 19.1421 1.12007 19.4282 1.4745L26.7745 10.5772C27.1517 11.0447 26.819 11.7407 26.2184 11.7407H11.5257C10.925 11.7407 10.5923 11.0447 10.9695 10.5772L18.3159 1.4745Z" fill="#1A1F23"/>
<path d="M15.9552 11.7014H21.7891V25.052H15.9552V11.7014Z" fill="#1A1F23"/>
</svg>
