<svg width="38" height="38" viewBox="0 0 38 38" fill="none" xmlns="http://www.w3.org/2000/svg">
<path fill-rule="evenodd" clip-rule="evenodd" d="M15.4546 3.16663C21.8959 3.16663 27.1176 8.48357 27.1176 15.0424C27.1283 17.2877 26.5031 19.4885 25.3167 21.3812L34.1355 30.325C35.1429 31.3603 35.1429 33.0287 34.1355 34.064C33.6505 34.5623 32.9885 34.8404 32.2995 34.8353C31.6118 34.8336 30.9523 34.5566 30.4635 34.064L21.6799 25.0844C19.8211 26.2924 17.6596 26.929 15.4546 26.9181C9.01323 26.9181 3.7915 21.6011 3.7915 15.0424C3.7915 8.48357 9.01323 3.16663 15.4546 3.16663ZM15.4554 22.9599C19.7496 22.9599 23.2308 19.4153 23.2308 15.0427C23.2308 10.6702 19.7496 7.12558 15.4554 7.12558C11.1612 7.12558 7.68006 10.6702 7.68006 15.0427C7.68834 19.4118 11.1646 22.9515 15.4554 22.9599Z" fill="#1A1F23"/>
</svg>
