<svg width="38" height="38" viewBox="0 0 38 38" fill="none" xmlns="http://www.w3.org/2000/svg">
<path fill-rule="evenodd" clip-rule="evenodd" d="M26.4259 22.167C28.1186 22.167 29.5599 22.7728 30.7498 23.9844C31.9398 25.1961 32.5347 26.6637 32.5347 28.3872C32.5347 30.1107 31.9398 31.5783 30.7498 32.79C29.5599 34.0016 28.1186 34.6074 26.4259 34.6074C24.7333 34.6074 23.292 34.0016 22.102 32.79C20.9121 31.5783 20.3171 30.1107 20.3171 28.3872C20.3171 28.2317 20.3298 28.0114 20.3553 27.7263L13.4829 24.2274C12.312 25.3419 10.9248 25.8991 9.32122 25.8991C7.62856 25.8991 6.18728 25.2933 4.99732 24.0816C3.80737 22.87 3.2124 21.4024 3.2124 19.6789C3.2124 17.9553 3.80737 16.4878 4.99732 15.2761C6.18728 14.0645 7.62856 13.4586 9.32122 13.4586C10.9248 13.4586 12.312 14.0159 13.4829 15.1303L20.3553 11.6314C20.3298 11.3463 20.3171 11.126 20.3171 10.9705C20.3171 9.24701 20.9121 7.77944 22.102 6.56778C23.292 5.35612 24.7333 4.75031 26.4259 4.75031C28.1186 4.75031 29.5599 5.35612 30.7498 6.56778C31.9398 7.77944 32.5347 9.24701 32.5347 10.9705C32.5347 12.6941 31.9398 14.1616 30.7498 15.3733C29.5599 16.585 28.1186 17.1908 26.4259 17.1908C24.8223 17.1908 23.4351 16.6336 22.2643 15.5191L15.3919 19.018C15.4173 19.3031 15.43 19.5234 15.43 19.6789C15.43 19.8344 15.4173 20.0547 15.3919 20.3398L22.2643 23.8387C23.4351 22.7242 24.8223 22.167 26.4259 22.167Z" fill="#1A1F23"/>
</svg>
