<svg width="39" height="38" viewBox="0 0 39 38" fill="none" xmlns="http://www.w3.org/2000/svg">
<path fill-rule="evenodd" clip-rule="evenodd" d="M36.6864 29.3401C36.6874 29.6416 36.5164 29.9153 36.2505 30.0378C36.1623 30.0709 36.0683 30.0846 35.9747 30.0778C35.7861 30.0714 35.6051 29.9988 35.4615 29.8719L27.3566 22.3188V27.9406C27.3596 28.53 27.135 29.0962 26.7328 29.513C26.3307 29.9298 25.7845 30.1626 25.2158 30.1595L4.61241 30.0835C4.04467 30.0851 3.49985 29.8516 3.09892 29.435C2.69798 29.0183 2.47414 28.453 2.47708 27.8646V10.1359C2.47413 9.54644 2.69873 8.98026 3.10086 8.56347C3.50299 8.14667 4.04924 7.91387 4.61792 7.91693L25.2213 7.9929C25.789 7.99137 26.3338 8.22484 26.7348 8.64147C27.1357 9.05811 27.3596 9.62341 27.3566 10.2119V15.8336L35.4615 8.13425C35.6788 7.93595 35.9816 7.87274 36.2561 7.9684C36.518 8.0917 36.6862 8.36224 36.6864 8.66039V29.3401Z" fill="#1A1F23"/>
</svg>
